<svg version="1.1" viewBox="0.0 0.0 806.0 498.0" fill="none" stroke="none" stroke-linecap="square" stroke-miterlimit="10" width="806" height="498" xmlns:xlink="http://www.w3.org/1999/xlink" xmlns="http://www.w3.org/2000/svg"><path fill="#ffffff" d="M0 0L806.0 0L806.0 498.0L0 498.0L0 0Z" fill-rule="nonzero"/><path fill="#ffffff" d="M0 0L806.0 0L806.0 498.0L0 498.0L0 0Z" fill-rule="nonzero"/><path stroke="#333333" stroke-width="1.0" stroke-linecap="butt" d="M93.5 65.5L93.5 452.5" fill-rule="nonzero"/><path stroke="#cccccc" stroke-width="1.0" stroke-linecap="butt" d="M231.5 65.5L231.5 452.5" fill-rule="nonzero"/><path stroke="#cccccc" stroke-width="1.0" stroke-linecap="butt" d="M368.5 65.5L368.5 452.5" fill-rule="nonzero"/><path stroke="#cccccc" stroke-width="1.0" stroke-linecap="butt" d="M506.5 65.5L506.5 452.5" fill-rule="nonzero"/><path stroke="#cccccc" stroke-width="1.0" stroke-linecap="butt" d="M643.5 65.5L643.5 452.5" fill-rule="nonzero"/><path stroke="#cccccc" stroke-width="1.0" stroke-linecap="butt" d="M781.5 65.5L781.5 452.5" fill-rule="nonzero"/><clipPath id="id_0"><path d="M93.9 65.5L781.1 65.5L781.1 452.1L93.9 452.1L93.9 65.5Z" clip-rule="nonzero"/></clipPath><path stroke="#000000" stroke-width="0.0" stroke-linecap="butt" stroke-opacity="0.0" clip-path="url(#id_0)" d="M94.0 127.0L94.0 87.0L752.0 87.0C753.10455 87.0 754.0 87.89543 754.0 89.0L754.0 125.0C754.0 126.10457 753.10455 127.0 752.0 127.0Z" fill-rule="nonzero"/><path fill="#3c78d8" clip-path="url(#id_0)" d="M94.0 127.0L94.0 87.0L752.0 87.0C753.10455 87.0 754.0 87.89543 754.0 89.0L754.0 125.0C754.0 126.10457 753.10455 127.0 752.0 127.0Z" fill-rule="nonzero"/><path stroke="#000000" stroke-width="0.0" stroke-linecap="butt" stroke-opacity="0.0" clip-path="url(#id_0)" d="M94.0 187.0L94.0 147.0L606.0 147.0C607.10455 147.0 608.0 147.89543 608.0 149.0L608.0 185.0C608.0 186.10457 607.10455 187.0 606.0 187.0Z" fill-rule="nonzero"/><path fill="#3c78d8" clip-path="url(#id_0)" d="M94.0 187.0L94.0 147.0L606.0 147.0C607.10455 147.0 608.0 147.89543 608.0 149.0L608.0 185.0C608.0 186.10457 607.10455 187.0 606.0 187.0Z" fill-rule="nonzero"/><path stroke="#000000" stroke-width="0.0" stroke-linecap="butt" stroke-opacity="0.0" clip-path="url(#id_0)" d="M94.0 248.0L94.0 208.0L403.0 208.0C404.10458 208.0 405.0 208.89543 405.0 210.0L405.0 246.0C405.0 247.10457 404.10458 248.0 403.0 248.0Z" fill-rule="nonzero"/><path fill="#3c78d8" clip-path="url(#id_0)" d="M94.0 248.0L94.0 208.0L403.0 208.0C404.10458 208.0 405.0 208.89543 405.0 210.0L405.0 246.0C405.0 247.10457 404.10458 248.0 403.0 248.0Z" fill-rule="nonzero"/><path stroke="#000000" stroke-width="0.0" stroke-linecap="butt" stroke-opacity="0.0" clip-path="url(#id_0)" d="M94.0 309.0L94.0 269.0L381.0 269.0C382.10458 269.0 383.0 269.89542 383.0 271.0L383.0 307.0C383.0 308.10458 382.10458 309.0 381.0 309.0Z" fill-rule="nonzero"/><path fill="#3c78d8" clip-path="url(#id_0)" d="M94.0 309.0L94.0 269.0L381.0 269.0C382.10458 269.0 383.0 269.89542 383.0 271.0L383.0 307.0C383.0 308.10458 382.10458 309.0 381.0 309.0Z" fill-rule="nonzero"/><path stroke="#000000" stroke-width="0.0" stroke-linecap="butt" stroke-opacity="0.0" clip-path="url(#id_0)" d="M94.0 370.0L94.0 330.0L158.0 330.0C159.10457 330.0 160.0 330.89542 160.0 332.0L160.0 368.0C160.0 369.10458 159.10457 370.0 158.0 370.0Z" fill-rule="nonzero"/><path fill="#3c78d8" clip-path="url(#id_0)" d="M94.0 370.0L94.0 330.0L158.0 330.0C159.10457 330.0 160.0 330.89542 160.0 332.0L160.0 368.0C160.0 369.10458 159.10457 370.0 158.0 370.0Z" fill-rule="nonzero"/><path stroke="#000000" stroke-width="0.0" stroke-linecap="butt" stroke-opacity="0.0" clip-path="url(#id_0)" d="M94.0 431.0L94.0 391.0L141.0 391.0C142.10457 391.0 143.0 391.89542 143.0 393.0L143.0 429.0C143.0 430.10458 142.10457 431.0 141.0 431.0Z" fill-rule="nonzero"/><path fill="#3c78d8" clip-path="url(#id_0)" d="M94.0 431.0L94.0 391.0L141.0 391.0C142.10457 391.0 143.0 391.89542 143.0 393.0L143.0 429.0C143.0 430.10458 142.10457 431.0 141.0 431.0Z" fill-rule="nonzero"/><path stroke="#3c78d8" stroke-width="3.0" stroke-linejoin="round" stroke-linecap="round" d="M734.1089 111.5L728.51514 111.5L728.51514 110.71875L731.46826 107.4375Q732.1245 106.6875 732.3745 106.234375Q732.6245 105.765625 732.6245 105.265625Q732.6245 104.59375 732.21826 104.171875Q731.82764 103.734375 731.14014 103.734375Q730.34326 103.734375 729.89014 104.203125Q729.437 104.65625 729.437 105.484375L728.3589 105.484375Q728.3589 104.296875 729.1089 103.578125Q729.8745 102.84375 731.14014 102.84375Q732.34326 102.84375 733.03076 103.46875Q733.71826 104.09375 733.71826 105.140625Q733.71826 106.390625 732.1089 108.140625L729.82764 110.609375L734.1089 110.609375L734.1089 111.5ZM740.09326 108.640625L741.28076 108.640625L741.28076 109.515625L740.09326 109.515625L740.09326 111.5L739.01514 111.5L739.01514 109.515625L735.1245 109.515625L735.1245 108.875L738.937 102.96875L740.09326 102.96875L740.09326 108.640625ZM736.3589 108.640625L739.01514 108.640625L739.01514 104.453125L738.8745 104.6875L736.3589 108.640625ZM747.8745 107.859375Q747.8745 109.765625 747.21826 110.703125Q746.57764 111.625 745.187 111.625Q743.82764 111.625 743.1714 110.71875Q742.51514 109.8125 742.4839 108.0L742.4839 106.5625Q742.4839 104.671875 743.1245 103.765625Q743.78076 102.84375 745.1714 102.84375Q746.5464 102.84375 747.20264 103.734375Q747.8589 104.609375 747.8745 106.453125L747.8745 107.859375ZM746.78076 106.375Q746.78076 105.0 746.39014 104.375Q746.01514 103.734375 745.1714 103.734375Q744.34326 103.734375 743.95264 104.375Q743.57764 105.0 743.57764 106.296875L743.57764 108.03125Q743.57764 109.40625 743.96826 110.078125Q744.3745 110.734375 745.187 110.734375Q745.9839 110.734375 746.3745 110.109375Q746.76514 109.484375 746.78076 108.15625L746.78076 106.375Z" fill-rule="nonzero"/><path fill="#ffffff" d="M734.1089 111.5L728.51514 111.5L728.51514 110.71875L731.46826 107.4375Q732.1245 106.6875 732.3745 106.234375Q732.6245 105.765625 732.6245 105.265625Q732.6245 104.59375 732.21826 104.171875Q731.82764 103.734375 731.14014 103.734375Q730.34326 103.734375 729.89014 104.203125Q729.437 104.65625 729.437 105.484375L728.3589 105.484375Q728.3589 104.296875 729.1089 103.578125Q729.8745 102.84375 731.14014 102.84375Q732.34326 102.84375 733.03076 103.46875Q733.71826 104.09375 733.71826 105.140625Q733.71826 106.390625 732.1089 108.140625L729.82764 110.609375L734.1089 110.609375L734.1089 111.5ZM740.09326 108.640625L741.28076 108.640625L741.28076 109.515625L740.09326 109.515625L740.09326 111.5L739.01514 111.5L739.01514 109.515625L735.1245 109.515625L735.1245 108.875L738.937 102.96875L740.09326 102.96875L740.09326 108.640625ZM736.3589 108.640625L739.01514 108.640625L739.01514 104.453125L738.8745 104.6875L736.3589 108.640625ZM747.8745 107.859375Q747.8745 109.765625 747.21826 110.703125Q746.57764 111.625 745.187 111.625Q743.82764 111.625 743.1714 110.71875Q742.51514 109.8125 742.4839 108.0L742.4839 106.5625Q742.4839 104.671875 743.1245 103.765625Q743.78076 102.84375 745.1714 102.84375Q746.5464 102.84375 747.20264 103.734375Q747.8589 104.609375 747.8745 106.453125L747.8745 107.859375ZM746.78076 106.375Q746.78076 105.0 746.39014 104.375Q746.01514 103.734375 745.1714 103.734375Q744.34326 103.734375 743.95264 104.375Q743.57764 105.0 743.57764 106.296875L743.57764 108.03125Q743.57764 109.40625 743.96826 110.078125Q744.3745 110.734375 745.187 110.734375Q745.9839 110.734375 746.3745 110.109375Q746.76514 109.484375 746.78076 108.15625L746.78076 106.375Z" fill-rule="nonzero"/><path stroke="#3c78d8" stroke-width="3.0" stroke-linejoin="round" stroke-linecap="round" d="M586.39124 171.5L585.3131 171.5L585.3131 164.28125L583.1256 165.07812L583.1256 164.09375L586.235 162.92188L586.39124 162.92188L586.39124 171.5ZM595.01624 165.1875Q595.01624 165.82812 594.6725 166.32812Q594.32874 166.82812 593.76624 167.10938Q594.4225 167.39062 594.8131 167.95312Q595.20374 168.5 595.20374 169.20312Q595.20374 170.29688 594.45374 170.96875Q593.71936 171.625 592.5006 171.625Q591.26624 171.625 590.51624 170.96875Q589.78186 170.29688 589.78186 169.20312Q589.78186 168.5 590.15686 167.95312Q590.53186 167.39062 591.20374 167.10938Q590.64124 166.82812 590.3131 166.32812Q589.985 165.82812 589.985 165.1875Q589.985 164.10938 590.6725 163.48438Q591.36 162.84375 592.5006 162.84375Q593.6256 162.84375 594.3131 163.48438Q595.01624 164.10938 595.01624 165.1875ZM594.1256 169.17188Q594.1256 168.45312 593.6725 168.01562Q593.21936 167.5625 592.485 167.5625Q591.7506 167.5625 591.2975 168.01562Q590.86 168.45312 590.86 169.1875Q590.86 169.90625 591.2975 170.32812Q591.735 170.73438 592.5006 170.73438Q593.2506 170.73438 593.6881 170.3125Q594.1256 169.89062 594.1256 169.17188ZM592.5006 163.73438Q591.86 163.73438 591.45374 164.14062Q591.0631 164.53125 591.0631 165.21875Q591.0631 165.85938 591.45374 166.26562Q591.84436 166.67188 592.485 166.67188Q593.14124 166.67188 593.53186 166.26562Q593.9225 165.85938 593.9225 165.21875Q593.9225 164.5625 593.51624 164.15625Q593.11 163.73438 592.5006 163.73438ZM602.34436 163.57812L598.8131 171.5L597.6725 171.5L601.1881 163.85938L596.57874 163.85938L596.57874 162.96875L602.34436 162.96875L602.34436 163.57812Z" fill-rule="nonzero"/><path fill="#ffffff" d="M586.39124 171.5L585.3131 171.5L585.3131 164.28125L583.1256 165.07812L583.1256 164.09375L586.235 162.92188L586.39124 162.92188L586.39124 171.5ZM595.01624 165.1875Q595.01624 165.82812 594.6725 166.32812Q594.32874 166.82812 593.76624 167.10938Q594.4225 167.39062 594.8131 167.95312Q595.20374 168.5 595.20374 169.20312Q595.20374 170.29688 594.45374 170.96875Q593.71936 171.625 592.5006 171.625Q591.26624 171.625 590.51624 170.96875Q589.78186 170.29688 589.78186 169.20312Q589.78186 168.5 590.15686 167.95312Q590.53186 167.39062 591.20374 167.10938Q590.64124 166.82812 590.3131 166.32812Q589.985 165.82812 589.985 165.1875Q589.985 164.10938 590.6725 163.48438Q591.36 162.84375 592.5006 162.84375Q593.6256 162.84375 594.3131 163.48438Q595.01624 164.10938 595.01624 165.1875ZM594.1256 169.17188Q594.1256 168.45312 593.6725 168.01562Q593.21936 167.5625 592.485 167.5625Q591.7506 167.5625 591.2975 168.01562Q590.86 168.45312 590.86 169.1875Q590.86 169.90625 591.2975 170.32812Q591.735 170.73438 592.5006 170.73438Q593.2506 170.73438 593.6881 170.3125Q594.1256 169.89062 594.1256 169.17188ZM592.5006 163.73438Q591.86 163.73438 591.45374 164.14062Q591.0631 164.53125 591.0631 165.21875Q591.0631 165.85938 591.45374 166.26562Q591.84436 166.67188 592.485 166.67188Q593.14124 166.67188 593.53186 166.26562Q593.9225 165.85938 593.9225 165.21875Q593.9225 164.5625 593.51624 164.15625Q593.11 163.73438 592.5006 163.73438ZM602.34436 163.57812L598.8131 171.5L597.6725 171.5L601.1881 163.85938L596.57874 163.85938L596.57874 162.96875L602.34436 162.96875L602.34436 163.57812Z" fill-rule="nonzero"/><path stroke="#3c78d8" stroke-width="3.0" stroke-linejoin="round" stroke-linecap="round" d="M382.98 232.5L381.9019 232.5L381.9019 225.28125L379.7144 226.07812L379.7144 225.09375L382.82376 223.92188L382.98 223.92188L382.98 232.5ZM389.98 232.5L388.9019 232.5L388.9019 225.28125L386.7144 226.07812L386.7144 225.09375L389.82376 223.92188L389.98 223.92188L389.98 232.5ZM394.99564 227.70312L395.80814 227.70312Q396.5894 227.6875 397.0269 227.29688Q397.4644 226.90625 397.4644 226.23438Q397.4644 224.73438 395.9644 224.73438Q395.26126 224.73438 394.8394 225.14062Q394.43314 225.54688 394.43314 226.20312L393.3394 226.20312Q393.3394 225.1875 394.07376 224.51562Q394.82376 223.84375 395.9644 223.84375Q397.1675 223.84375 397.855 224.48438Q398.5425 225.125 398.5425 226.26562Q398.5425 226.82812 398.18314 227.34375Q397.82376 227.85938 397.19876 228.125Q397.9019 228.34375 398.2769 228.85938Q398.6675 229.375 398.6675 230.125Q398.6675 231.26562 397.9175 231.95312Q397.1675 232.625 395.9644 232.625Q394.7769 232.625 394.01126 231.96875Q393.26126 231.3125 393.26126 230.25L394.355 230.25Q394.355 230.92188 394.7925 231.32812Q395.23 231.73438 395.98 231.73438Q396.76126 231.73438 397.1675 231.32812Q397.5894 230.90625 397.5894 230.14062Q397.5894 229.40625 397.13626 229.01562Q396.68314 228.60938 395.80814 228.59375L394.99564 228.59375L394.99564 227.70312Z" fill-rule="nonzero"/><path fill="#ffffff" d="M382.98 232.5L381.9019 232.5L381.9019 225.28125L379.7144 226.07812L379.7144 225.09375L382.82376 223.92188L382.98 223.92188L382.98 232.5ZM389.98 232.5L388.9019 232.5L388.9019 225.28125L386.7144 226.07812L386.7144 225.09375L389.82376 223.92188L389.98 223.92188L389.98 232.5ZM394.99564 227.70312L395.80814 227.70312Q396.5894 227.6875 397.0269 227.29688Q397.4644 226.90625 397.4644 226.23438Q397.4644 224.73438 395.9644 224.73438Q395.26126 224.73438 394.8394 225.14062Q394.43314 225.54688 394.43314 226.20312L393.3394 226.20312Q393.3394 225.1875 394.07376 224.51562Q394.82376 223.84375 395.9644 223.84375Q397.1675 223.84375 397.855 224.48438Q398.5425 225.125 398.5425 226.26562Q398.5425 226.82812 398.18314 227.34375Q397.82376 227.85938 397.19876 228.125Q397.9019 228.34375 398.2769 228.85938Q398.6675 229.375 398.6675 230.125Q398.6675 231.26562 397.9175 231.95312Q397.1675 232.625 395.9644 232.625Q394.7769 232.625 394.01126 231.96875Q393.26126 231.3125 393.26126 230.25L394.355 230.25Q394.355 230.92188 394.7925 231.32812Q395.23 231.73438 395.98 231.73438Q396.76126 231.73438 397.1675 231.32812Q397.5894 230.90625 397.5894 230.14062Q397.5894 229.40625 397.13626 229.01562Q396.68314 228.60938 395.80814 228.59375L394.99564 228.59375L394.99564 227.70312Z" fill-rule="nonzero"/><path stroke="#3c78d8" stroke-width="3.0" stroke-linejoin="round" stroke-linecap="round" d="M360.98962 293.5L359.9115 293.5L359.9115 286.28125L357.724 287.07812L357.724 286.09375L360.83337 284.92188L360.98962 284.92188L360.98962 293.5ZM369.7865 289.85938Q369.7865 291.76562 369.13025 292.70312Q368.48962 293.625 367.099 293.625Q365.73962 293.625 365.08337 292.71875Q364.42712 291.8125 364.39587 290.0L364.39587 288.5625Q364.39587 286.67188 365.0365 285.76562Q365.69275 284.84375 367.08337 284.84375Q368.45837 284.84375 369.11462 285.73438Q369.77087 286.60938 369.7865 288.45312L369.7865 289.85938ZM368.69275 288.375Q368.69275 287.0 368.30212 286.375Q367.92712 285.73438 367.08337 285.73438Q366.25525 285.73438 365.86462 286.375Q365.48962 287.0 365.48962 288.29688L365.48962 290.03125Q365.48962 291.40625 365.88025 292.07812Q366.2865 292.73438 367.099 292.73438Q367.89587 292.73438 368.2865 292.10938Q368.67712 291.48438 368.69275 290.15625L368.69275 288.375ZM371.92712 289.21875L372.36462 284.96875L376.73962 284.96875L376.73962 285.96875L373.2865 285.96875L373.02087 288.29688Q373.6615 287.92188 374.45837 287.92188Q375.61462 287.92188 376.30212 288.70312Q376.98962 289.46875 376.98962 290.78125Q376.98962 292.09375 376.27087 292.85938Q375.56775 293.625 374.2865 293.625Q373.1615 293.625 372.44275 293.0Q371.724 292.35938 371.63025 291.25L372.64587 291.25Q372.75525 291.98438 373.17712 292.35938Q373.599 292.73438 374.2865 292.73438Q375.0365 292.73438 375.474 292.21875Q375.9115 291.70312 375.9115 290.79688Q375.9115 289.9375 375.44275 289.42188Q374.974 288.90625 374.19275 288.90625Q373.48962 288.90625 373.08337 289.20312L372.80212 289.4375L371.92712 289.21875Z" fill-rule="nonzero"/><path fill="#ffffff" d="M360.98962 293.5L359.9115 293.5L359.9115 286.28125L357.724 287.07812L357.724 286.09375L360.83337 284.92188L360.98962 284.92188L360.98962 293.5ZM369.7865 289.85938Q369.7865 291.76562 369.13025 292.70312Q368.48962 293.625 367.099 293.625Q365.73962 293.625 365.08337 292.71875Q364.42712 291.8125 364.39587 290.0L364.39587 288.5625Q364.39587 286.67188 365.0365 285.76562Q365.69275 284.84375 367.08337 284.84375Q368.45837 284.84375 369.11462 285.73438Q369.77087 286.60938 369.7865 288.45312L369.7865 289.85938ZM368.69275 288.375Q368.69275 287.0 368.30212 286.375Q367.92712 285.73438 367.08337 285.73438Q366.25525 285.73438 365.86462 286.375Q365.48962 287.0 365.48962 288.29688L365.48962 290.03125Q365.48962 291.40625 365.88025 292.07812Q366.2865 292.73438 367.099 292.73438Q367.89587 292.73438 368.2865 292.10938Q368.67712 291.48438 368.69275 290.15625L368.69275 288.375ZM371.92712 289.21875L372.36462 284.96875L376.73962 284.96875L376.73962 285.96875L373.2865 285.96875L373.02087 288.29688Q373.6615 287.92188 374.45837 287.92188Q375.61462 287.92188 376.30212 288.70312Q376.98962 289.46875 376.98962 290.78125Q376.98962 292.09375 376.27087 292.85938Q375.56775 293.625 374.2865 293.625Q373.1615 293.625 372.44275 293.0Q371.724 292.35938 371.63025 291.25L372.64587 291.25Q372.75525 291.98438 373.17712 292.35938Q373.599 292.73438 374.2865 292.73438Q375.0365 292.73438 375.474 292.21875Q375.9115 291.70312 375.9115 290.79688Q375.9115 289.9375 375.44275 289.42188Q374.974 288.90625 374.19275 288.90625Q373.48962 288.90625 373.08337 289.20312L372.80212 289.4375L371.92712 289.21875Z" fill-rule="nonzero"/><path stroke="#3c78d8" stroke-width="3.0" stroke-linejoin="round" stroke-linecap="round" d="M147.36807 354.5L141.77432 354.5L141.77432 353.71875L144.72745 350.4375Q145.3837 349.6875 145.6337 349.23438Q145.8837 348.76562 145.8837 348.26562Q145.8837 347.59375 145.47745 347.17188Q145.08682 346.73438 144.39932 346.73438Q143.60245 346.73438 143.14932 347.20312Q142.6962 347.65625 142.6962 348.48438L141.61807 348.48438Q141.61807 347.29688 142.36807 346.57812Q143.1337 345.84375 144.39932 345.84375Q145.60245 345.84375 146.28995 346.46875Q146.97745 347.09375 146.97745 348.14062Q146.97745 349.39062 145.36807 351.14062L143.08682 353.60938L147.36807 353.60938L147.36807 354.5ZM153.35245 351.64062L154.53995 351.64062L154.53995 352.51562L153.35245 352.51562L153.35245 354.5L152.27432 354.5L152.27432 352.51562L148.3837 352.51562L148.3837 351.875L152.1962 345.96875L153.35245 345.96875L153.35245 351.64062ZM149.61807 351.64062L152.27432 351.64062L152.27432 347.45312L152.1337 347.6875L149.61807 351.64062Z" fill-rule="nonzero"/><path fill="#ffffff" d="M147.36807 354.5L141.77432 354.5L141.77432 353.71875L144.72745 350.4375Q145.3837 349.6875 145.6337 349.23438Q145.8837 348.76562 145.8837 348.26562Q145.8837 347.59375 145.47745 347.17188Q145.08682 346.73438 144.39932 346.73438Q143.60245 346.73438 143.14932 347.20312Q142.6962 347.65625 142.6962 348.48438L141.61807 348.48438Q141.61807 347.29688 142.36807 346.57812Q143.1337 345.84375 144.39932 345.84375Q145.60245 345.84375 146.28995 346.46875Q146.97745 347.09375 146.97745 348.14062Q146.97745 349.39062 145.36807 351.14062L143.08682 353.60938L147.36807 353.60938L147.36807 354.5ZM153.35245 351.64062L154.53995 351.64062L154.53995 352.51562L153.35245 352.51562L153.35245 354.5L152.27432 354.5L152.27432 352.51562L148.3837 352.51562L148.3837 351.875L152.1962 345.96875L153.35245 345.96875L153.35245 351.64062ZM149.61807 351.64062L152.27432 351.64062L152.27432 347.45312L152.1337 347.6875L149.61807 351.64062Z" fill-rule="nonzero"/><path stroke="#3c78d8" stroke-width="3.0" stroke-linejoin="round" stroke-linecap="round" d="M128.84402 415.5L127.7659 415.5L127.7659 408.28125L125.5784 409.07812L125.5784 408.09375L128.68777 406.92188L128.84402 406.92188L128.84402 415.5ZM137.46902 409.1875Q137.46902 409.82812 137.12527 410.32812Q136.78152 410.82812 136.21902 411.10938Q136.87527 411.39062 137.2659 411.95312Q137.65652 412.5 137.65652 413.20312Q137.65652 414.29688 136.90652 414.96875Q136.17215 415.625 134.9534 415.625Q133.71902 415.625 132.96902 414.96875Q132.23465 414.29688 132.23465 413.20312Q132.23465 412.5 132.60965 411.95312Q132.98465 411.39062 133.65652 411.10938Q133.09402 410.82812 132.7659 410.32812Q132.43777 409.82812 132.43777 409.1875Q132.43777 408.10938 133.12527 407.48438Q133.81277 406.84375 134.9534 406.84375Q136.0784 406.84375 136.7659 407.48438Q137.46902 408.10938 137.46902 409.1875ZM136.5784 413.17188Q136.5784 412.45312 136.12527 412.01562Q135.67215 411.5625 134.93777 411.5625Q134.2034 411.5625 133.75027 412.01562Q133.31277 412.45312 133.31277 413.1875Q133.31277 413.90625 133.75027 414.32812Q134.18777 414.73438 134.9534 414.73438Q135.7034 414.73438 136.1409 414.3125Q136.5784 413.89062 136.5784 413.17188ZM134.9534 407.73438Q134.31277 407.73438 133.90652 408.14062Q133.5159 408.53125 133.5159 409.21875Q133.5159 409.85938 133.90652 410.26562Q134.29715 410.67188 134.93777 410.67188Q135.59402 410.67188 135.98465 410.26562Q136.37527 409.85938 136.37527 409.21875Q136.37527 408.5625 135.96902 408.15625Q135.56277 407.73438 134.9534 407.73438Z" fill-rule="nonzero"/><path fill="#ffffff" d="M128.84402 415.5L127.7659 415.5L127.7659 408.28125L125.5784 409.07812L125.5784 408.09375L128.68777 406.92188L128.84402 406.92188L128.84402 415.5ZM137.46902 409.1875Q137.46902 409.82812 137.12527 410.32812Q136.78152 410.82812 136.21902 411.10938Q136.87527 411.39062 137.2659 411.95312Q137.65652 412.5 137.65652 413.20312Q137.65652 414.29688 136.90652 414.96875Q136.17215 415.625 134.9534 415.625Q133.71902 415.625 132.96902 414.96875Q132.23465 414.29688 132.23465 413.20312Q132.23465 412.5 132.60965 411.95312Q132.98465 411.39062 133.65652 411.10938Q133.09402 410.82812 132.7659 410.32812Q132.43777 409.82812 132.43777 409.1875Q132.43777 408.10938 133.12527 407.48438Q133.81277 406.84375 134.9534 406.84375Q136.0784 406.84375 136.7659 407.48438Q137.46902 408.10938 137.46902 409.1875ZM136.5784 413.17188Q136.5784 412.45312 136.12527 412.01562Q135.67215 411.5625 134.93777 411.5625Q134.2034 411.5625 133.75027 412.01562Q133.31277 412.45312 133.31277 413.1875Q133.31277 413.90625 133.75027 414.32812Q134.18777 414.73438 134.9534 414.73438Q135.7034 414.73438 136.1409 414.3125Q136.5784 413.89062 136.5784 413.17188ZM134.9534 407.73438Q134.31277 407.73438 133.90652 408.14062Q133.5159 408.53125 133.5159 409.21875Q133.5159 409.85938 133.90652 410.26562Q134.29715 410.67188 134.93777 410.67188Q135.59402 410.67188 135.98465 410.26562Q136.37527 409.85938 136.37527 409.21875Q136.37527 408.5625 135.96902 408.15625Q135.56277 407.73438 134.9534 407.73438Z" fill-rule="nonzero"/><path fill="#757575" d="M47.071877 108.001526Q47.071877 109.439026 46.415627 110.32965Q45.759377 111.220276 44.61875 111.220276Q43.4625 111.220276 42.80625 110.4859L42.80625 113.532776L41.728127 113.532776L41.728127 104.751526L42.7125 104.751526L42.759377 105.45465Q43.43125 104.64215 44.603127 104.64215Q45.74375 104.64215 46.4 105.501526Q47.071877 106.3609 47.071877 107.89215L47.071877 108.001526ZM45.99375 107.876526Q45.99375 106.7984 45.525 106.189026Q45.071877 105.564026 44.275 105.564026Q43.290627 105.564026 42.80625 106.4234L42.80625 109.45465Q43.290627 110.32965 44.290627 110.32965Q45.071877 110.32965 45.525 109.720276Q45.99375 109.095276 45.99375 107.876526ZM48.43125 107.8609Q48.43125 106.939026 48.790627 106.189026Q49.165627 105.439026 49.821877 105.0484Q50.478127 104.64215 51.30625 104.64215Q52.603127 104.64215 53.4 105.532776Q54.2125 106.4234 54.2125 107.9234L54.2125 108.001526Q54.2125 108.9234 53.853127 109.657776Q53.49375 110.39215 52.8375 110.814026Q52.18125 111.220276 51.321877 111.220276Q50.040627 111.220276 49.228127 110.32965Q48.43125 109.4234 48.43125 107.939026L48.43125 107.8609ZM49.525 108.001526Q49.525 109.0484 50.009377 109.689026Q50.509377 110.32965 51.321877 110.32965Q52.15 110.32965 52.634377 109.689026Q53.11875 109.032776 53.11875 107.8609Q53.11875 106.82965 52.61875 106.189026Q52.134377 105.532776 51.30625 105.532776Q50.509377 105.532776 50.009377 106.1734Q49.525 106.7984 49.525 108.001526ZM61.3375 109.595276L62.55625 104.751526L63.634377 104.751526L61.790627 111.095276L60.915627 111.095276L59.36875 106.282776L57.86875 111.095276L56.99375 111.095276L55.15 104.751526L56.228127 104.751526L57.478127 109.501526L58.9625 104.751526L59.821877 104.751526L61.3375 109.595276ZM67.35313 111.220276Q66.05625 111.220276 65.24375 110.376526Q64.44688 109.51715 64.44688 108.095276L64.44688 107.907776Q64.44688 106.95465 64.80625 106.220276Q65.16563 105.470276 65.80625 105.064026Q66.4625 104.64215 67.2125 104.64215Q68.44688 104.64215 69.13438 105.45465Q69.82188 106.26715 69.82188 107.782776L69.82188 108.2359L65.525 108.2359Q65.55625 109.1734 66.07188 109.751526Q66.60313 110.32965 67.41563 110.32965Q67.97813 110.32965 68.36875 110.095276Q68.775 109.8609 69.0875 109.470276L69.74375 109.9859Q68.94688 111.220276 67.35313 111.220276ZM67.2125 105.532776Q66.55625 105.532776 66.10313 106.01715Q65.66563 106.4859 65.57188 107.345276L68.74375 107.345276L68.74375 107.26715Q68.69688 106.439026 68.29063 105.9859Q67.9 105.532776 67.2125 105.532776ZM73.79063 105.720276Q73.54063 105.689026 73.25938 105.689026Q72.18125 105.689026 71.80625 106.595276L71.80625 111.095276L70.72813 111.095276L70.72813 104.751526L71.775 104.751526L71.79063 105.4859Q72.32188 104.64215 73.30625 104.64215Q73.61875 104.64215 73.79063 104.720276L73.79063 105.720276ZM75.25938 111.095276L75.25938 105.595276L74.25938 105.595276L74.25938 104.751526L75.25938 104.751526L75.25938 104.1109Q75.25938 103.07965 75.79063 102.532776Q76.3375 101.970276 77.3375 101.970276Q77.7125 101.970276 78.0875 102.064026L78.025 102.95465Q77.74375 102.89215 77.44688 102.89215Q76.91563 102.89215 76.61875 103.20465Q76.3375 103.51715 76.3375 104.07965L76.3375 104.751526L77.69688 104.751526L77.69688 105.595276L76.3375 105.595276L76.3375 111.095276L75.25938 111.095276ZM82.63438 110.470276Q82.00938 111.220276 80.775 111.220276Q79.75938 111.220276 79.22813 110.626526Q78.69688 110.032776 78.69688 108.876526L78.69688 104.751526L79.775 104.751526L79.775 108.845276Q79.775 110.2984 80.94688 110.2984Q82.19688 110.2984 82.60313 109.3609L82.60313 104.751526L83.69688 104.751526L83.69688 111.095276L82.66563 111.095276L82.63438 110.470276ZM86.9 111.095276L85.82188 111.095276L85.82188 102.095276L86.9 102.095276L86.9 111.095276Z" fill-rule="nonzero"/><path fill="#757575" d="M71.25938 171.97717L71.25938 166.47717L70.25938 166.47717L70.25938 165.63342L71.25938 165.63342L71.25938 164.9928Q71.25938 163.96155 71.79063 163.41467Q72.3375 162.85217 73.3375 162.85217Q73.7125 162.85217 74.0875 162.94592L74.025 163.83655Q73.74375 163.77405 73.44688 163.77405Q72.91563 163.77405 72.61875 164.08655Q72.3375 164.39905 72.3375 164.96155L72.3375 165.63342L73.69688 165.63342L73.69688 166.47717L72.3375 166.47717L72.3375 171.97717L71.25938 171.97717ZM78.63438 171.35217Q78.00938 172.10217 76.775 172.10217Q75.75938 172.10217 75.22813 171.50842Q74.69688 170.91467 74.69688 169.75842L74.69688 165.63342L75.775 165.63342L75.775 169.72717Q75.775 171.1803 76.94688 171.1803Q78.19688 171.1803 78.60313 170.2428L78.60313 165.63342L79.69688 165.63342L79.69688 171.97717L78.66563 171.97717L78.63438 171.35217ZM82.74375 165.63342L82.775 166.4303Q83.50938 165.52405 84.68125 165.52405Q86.69688 165.52405 86.7125 167.78967L86.7125 171.97717L85.61875 171.97717L85.61875 167.77405Q85.61875 167.10217 85.30625 166.77405Q85.00938 166.44592 84.35313 166.44592Q83.82188 166.44592 83.41563 166.72717Q83.025 167.00842 82.80625 167.46155L82.80625 171.97717L81.72813 171.97717L81.72813 165.63342L82.74375 165.63342Z" fill-rule="nonzero"/><path fill="#757575" d="M47.4625 229.6403Q47.4625 228.17155 48.15 227.29655Q48.8375 226.40593 49.9625 226.40593Q51.071877 226.40593 51.728127 227.15593L51.728127 223.85905L52.80625 223.85905L52.80625 232.85905L51.80625 232.85905L51.759377 232.17155Q51.103127 232.98405 49.946877 232.98405Q48.853127 232.98405 48.15 232.0778Q47.4625 231.17155 47.4625 229.71843L47.4625 229.6403ZM48.540627 229.7653Q48.540627 230.84343 48.978127 231.4528Q49.43125 232.06218 50.2125 232.06218Q51.24375 232.06218 51.728127 231.12468L51.728127 228.21843Q51.24375 227.3278 50.228127 227.3278Q49.43125 227.3278 48.978127 227.93718Q48.540627 228.54655 48.540627 229.7653ZM55.9 232.85905L54.821877 232.85905L54.821877 226.5153L55.9 226.5153L55.9 232.85905ZM54.728127 224.84343Q54.728127 224.5778 54.884377 224.3903Q55.05625 224.2028 55.36875 224.2028Q55.68125 224.2028 55.8375 224.3903Q56.009377 224.5778 56.009377 224.84343Q56.009377 225.09343 55.8375 225.28093Q55.68125 225.4528 55.36875 225.4528Q55.05625 225.4528 54.884377 225.28093Q54.728127 225.09343 54.728127 224.84343ZM58.259377 232.85905L58.259377 227.35905L57.259377 227.35905L57.259377 226.5153L58.259377 226.5153L58.259377 225.87468Q58.259377 224.84343 58.790627 224.29655Q59.3375 223.73405 60.3375 223.73405Q60.7125 223.73405 61.0875 223.8278L61.025 224.71843Q60.74375 224.65593 60.446877 224.65593Q59.915627 224.65593 59.61875 224.96843Q59.3375 225.28093 59.3375 225.84343L59.3375 226.5153L60.696877 226.5153L60.696877 227.35905L59.3375 227.35905L59.3375 232.85905L58.259377 232.85905ZM62.259377 232.85905L62.259377 227.35905L61.259377 227.35905L61.259377 226.5153L62.259377 226.5153L62.259377 225.87468Q62.259377 224.84343 62.790627 224.29655Q63.3375 223.73405 64.3375 223.73405Q64.7125 223.73405 65.0875 223.8278L65.025 224.71843Q64.74375 224.65593 64.44688 224.65593Q63.915627 224.65593 63.61875 224.96843Q63.3375 225.28093 63.3375 225.84343L63.3375 226.5153L64.69688 226.5153L64.69688 227.35905L63.3375 227.35905L63.3375 232.85905L62.259377 232.85905ZM66.9 232.85905L65.82188 232.85905L65.82188 226.5153L66.9 226.5153L66.9 232.85905ZM65.72813 224.84343Q65.72813 224.5778 65.88438 224.3903Q66.05625 224.2028 66.36875 224.2028Q66.68125 224.2028 66.8375 224.3903Q67.00938 224.5778 67.00938 224.84343Q67.00938 225.09343 66.8375 225.28093Q66.68125 225.4528 66.36875 225.4528Q66.05625 225.4528 65.88438 225.28093Q65.72813 225.09343 65.72813 224.84343ZM71.25938 232.09343Q71.8375 232.09343 72.275 231.74968Q72.7125 231.3903 72.75938 230.85905L73.79063 230.85905Q73.75938 231.40593 73.4 231.90593Q73.05625 232.3903 72.47813 232.68718Q71.91563 232.98405 71.25938 232.98405Q69.9625 232.98405 69.19688 232.12468Q68.44688 231.24968 68.44688 229.74968L68.44688 229.56218Q68.44688 228.6403 68.775 227.92155Q69.11875 227.2028 69.74375 226.81218Q70.38438 226.40593 71.25938 226.40593Q72.32188 226.40593 73.025 227.04655Q73.74375 227.67155 73.79063 228.7028L72.75938 228.7028Q72.7125 228.0778 72.29063 227.68718Q71.86875 227.29655 71.25938 227.29655Q70.43125 227.29655 69.97813 227.8903Q69.525 228.48405 69.525 229.60905L69.525 229.81218Q69.525 230.90593 69.97813 231.49968Q70.43125 232.09343 71.25938 232.09343ZM78.63438 232.23405Q78.00938 232.98405 76.775 232.98405Q75.75938 232.98405 75.22813 232.3903Q74.69688 231.79655 74.69688 230.6403L74.69688 226.5153L75.775 226.5153L75.775 230.60905Q75.775 232.06218 76.94688 232.06218Q78.19688 232.06218 78.60313 231.12468L78.60313 226.5153L79.69688 226.5153L79.69688 232.85905L78.66563 232.85905L78.63438 232.23405ZM82.9 232.85905L81.82188 232.85905L81.82188 223.85905L82.9 223.85905L82.9 232.85905ZM86.19688 224.98405L86.19688 226.5153L87.36875 226.5153L87.36875 227.35905L86.19688 227.35905L86.19688 231.28093Q86.19688 231.67155 86.35313 231.85905Q86.50938 232.04655 86.88438 232.04655Q87.07188 232.04655 87.4 231.98405L87.4 232.85905Q86.97813 232.98405 86.57188 232.98405Q85.85313 232.98405 85.47813 232.54655Q85.10313 232.09343 85.10313 231.28093L85.10313 227.35905L83.94688 227.35905L83.94688 226.5153L85.10313 226.5153L85.10313 224.98405L86.19688 224.98405Z" fill-rule="nonzero"/><path fill="#757575" d="M25.4625 290.5222Q25.4625 289.05344 26.15 288.17844Q26.8375 287.2878 27.9625 287.2878Q29.071875 287.2878 29.728125 288.0378L29.728125 284.74094L30.80625 284.74094L30.80625 293.74094L29.80625 293.74094L29.759375 293.05344Q29.103125 293.86594 27.946875 293.86594Q26.853125 293.86594 26.15 292.9597Q25.4625 292.05344 25.4625 290.6003L25.4625 290.5222ZM26.540625 290.6472Q26.540625 291.7253 26.978125 292.3347Q27.43125 292.94406 28.2125 292.94406Q29.24375 292.94406 29.728125 292.00656L29.728125 289.1003Q29.24375 288.2097 28.228125 288.2097Q27.43125 288.2097 26.978125 288.81906Q26.540625 289.42844 26.540625 290.6472ZM35.353127 293.86594Q34.05625 293.86594 33.24375 293.0222Q32.446877 292.1628 32.446877 290.74094L32.446877 290.55344Q32.446877 289.6003 32.80625 288.86594Q33.165627 288.11594 33.80625 287.7097Q34.4625 287.2878 35.2125 287.2878Q36.446877 287.2878 37.134377 288.1003Q37.821877 288.9128 37.821877 290.42844L37.821877 290.88156L33.525 290.88156Q33.55625 291.81906 34.071877 292.3972Q34.603127 292.9753 35.415627 292.9753Q35.978127 292.9753 36.36875 292.74094Q36.775 292.50656 37.0875 292.11594L37.74375 292.63156Q36.946877 293.86594 35.353127 293.86594ZM35.2125 288.17844Q34.55625 288.17844 34.103127 288.6628Q33.665627 289.13156 33.571877 289.99094L36.74375 289.99094L36.74375 289.9128Q36.696877 289.0847 36.290627 288.63156Q35.9 288.17844 35.2125 288.17844ZM44.071877 290.6472Q44.071877 292.0847 43.415627 292.9753Q42.759377 293.86594 41.61875 293.86594Q40.4625 293.86594 39.80625 293.13156L39.80625 296.17844L38.728127 296.17844L38.728127 287.3972L39.7125 287.3972L39.759377 288.1003Q40.43125 287.2878 41.603127 287.2878Q42.74375 287.2878 43.4 288.1472Q44.071877 289.00656 44.071877 290.5378L44.071877 290.6472ZM42.99375 290.5222Q42.99375 289.44406 42.525 288.8347Q42.071877 288.2097 41.275 288.2097Q40.290627 288.2097 39.80625 289.06906L39.80625 292.1003Q40.290627 292.9753 41.290627 292.9753Q42.071877 292.9753 42.525 292.36594Q42.99375 291.74094 42.99375 290.5222ZM48.353127 293.86594Q47.05625 293.86594 46.24375 293.0222Q45.446877 292.1628 45.446877 290.74094L45.446877 290.55344Q45.446877 289.6003 45.80625 288.86594Q46.165627 288.11594 46.80625 287.7097Q47.4625 287.2878 48.2125 287.2878Q49.446877 287.2878 50.134377 288.1003Q50.821877 288.9128 50.821877 290.42844L50.821877 290.88156L46.525 290.88156Q46.55625 291.81906 47.071877 292.3972Q47.603127 292.9753 48.415627 292.9753Q48.978127 292.9753 49.36875 292.74094Q49.775 292.50656 50.0875 292.11594L50.74375 292.63156Q49.946877 293.86594 48.353127 293.86594ZM48.2125 288.17844Q47.55625 288.17844 47.103127 288.6628Q46.665627 289.13156 46.571877 289.99094L49.74375 289.99094L49.74375 289.9128Q49.696877 289.0847 49.290627 288.63156Q48.9 288.17844 48.2125 288.17844ZM52.74375 287.3972L52.775 288.19406Q53.509377 287.2878 54.68125 287.2878Q56.696877 287.2878 56.7125 289.55344L56.7125 293.74094L55.61875 293.74094L55.61875 289.5378Q55.61875 288.86594 55.30625 288.5378Q55.009377 288.2097 54.353127 288.2097Q53.821877 288.2097 53.415627 288.49094Q53.025 288.7722 52.80625 289.2253L52.80625 293.74094L51.728127 293.74094L51.728127 287.3972L52.74375 287.3972ZM58.4625 290.5222Q58.4625 289.05344 59.15 288.17844Q59.8375 287.2878 60.9625 287.2878Q62.071877 287.2878 62.728127 288.0378L62.728127 284.74094L63.80625 284.74094L63.80625 293.74094L62.80625 293.74094L62.759377 293.05344Q62.103127 293.86594 60.946877 293.86594Q59.853127 293.86594 59.15 292.9597Q58.4625 292.05344 58.4625 290.6003L58.4625 290.5222ZM59.540627 290.6472Q59.540627 291.7253 59.978127 292.3347Q60.43125 292.94406 61.2125 292.94406Q62.24375 292.94406 62.728127 292.00656L62.728127 289.1003Q62.24375 288.2097 61.228127 288.2097Q60.43125 288.2097 59.978127 288.81906Q59.540627 289.42844 59.540627 290.6472ZM69.63438 293.74094Q69.54063 293.55344 69.47813 293.06906Q68.72813 293.86594 67.68125 293.86594Q66.74375 293.86594 66.13438 293.3347Q65.54063 292.80344 65.54063 291.9753Q65.54063 290.99094 66.29063 290.44406Q67.04063 289.8972 68.41563 289.8972L69.4625 289.8972L69.4625 289.3972Q69.4625 288.8347 69.11875 288.50656Q68.79063 288.1628 68.11875 288.1628Q67.54063 288.1628 67.15 288.4597Q66.75938 288.74094 66.75938 289.1628L65.66563 289.1628Q65.66563 288.67844 65.99375 288.24094Q66.3375 287.80344 66.91563 287.55344Q67.49375 287.2878 68.18125 287.2878Q69.29063 287.2878 69.9 287.8347Q70.525 288.38156 70.55625 289.3347L70.55625 292.25656Q70.55625 293.13156 70.775 293.6472L70.775 293.74094L69.63438 293.74094ZM67.8375 292.9128Q68.35313 292.9128 68.80625 292.6472Q69.25938 292.38156 69.4625 291.9597L69.4625 290.6628L68.61875 290.6628Q66.61875 290.6628 66.61875 291.8347Q66.61875 292.3347 66.9625 292.63156Q67.30625 292.9128 67.8375 292.9128ZM78.0875 290.6472Q78.0875 292.1003 77.41563 292.99094Q76.75938 293.86594 75.63438 293.86594Q74.43125 293.86594 73.775 293.00656L73.7125 293.74094L72.72813 293.74094L72.72813 284.74094L73.80625 284.74094L73.80625 288.1003Q74.4625 287.2878 75.61875 287.2878Q76.775 287.2878 77.43125 288.1628Q78.0875 289.0222 78.0875 290.55344L78.0875 290.6472ZM77.00938 290.5222Q77.00938 289.4128 76.57188 288.81906Q76.15 288.2097 75.35313 288.2097Q74.275 288.2097 73.80625 289.19406L73.80625 291.94406Q74.30625 292.94406 75.35313 292.94406Q76.13438 292.94406 76.57188 292.3347Q77.00938 291.7253 77.00938 290.5222ZM80.9 293.74094L79.82188 293.74094L79.82188 284.74094L80.9 284.74094L80.9 293.74094ZM85.35313 293.86594Q84.05625 293.86594 83.24375 293.0222Q82.44688 292.1628 82.44688 290.74094L82.44688 290.55344Q82.44688 289.6003 82.80625 288.86594Q83.16563 288.11594 83.80625 287.7097Q84.4625 287.2878 85.2125 287.2878Q86.44688 287.2878 87.13438 288.1003Q87.82188 288.9128 87.82188 290.42844L87.82188 290.88156L83.525 290.88156Q83.55625 291.81906 84.07188 292.3972Q84.60313 292.9753 85.41563 292.9753Q85.97813 292.9753 86.36875 292.74094Q86.775 292.50656 87.0875 292.11594L87.74375 292.63156Q86.94688 293.86594 85.35313 293.86594ZM85.2125 288.17844Q84.55625 288.17844 84.10313 288.6628Q83.66563 289.13156 83.57188 289.99094L86.74375 289.99094L86.74375 289.9128Q86.69688 289.0847 86.29063 288.63156Q85.9 288.17844 85.2125 288.17844Z" fill-rule="nonzero"/><path fill="#757575" d="M65.63438 354.62283Q65.54063 354.43533 65.47813 353.95096Q64.72813 354.74783 63.68125 354.74783Q62.74375 354.74783 62.134377 354.21658Q61.540627 353.68533 61.540627 352.8572Q61.540627 351.87283 62.290627 351.32596Q63.040627 350.77908 64.41563 350.77908L65.4625 350.77908L65.4625 350.27908Q65.4625 349.71658 65.11875 349.38846Q64.79063 349.0447 64.11875 349.0447Q63.540627 349.0447 63.15 349.34158Q62.759377 349.62283 62.759377 350.0447L61.665627 350.0447Q61.665627 349.56033 61.99375 349.12283Q62.3375 348.68533 62.915627 348.43533Q63.49375 348.1697 64.18125 348.1697Q65.29063 348.1697 65.9 348.71658Q66.525 349.26346 66.55625 350.21658L66.55625 353.13846Q66.55625 354.01346 66.775 354.52908L66.775 354.62283L65.63438 354.62283ZM63.8375 353.7947Q64.35313 353.7947 64.80625 353.52908Q65.25938 353.26346 65.4625 352.84158L65.4625 351.5447L64.61875 351.5447Q62.61875 351.5447 62.61875 352.71658Q62.61875 353.21658 62.9625 353.51346Q63.30625 353.7947 63.8375 353.7947ZM73.19688 346.74783L73.19688 348.27908L74.36875 348.27908L74.36875 349.12283L73.19688 349.12283L73.19688 353.0447Q73.19688 353.43533 73.35313 353.62283Q73.50938 353.81033 73.88438 353.81033Q74.07188 353.81033 74.4 353.74783L74.4 354.62283Q73.97813 354.74783 73.57188 354.74783Q72.85313 354.74783 72.47813 354.31033Q72.10313 353.8572 72.10313 353.0447L72.10313 349.12283L70.94688 349.12283L70.94688 348.27908L72.10313 348.27908L72.10313 346.74783L73.19688 346.74783ZM75.43125 351.38846Q75.43125 350.46658 75.79063 349.71658Q76.16563 348.96658 76.82188 348.57596Q77.47813 348.1697 78.30625 348.1697Q79.60313 348.1697 80.4 349.06033Q81.2125 349.95096 81.2125 351.45096L81.2125 351.52908Q81.2125 352.45096 80.85313 353.18533Q80.49375 353.9197 79.8375 354.34158Q79.18125 354.74783 78.32188 354.74783Q77.04063 354.74783 76.22813 353.8572Q75.43125 352.95096 75.43125 351.46658L75.43125 351.38846ZM76.525 351.52908Q76.525 352.57596 77.00938 353.21658Q77.50938 353.8572 78.32188 353.8572Q79.15 353.8572 79.63438 353.21658Q80.11875 352.56033 80.11875 351.38846Q80.11875 350.3572 79.61875 349.71658Q79.13438 349.06033 78.30625 349.06033Q77.50938 349.06033 77.00938 349.70096Q76.525 350.32596 76.525 351.52908ZM84.79063 353.02908L86.275 348.27908L87.43125 348.27908L84.88438 355.6072Q84.29063 357.18533 83.00938 357.18533L82.79063 357.1697L82.4 357.09158L82.4 356.21658L82.68125 356.2322Q83.24375 356.2322 83.54063 356.01346Q83.85313 355.7947 84.05625 355.20096L84.29063 354.5447L82.025 348.27908L83.2125 348.27908L84.79063 353.02908Z" fill-rule="nonzero"/><path fill="#757575" d="M45.634377 414.87973Q45.009377 415.62973 43.775 415.62973Q42.759377 415.62973 42.228127 415.03598Q41.696877 414.44223 41.696877 413.28598L41.696877 409.16098L42.775 409.16098L42.775 413.25473Q42.775 414.70786 43.946877 414.70786Q45.196877 414.70786 45.603127 413.77036L45.603127 409.16098L46.696877 409.16098L46.696877 415.50473L45.665627 415.50473L45.634377 414.87973ZM49.74375 409.16098L49.775 409.95786Q50.509377 409.0516 51.68125 409.0516Q53.696877 409.0516 53.7125 411.31723L53.7125 415.50473L52.61875 415.50473L52.61875 411.3016Q52.61875 410.62973 52.30625 410.3016Q52.009377 409.97348 51.353127 409.97348Q50.821877 409.97348 50.415627 410.25473Q50.025 410.53598 49.80625 410.9891L49.80625 415.50473L48.728127 415.50473L48.728127 409.16098L49.74375 409.16098ZM59.415627 413.81723Q59.415627 413.37973 59.071877 413.14536Q58.74375 412.89536 57.915627 412.72348Q57.103127 412.5516 56.61875 412.3016Q56.134377 412.0516 55.9 411.72348Q55.68125 411.37973 55.68125 410.91098Q55.68125 410.12973 56.3375 409.59848Q56.99375 409.0516 58.025 409.0516Q59.103127 409.0516 59.759377 409.6141Q60.43125 410.16098 60.43125 411.02036L59.353127 411.02036Q59.353127 410.58286 58.9625 410.27036Q58.5875 409.94223 58.025 409.94223Q57.43125 409.94223 57.0875 410.20786Q56.759377 410.45786 56.759377 410.8641Q56.759377 411.25473 57.071877 411.45786Q57.384377 411.66098 58.196877 411.84848Q59.009377 412.02036 59.509377 412.27036Q60.009377 412.52036 60.24375 412.87973Q60.49375 413.2391 60.49375 413.7391Q60.49375 414.59848 59.80625 415.1141Q59.134377 415.62973 58.05625 415.62973Q57.290627 415.62973 56.696877 415.3641Q56.11875 415.08286 55.790627 414.59848Q55.4625 414.1141 55.4625 413.5516L56.540627 413.5516Q56.571877 414.09848 56.978127 414.4266Q57.384377 414.7391 58.05625 414.7391Q58.665627 414.7391 59.040627 414.4891Q59.415627 414.2391 59.415627 413.81723ZM63.196877 407.62973L63.196877 409.16098L64.36875 409.16098L64.36875 410.00473L63.196877 410.00473L63.196877 413.9266Q63.196877 414.31723 63.353127 414.50473Q63.509377 414.69223 63.884377 414.69223Q64.07188 414.69223 64.4 414.62973L64.4 415.50473Q63.978127 415.62973 63.571877 415.62973Q62.853127 415.62973 62.478127 415.19223Q62.103127 414.7391 62.103127 413.9266L62.103127 410.00473L60.946877 410.00473L60.946877 409.16098L62.103127 409.16098L62.103127 407.62973L63.196877 407.62973ZM69.63438 415.50473Q69.54063 415.31723 69.47813 414.83286Q68.72813 415.62973 67.68125 415.62973Q66.74375 415.62973 66.13438 415.09848Q65.54063 414.56723 65.54063 413.7391Q65.54063 412.75473 66.29063 412.20786Q67.04063 411.66098 68.41563 411.66098L69.4625 411.66098L69.4625 411.16098Q69.4625 410.59848 69.11875 410.27036Q68.79063 409.9266 68.11875 409.9266Q67.54063 409.9266 67.15 410.22348Q66.75938 410.50473 66.75938 410.9266L65.66563 410.9266Q65.66563 410.44223 65.99375 410.00473Q66.3375 409.56723 66.91563 409.31723Q67.49375 409.0516 68.18125 409.0516Q69.29063 409.0516 69.9 409.59848Q70.525 410.14536 70.55625 411.09848L70.55625 414.02036Q70.55625 414.89536 70.775 415.41098L70.775 415.50473L69.63438 415.50473ZM67.8375 414.6766Q68.35313 414.6766 68.80625 414.41098Q69.25938 414.14536 69.4625 413.72348L69.4625 412.4266L68.61875 412.4266Q66.61875 412.4266 66.61875 413.59848Q66.61875 414.09848 66.9625 414.39536Q67.30625 414.6766 67.8375 414.6766ZM78.0875 412.41098Q78.0875 413.8641 77.41563 414.75473Q76.75938 415.62973 75.63438 415.62973Q74.43125 415.62973 73.775 414.77036L73.7125 415.50473L72.72813 415.50473L72.72813 406.50473L73.80625 406.50473L73.80625 409.8641Q74.4625 409.0516 75.61875 409.0516Q76.775 409.0516 77.43125 409.9266Q78.0875 410.78598 78.0875 412.31723L78.0875 412.41098ZM77.00938 412.28598Q77.00938 411.1766 76.57188 410.58286Q76.15 409.97348 75.35313 409.97348Q74.275 409.97348 73.80625 410.95786L73.80625 413.70786Q74.30625 414.70786 75.35313 414.70786Q76.13438 414.70786 76.57188 414.09848Q77.00938 413.4891 77.00938 412.28598ZM80.9 415.50473L79.82188 415.50473L79.82188 406.50473L80.9 406.50473L80.9 415.50473ZM85.35313 415.62973Q84.05625 415.62973 83.24375 414.78598Q82.44688 413.9266 82.44688 412.50473L82.44688 412.31723Q82.44688 411.3641 82.80625 410.62973Q83.16563 409.87973 83.80625 409.47348Q84.4625 409.0516 85.2125 409.0516Q86.44688 409.0516 87.13438 409.8641Q87.82188 410.6766 87.82188 412.19223L87.82188 412.64536L83.525 412.64536Q83.55625 413.58286 84.07188 414.16098Q84.60313 414.7391 85.41563 414.7391Q85.97813 414.7391 86.36875 414.50473Q86.775 414.27036 87.0875 413.87973L87.74375 414.39536Q86.94688 415.62973 85.35313 415.62973ZM85.2125 409.94223Q84.55625 409.94223 84.10313 410.4266Q83.66563 410.89536 83.57188 411.75473L86.74375 411.75473L86.74375 411.6766Q86.69688 410.84848 86.29063 410.39536Q85.9 409.94223 85.2125 409.94223Z" fill-rule="nonzero"/><path fill="#757575" d="M96.4625 466.45938Q96.4625 468.36563 95.80625 469.30313Q95.16563 470.225 93.775 470.225Q92.41563 470.225 91.75938 469.31876Q91.10313 468.4125 91.07188 466.6L91.07188 465.1625Q91.07188 463.27188 91.7125 462.36563Q92.36875 461.44376 93.75938 461.44376Q95.13438 461.44376 95.79063 462.33438Q96.44688 463.20938 96.4625 465.05313L96.4625 466.45938ZM95.36875 464.975Q95.36875 463.6 94.97813 462.975Q94.60313 462.33438 93.75938 462.33438Q92.93125 462.33438 92.54063 462.975Q92.16563 463.6 92.16563 464.89688L92.16563 466.63126Q92.16563 468.00626 92.55625 468.67813Q92.9625 469.33438 93.775 469.33438Q94.57188 469.33438 94.9625 468.70938Q95.35313 468.08438 95.36875 466.75626L95.36875 464.975Z" fill-rule="nonzero"/><path fill="#757575" d="M225.54312 465.81876L225.98062 461.56876L230.35562 461.56876L230.35562 462.56876L226.9025 462.56876L226.63687 464.89688Q227.2775 464.52188 228.07437 464.52188Q229.23062 464.52188 229.91812 465.30313Q230.60562 466.06876 230.60562 467.38126Q230.60562 468.69376 229.88687 469.45938Q229.18375 470.225 227.9025 470.225Q226.7775 470.225 226.05875 469.6Q225.34 468.95938 225.24625 467.85L226.26187 467.85Q226.37125 468.58438 226.79312 468.95938Q227.215 469.33438 227.9025 469.33438Q228.6525 469.33438 229.09 468.81876Q229.5275 468.30313 229.5275 467.39688Q229.5275 466.5375 229.05875 466.02188Q228.59 465.50626 227.80875 465.50626Q227.10562 465.50626 226.69937 465.80313L226.41812 466.0375L225.54312 465.81876ZM237.4025 466.45938Q237.4025 468.36563 236.74625 469.30313Q236.10562 470.225 234.715 470.225Q233.35562 470.225 232.69937 469.31876Q232.04312 468.4125 232.01187 466.6L232.01187 465.1625Q232.01187 463.27188 232.6525 462.36563Q233.30875 461.44376 234.69937 461.44376Q236.07437 461.44376 236.73062 462.33438Q237.38687 463.20938 237.4025 465.05313L237.4025 466.45938ZM236.30875 464.975Q236.30875 463.6 235.91812 462.975Q235.54312 462.33438 234.69937 462.33438Q233.87125 462.33438 233.48062 462.975Q233.10562 463.6 233.10562 464.89688L233.10562 466.63126Q233.10562 468.00626 233.49625 468.67813Q233.9025 469.33438 234.715 469.33438Q235.51187 469.33438 235.9025 468.70938Q236.29312 468.08438 236.30875 466.75626L236.30875 464.975Z" fill-rule="nonzero"/><path fill="#757575" d="M362.54562 470.1L361.4675 470.1L361.4675 462.88126L359.28 463.67813L359.28 462.69376L362.38937 461.52188L362.54562 461.52188L362.54562 470.1ZM371.3425 466.45938Q371.3425 468.36563 370.68625 469.30313Q370.04562 470.225 368.655 470.225Q367.29562 470.225 366.63937 469.31876Q365.98312 468.4125 365.95187 466.6L365.95187 465.1625Q365.95187 463.27188 366.5925 462.36563Q367.24875 461.44376 368.63937 461.44376Q370.01437 461.44376 370.67062 462.33438Q371.32687 463.20938 371.3425 465.05313L371.3425 466.45938ZM370.24875 464.975Q370.24875 463.6 369.85812 462.975Q369.48312 462.33438 368.63937 462.33438Q367.81125 462.33438 367.42062 462.975Q367.04562 463.6 367.04562 464.89688L367.04562 466.63126Q367.04562 468.00626 367.43625 468.67813Q367.8425 469.33438 368.655 469.33438Q369.45187 469.33438 369.8425 468.70938Q370.23312 468.08438 370.24875 466.75626L370.24875 464.975ZM378.3425 466.45938Q378.3425 468.36563 377.68625 469.30313Q377.04562 470.225 375.655 470.225Q374.29562 470.225 373.63937 469.31876Q372.98312 468.4125 372.95187 466.6L372.95187 465.1625Q372.95187 463.27188 373.5925 462.36563Q374.24875 461.44376 375.63937 461.44376Q377.01437 461.44376 377.67062 462.33438Q378.32687 463.20938 378.3425 465.05313L378.3425 466.45938ZM377.24875 464.975Q377.24875 463.6 376.85812 462.975Q376.48312 462.33438 375.63937 462.33438Q374.81125 462.33438 374.42062 462.975Q374.04562 463.6 374.04562 464.89688L374.04562 466.63126Q374.04562 468.00626 374.43625 468.67813Q374.8425 469.33438 375.655 469.33438Q376.45187 469.33438 376.8425 468.70938Q377.23312 468.08438 377.24875 466.75626L377.24875 464.975Z" fill-rule="nonzero"/><path fill="#757575" d="M499.98563 470.1L498.9075 470.1L498.9075 462.88126L496.72 463.67813L496.72 462.69376L499.82938 461.52188L499.98563 461.52188L499.98563 470.1ZM503.92313 465.81876L504.36063 461.56876L508.73563 461.56876L508.73563 462.56876L505.2825 462.56876L505.01688 464.89688Q505.6575 464.52188 506.45438 464.52188Q507.61063 464.52188 508.29813 465.30313Q508.98563 466.06876 508.98563 467.38126Q508.98563 468.69376 508.26688 469.45938Q507.56375 470.225 506.2825 470.225Q505.1575 470.225 504.43875 469.6Q503.72 468.95938 503.62625 467.85L504.64188 467.85Q504.75125 468.58438 505.17313 468.95938Q505.595 469.33438 506.2825 469.33438Q507.0325 469.33438 507.47 468.81876Q507.9075 468.30313 507.9075 467.39688Q507.9075 466.5375 507.43875 466.02188Q506.97 465.50626 506.18875 465.50626Q505.48563 465.50626 505.07938 465.80313L504.79813 466.0375L503.92313 465.81876ZM515.7825 466.45938Q515.7825 468.36563 515.1262 469.30313Q514.4856 470.225 513.095 470.225Q511.73563 470.225 511.07938 469.31876Q510.42313 468.4125 510.39188 466.6L510.39188 465.1625Q510.39188 463.27188 511.0325 462.36563Q511.68875 461.44376 513.07935 461.44376Q514.45435 461.44376 515.1106 462.33438Q515.76685 463.20938 515.7825 465.05313L515.7825 466.45938ZM514.6887 464.975Q514.6887 463.6 514.2981 462.975Q513.9231 462.33438 513.07935 462.33438Q512.2512 462.33438 511.86063 462.975Q511.48563 463.6 511.48563 464.89688L511.48563 466.63126Q511.48563 468.00626 511.87625 468.67813Q512.2825 469.33438 513.095 469.33438Q513.89185 469.33438 514.2825 468.70938Q514.6731 468.08438 514.6887 466.75626L514.6887 464.975Z" fill-rule="nonzero"/><path fill="#757575" d="M639.45685 470.1L633.8631 470.1L633.8631 469.31876L636.8162 466.0375Q637.4725 465.2875 637.7225 464.83438Q637.9725 464.36563 637.9725 463.86563Q637.9725 463.19376 637.5662 462.77188Q637.1756 462.33438 636.4881 462.33438Q635.6912 462.33438 635.2381 462.80313Q634.785 463.25626 634.785 464.08438L633.70685 464.08438Q633.70685 462.89688 634.45685 462.17813Q635.2225 461.44376 636.4881 461.44376Q637.6912 461.44376 638.3787 462.06876Q639.0662 462.69376 639.0662 463.74063Q639.0662 464.99063 637.45685 466.74063L635.1756 469.20938L639.45685 469.20938L639.45685 470.1ZM646.2225 466.45938Q646.2225 468.36563 645.5662 469.30313Q644.9256 470.225 643.535 470.225Q642.1756 470.225 641.51935 469.31876Q640.8631 468.4125 640.83185 466.6L640.83185 465.1625Q640.83185 463.27188 641.4725 462.36563Q642.1287 461.44376 643.51935 461.44376Q644.89435 461.44376 645.5506 462.33438Q646.20685 463.20938 646.2225 465.05313L646.2225 466.45938ZM645.1287 464.975Q645.1287 463.6 644.7381 462.975Q644.3631 462.33438 643.51935 462.33438Q642.6912 462.33438 642.3006 462.975Q641.9256 463.6 641.9256 464.89688L641.9256 466.63126Q641.9256 468.00626 642.3162 468.67813Q642.7225 469.33438 643.535 469.33438Q644.33185 469.33438 644.7225 468.70938Q645.1131 468.08438 645.1287 466.75626L645.1287 464.975ZM653.2225 466.45938Q653.2225 468.36563 652.5662 469.30313Q651.9256 470.225 650.535 470.225Q649.1756 470.225 648.51935 469.31876Q647.8631 468.4125 647.83185 466.6L647.83185 465.1625Q647.83185 463.27188 648.4725 462.36563Q649.1287 461.44376 650.51935 461.44376Q651.89435 461.44376 652.5506 462.33438Q653.20685 463.20938 653.2225 465.05313L653.2225 466.45938ZM652.1287 464.975Q652.1287 463.6 651.7381 462.975Q651.3631 462.33438 650.51935 462.33438Q649.6912 462.33438 649.3006 462.975Q648.9256 463.6 648.9256 464.89688L648.9256 466.63126Q648.9256 468.00626 649.3162 468.67813Q649.7225 469.33438 650.535 469.33438Q651.33185 469.33438 651.7225 468.70938Q652.1131 468.08438 652.1287 466.75626L652.1287 464.975Z" fill-rule="nonzero"/><path fill="#757575" d="M776.89685 470.1L771.3031 470.1L771.3031 469.31876L774.2562 466.0375Q774.9125 465.2875 775.1625 464.83438Q775.4125 464.36563 775.4125 463.86563Q775.4125 463.19376 775.0062 462.77188Q774.6156 462.33438 773.9281 462.33438Q773.1312 462.33438 772.6781 462.80313Q772.225 463.25626 772.225 464.08438L771.14685 464.08438Q771.14685 462.89688 771.89685 462.17813Q772.6625 461.44376 773.9281 461.44376Q775.1312 461.44376 775.8187 462.06876Q776.5062 462.69376 776.5062 463.74063Q776.5062 464.99063 774.89685 466.74063L772.6156 469.20938L776.89685 469.20938L776.89685 470.1ZM778.8031 465.81876L779.2406 461.56876L783.6156 461.56876L783.6156 462.56876L780.1625 462.56876L779.89685 464.89688Q780.5375 464.52188 781.33435 464.52188Q782.4906 464.52188 783.1781 465.30313Q783.8656 466.06876 783.8656 467.38126Q783.8656 468.69376 783.14685 469.45938Q782.4437 470.225 781.1625 470.225Q780.0375 470.225 779.3187 469.6Q778.6 468.95938 778.5062 467.85L779.52185 467.85Q779.6312 468.58438 780.0531 468.95938Q780.475 469.33438 781.1625 469.33438Q781.9125 469.33438 782.35 468.81876Q782.7875 468.30313 782.7875 467.39688Q782.7875 466.5375 782.3187 466.02188Q781.85 465.50626 781.0687 465.50626Q780.3656 465.50626 779.95935 465.80313L779.6781 466.0375L778.8031 465.81876ZM790.6625 466.45938Q790.6625 468.36563 790.0062 469.30313Q789.3656 470.225 787.975 470.225Q786.6156 470.225 785.95935 469.31876Q785.3031 468.4125 785.27185 466.6L785.27185 465.1625Q785.27185 463.27188 785.9125 462.36563Q786.5687 461.44376 787.95935 461.44376Q789.33435 461.44376 789.9906 462.33438Q790.64685 463.20938 790.6625 465.05313L790.6625 466.45938ZM789.5687 464.975Q789.5687 463.6 789.1781 462.975Q788.8031 462.33438 787.95935 462.33438Q787.1312 462.33438 786.7406 462.975Q786.3656 463.6 786.3656 464.89688L786.3656 466.63126Q786.3656 468.00626 786.7562 468.67813Q787.1625 469.33438 787.975 469.33438Q788.77185 469.33438 789.1625 468.70938Q789.5531 468.08438 789.5687 466.75626L789.5687 464.975Z" fill-rule="nonzero"/><path fill="#757575" d="M34.4 40.18125L28.446875 40.18125L27.103125 43.9L25.18125 43.9L30.603125 29.681252L32.24375 29.681252L37.68125 43.9L35.759377 43.9L34.4 40.18125ZM29.009375 38.65L33.853127 38.65L31.43125 31.993752L29.009375 38.65ZM45.415627 41.103127Q45.415627 40.36875 44.86875 39.9625Q44.321877 39.55625 42.946877 39.259377Q41.571877 38.9625 40.759377 38.55625Q39.9625 38.15 39.571877 37.5875Q39.196877 37.009377 39.196877 36.228127Q39.196877 34.93125 40.290627 34.040627Q41.384377 33.134377 43.103127 33.134377Q44.9 33.134377 46.009377 34.071877Q47.134377 34.99375 47.134377 36.43125L45.30625 36.43125Q45.30625 35.696877 44.68125 35.165627Q44.05625 34.61875 43.103127 34.61875Q42.103127 34.61875 41.540627 35.05625Q40.99375 35.478127 40.99375 36.18125Q40.99375 36.821877 41.509377 37.165627Q42.025 37.49375 43.384377 37.80625Q44.74375 38.103127 45.571877 38.525Q46.415627 38.93125 46.821877 39.525Q47.228127 40.11875 47.228127 40.9625Q47.228127 42.384377 46.0875 43.24375Q44.9625 44.103127 43.15 44.103127Q41.884377 44.103127 40.9 43.65Q39.93125 43.196877 39.36875 42.4Q38.821877 41.5875 38.821877 40.65L40.634377 40.65Q40.68125 41.55625 41.353127 42.0875Q42.040627 42.61875 43.15 42.61875Q44.18125 42.61875 44.790627 42.2125Q45.415627 41.790627 45.415627 41.103127ZM60.790627 43.9Q60.634377 43.5875 60.540627 42.790627Q59.275 44.103127 57.525 44.103127Q55.9625 44.103127 54.9625 43.2125Q53.9625 42.321877 53.9625 40.9625Q53.9625 39.321877 55.2125 38.415627Q56.478127 37.49375 58.74375 37.49375L60.509377 37.49375L60.509377 36.665627Q60.509377 35.7125 59.93125 35.15Q59.36875 34.5875 58.275 34.5875Q57.30625 34.5875 56.65 35.0875Q55.99375 35.571877 55.99375 36.259377L54.18125 36.259377Q54.18125 35.478127 54.74375 34.74375Q55.30625 33.99375 56.259377 33.571877Q57.228127 33.134377 58.384377 33.134377Q60.2125 33.134377 61.24375 34.05625Q62.275 34.9625 62.321877 36.571877L62.321877 41.43125Q62.321877 42.884377 62.68125 43.74375L62.68125 43.9L60.790627 43.9ZM57.790627 42.525Q58.65 42.525 59.4 42.0875Q60.165627 41.65 60.509377 40.946877L60.509377 38.775L59.0875 38.775Q55.775 38.775 55.775 40.7125Q55.775 41.571877 56.3375 42.05625Q56.9 42.525 57.790627 42.525ZM76.79063 42.853127Q75.74375 44.103127 73.69688 44.103127Q72.00938 44.103127 71.11875 43.11875Q70.24375 42.134377 70.22813 40.2125L70.22813 33.3375L72.04063 33.3375L72.04063 40.165627Q72.04063 42.55625 73.99375 42.55625Q76.05625 42.55625 76.74375 41.025L76.74375 33.3375L78.55625 33.3375L78.55625 43.9L76.8375 43.9L76.79063 42.853127ZM87.41563 41.103127Q87.41563 40.36875 86.86875 39.9625Q86.32188 39.55625 84.94688 39.259377Q83.57188 38.9625 82.75938 38.55625Q81.9625 38.15 81.57188 37.5875Q81.19688 37.009377 81.19688 36.228127Q81.19688 34.93125 82.29063 34.040627Q83.38438 33.134377 85.10313 33.134377Q86.9 33.134377 88.00938 34.071877Q89.13438 34.99375 89.13438 36.43125L87.30625 36.43125Q87.30625 35.696877 86.68125 35.165627Q86.05625 34.61875 85.10313 34.61875Q84.10313 34.61875 83.54063 35.05625Q82.99375 35.478127 82.99375 36.18125Q82.99375 36.821877 83.50938 37.165627Q84.025 37.49375 85.38438 37.80625Q86.74375 38.103127 87.57188 38.525Q88.41563 38.93125 88.82188 39.525Q89.22813 40.11875 89.22813 40.9625Q89.22813 42.384377 88.0875 43.24375Q86.9625 44.103127 85.15 44.103127Q83.88438 44.103127 82.9 43.65Q81.93125 43.196877 81.36875 42.4Q80.82188 41.5875 80.82188 40.65L82.63438 40.65Q82.68125 41.55625 83.35313 42.0875Q84.04063 42.61875 85.15 42.61875Q86.18125 42.61875 86.79063 42.2125Q87.41563 41.790627 87.41563 41.103127ZM95.65 44.103127Q93.50938 44.103127 92.15 42.696877Q90.80625 41.275 90.80625 38.915627L90.80625 38.571877Q90.80625 37.009377 91.4 35.775Q92.00938 34.540627 93.0875 33.8375Q94.16563 33.134377 95.43125 33.134377Q97.49375 33.134377 98.63438 34.49375Q99.775 35.853127 99.775 38.384377L99.775 39.134377L92.61875 39.134377Q92.65 40.696877 93.525 41.665627Q94.4 42.61875 95.74375 42.61875Q96.7125 42.61875 97.36875 42.228127Q98.04063 41.8375 98.54063 41.196877L99.63438 42.05625Q98.30625 44.103127 95.65 44.103127ZM95.43125 34.61875Q94.3375 34.61875 93.5875 35.415627Q92.85313 36.2125 92.68125 37.65L97.9625 37.65L97.9625 37.509377Q97.88438 36.134377 97.2125 35.384377Q96.55625 34.61875 95.43125 34.61875ZM107.36875 34.946877Q106.9625 34.884377 106.49375 34.884377Q104.7125 34.884377 104.07188 36.4L104.07188 43.9L102.275 43.9L102.275 33.3375L104.025 33.3375L104.05625 34.55625Q104.94688 33.134377 106.57188 33.134377Q107.10313 33.134377 107.36875 33.275L107.36875 34.946877ZM109.2125 46.728127L108.18125 46.025Q109.10313 44.74375 109.13438 43.384377L109.13438 41.759377L110.91563 41.759377L110.91563 43.18125Q110.91563 44.165627 110.43125 45.15Q109.94688 46.134377 109.2125 46.728127ZM120.55625 43.9L118.68125 43.9L118.68125 29.681252L120.55625 29.681252L120.55625 43.9ZM130.7125 30.775002L130.7125 33.3375L132.69687 33.3375L132.69687 34.728127L130.7125 34.728127L130.7125 41.275Q130.7125 41.915627 130.97812 42.24375Q131.24374 42.55625 131.88437 42.55625Q132.19687 42.55625 132.74374 42.43125L132.74374 43.9Q132.025 44.103127 131.35312 44.103127Q130.15 44.103127 129.525 43.36875Q128.91562 42.634377 128.91562 41.275L128.91562 34.728127L126.99375 34.728127L126.99375 33.3375L128.91562 33.3375L128.91562 30.775002L130.7125 30.775002ZM137.07187 34.61875Q138.275 33.134377 140.19687 33.134377Q143.55624 33.134377 143.57187 36.915627L143.57187 43.9L141.775 43.9L141.775 36.9Q141.75937 35.759377 141.24374 35.2125Q140.74374 34.665627 139.65 34.665627Q138.775 34.665627 138.10312 35.134377Q137.44687 35.603127 137.07187 36.36875L137.07187 43.9L135.275 43.9L135.275 28.900002L137.07187 28.900002L137.07187 34.61875ZM148.22812 43.9L146.43124 43.9L146.43124 33.3375L148.22812 33.3375L148.22812 43.9ZM146.275 30.525002Q146.275 30.087502 146.54062 29.790627Q146.82187 29.478127 147.3375 29.478127Q147.86874 29.478127 148.13437 29.790627Q148.41562 30.087502 148.41562 30.525002Q148.41562 30.962502 148.13437 31.259377Q147.86874 31.556252 147.3375 31.556252Q146.82187 31.556252 146.54062 31.259377Q146.275 30.962502 146.275 30.525002ZM152.97812 33.3375L153.04062 34.665627Q154.24374 33.134377 156.19687 33.134377Q159.55624 33.134377 159.57187 36.915627L159.57187 43.9L157.775 43.9L157.775 36.9Q157.75937 35.759377 157.24374 35.2125Q156.74374 34.665627 155.65 34.665627Q154.775 34.665627 154.10312 35.134377Q153.44687 35.603127 153.07187 36.36875L153.07187 43.9L151.275 43.9L151.275 33.3375L152.97812 33.3375ZM165.2125 39.009377L164.0875 40.18125L164.0875 43.9L162.275 43.9L162.275 28.900002L164.0875 28.900002L164.0875 37.978127L165.05624 36.80625L168.3375 33.3375L170.54062 33.3375L166.43124 37.74375L171.025 43.9L168.9 43.9L165.2125 39.009377ZM176.79062 38.525Q176.79062 36.9625 177.4 35.728127Q178.00937 34.478127 179.0875 33.80625Q180.18124 33.134377 181.5875 33.134377Q183.74374 33.134377 185.07187 34.634377Q186.41562 36.11875 186.41562 38.603127L186.41562 38.728127Q186.41562 40.275 185.82187 41.509377Q185.22812 42.728127 184.11874 43.415627Q183.025 44.103127 181.60312 44.103127Q179.4625 44.103127 178.11874 42.603127Q176.79062 41.103127 176.79062 38.65L176.79062 38.525ZM178.60312 38.728127Q178.60312 40.49375 179.41562 41.55625Q180.24374 42.61875 181.60312 42.61875Q182.97812 42.61875 183.79062 41.540627Q184.60312 40.4625 184.60312 38.525Q184.60312 36.775 183.775 35.696877Q182.94687 34.61875 181.5875 34.61875Q180.24374 34.61875 179.41562 35.68125Q178.60312 36.74375 178.60312 38.728127ZM189.15 43.9L189.15 34.728127L187.49374 34.728127L187.49374 33.3375L189.15 33.3375L189.15 32.24375Q189.15 30.556252 190.05624 29.634377Q190.97812 28.696877 192.63437 28.696877Q193.25937 28.696877 193.86874 28.853127L193.775 30.321877Q193.32187 30.243752 192.80624 30.243752Q191.91562 30.243752 191.43124 30.759377Q190.9625 31.259377 190.9625 32.2125L190.9625 33.3375L193.2125 33.3375L193.2125 34.728127L190.9625 34.728127L190.9625 43.9L189.15 43.9ZM204.74374 37.55625Q202.32187 36.86875 201.22812 35.86875Q200.13437 34.853127 200.13437 33.36875Q200.13437 31.681252 201.47812 30.587502Q202.82187 29.478127 204.9625 29.478127Q206.43124 29.478127 207.57187 30.056252Q208.72812 30.618752 209.35312 31.618752Q209.97812 32.603127 209.97812 33.790627L208.10312 33.790627Q208.10312 32.509377 207.275 31.775002Q206.4625 31.025002 204.9625 31.025002Q203.57187 31.025002 202.79062 31.634377Q202.025 32.24375 202.025 33.3375Q202.025 34.196877 202.75937 34.80625Q203.49374 35.4 205.25937 35.9Q207.04062 36.4 208.04062 37.009377Q209.04062 37.603127 209.525 38.4Q210.00937 39.196877 210.00937 40.290627Q210.00937 42.009377 208.66562 43.05625Q207.32187 44.103127 205.05624 44.103127Q203.60312 44.103127 202.32187 43.540627Q201.05624 42.978127 200.36874 42.009377Q199.68124 41.025 199.68124 39.775L201.57187 39.775Q201.57187 41.071877 202.525 41.821877Q203.47812 42.55625 205.05624 42.55625Q206.54062 42.55625 207.3375 41.9625Q208.13437 41.353127 208.13437 40.30625Q208.13437 39.259377 207.4 38.696877Q206.66562 38.11875 204.74374 37.55625ZM218.79062 42.853127Q217.74374 44.103127 215.69687 44.103127Q214.00937 44.103127 213.11874 43.11875Q212.24374 42.134377 212.22812 40.2125L212.22812 33.3375L214.04062 33.3375L214.04062 40.165627Q214.04062 42.55625 215.99374 42.55625Q218.05624 42.55625 218.74374 41.025L218.74374 33.3375L220.55624 33.3375L220.55624 43.9L218.8375 43.9L218.79062 42.853127ZM232.19687 38.728127Q232.19687 41.15 231.0875 42.634377Q229.99374 44.103127 228.10312 44.103127Q226.18124 44.103127 225.07187 42.86875L225.07187 47.9625L223.275 47.9625L223.275 33.3375L224.91562 33.3375L225.00937 34.509377Q226.10312 33.134377 228.07187 33.134377Q229.97812 33.134377 231.0875 34.571877Q232.19687 36.009377 232.19687 38.571877L232.19687 38.728127ZM230.38437 38.525Q230.38437 36.74375 229.61874 35.7125Q228.86874 34.665627 227.54062 34.665627Q225.9 34.665627 225.07187 36.11875L225.07187 41.18125Q225.88437 42.61875 227.55624 42.61875Q228.85312 42.61875 229.61874 41.5875Q230.38437 40.55625 230.38437 38.525ZM238.65 44.103127Q236.50937 44.103127 235.15 42.696877Q233.80624 41.275 233.80624 38.915627L233.80624 38.571877Q233.80624 37.009377 234.4 35.775Q235.00937 34.540627 236.0875 33.8375Q237.16562 33.134377 238.43124 33.134377Q240.49374 33.134377 241.63437 34.49375Q242.775 35.853127 242.775 38.384377L242.775 39.134377L235.61874 39.134377Q235.65 40.696877 236.525 41.665627Q237.4 42.61875 238.74374 42.61875Q239.7125 42.61875 240.36874 42.228127Q241.04062 41.8375 241.54062 41.196877L242.63437 42.05625Q241.30624 44.103127 238.65 44.103127ZM238.43124 34.61875Q237.3375 34.61875 236.5875 35.415627Q235.85312 36.2125 235.68124 37.65L240.9625 37.65L240.9625 37.509377Q240.88437 36.134377 240.2125 35.384377Q239.55624 34.61875 238.43124 34.61875ZM250.36874 34.946877Q249.9625 34.884377 249.49374 34.884377Q247.7125 34.884377 247.07187 36.4L247.07187 43.9L245.275 43.9L245.275 33.3375L247.025 33.3375L247.05624 34.55625Q247.94687 33.134377 249.57187 33.134377Q250.10312 33.134377 250.36874 33.275L250.36874 34.946877ZM263.00937 39.384377Q262.74374 41.65 261.3375 42.884377Q259.94687 44.103127 257.61874 44.103127Q255.10312 44.103127 253.57187 42.290627Q252.05624 40.478127 252.05624 37.446877L252.05624 36.0875Q252.05624 34.103127 252.75937 32.603127Q253.47812 31.103127 254.775 30.290627Q256.07187 29.478127 257.79062 29.478127Q260.05624 29.478127 261.41562 30.743752Q262.79062 32.009377 263.00937 34.24375L261.11874 34.24375Q260.88437 32.55625 260.05624 31.790627Q259.24374 31.025002 257.79062 31.025002Q255.99374 31.025002 254.9625 32.353127Q253.94687 33.68125 253.94687 36.134377L253.94687 37.509377Q253.94687 39.821877 254.91562 41.196877Q255.88437 42.55625 257.61874 42.55625Q259.18124 42.55625 260.00937 41.853127Q260.85312 41.15 261.11874 39.384377L263.00937 39.384377ZM264.79062 38.525Q264.79062 36.9625 265.4 35.728127Q266.00937 34.478127 267.0875 33.80625Q268.18124 33.134377 269.5875 33.134377Q271.74374 33.134377 273.07187 34.634377Q274.41562 36.11875 274.41562 38.603127L274.41562 38.728127Q274.41562 40.275 273.82187 41.509377Q273.22812 42.728127 272.11874 43.415627Q271.025 44.103127 269.60312 44.103127Q267.4625 44.103127 266.11874 42.603127Q264.79062 41.103127 264.79062 38.65L264.79062 38.525ZM266.60312 38.728127Q266.60312 40.49375 267.41562 41.55625Q268.24374 42.61875 269.60312 42.61875Q270.97812 42.61875 271.79062 41.540627Q272.60312 40.4625 272.60312 38.525Q272.60312 36.775 271.775 35.696877Q270.94687 34.61875 269.5875 34.61875Q268.24374 34.61875 267.41562 35.68125Q266.60312 36.74375 266.60312 38.728127ZM278.22812 43.9L276.43124 43.9L276.43124 28.900002L278.22812 28.900002L278.22812 43.9ZM283.22812 43.9L281.43124 43.9L281.43124 28.900002L283.22812 28.900002L283.22812 43.9ZM288.22812 43.9L286.43124 43.9L286.43124 33.3375L288.22812 33.3375L288.22812 43.9ZM286.275 30.525002Q286.275 30.087502 286.54062 29.790627Q286.82187 29.478127 287.3375 29.478127Q287.86874 29.478127 288.13437 29.790627Q288.41562 30.087502 288.41562 30.525002Q288.41562 30.962502 288.13437 31.259377Q287.86874 31.556252 287.3375 31.556252Q286.82187 31.556252 286.54062 31.259377Q286.275 30.962502 286.275 30.525002ZM290.82187 38.525Q290.82187 36.103127 291.97812 34.61875Q293.13437 33.134377 294.99374 33.134377Q296.85312 33.134377 297.93124 34.4L297.93124 28.900002L299.74374 28.900002L299.74374 43.9L298.0875 43.9L297.99374 42.759377Q296.91562 44.103127 294.97812 44.103127Q293.15 44.103127 291.97812 42.603127Q290.82187 41.0875 290.82187 38.665627L290.82187 38.525ZM292.63437 38.728127Q292.63437 40.525 293.36874 41.540627Q294.11874 42.55625 295.43124 42.55625Q297.15 42.55625 297.93124 41.025L297.93124 36.165627Q297.13437 34.665627 295.44687 34.665627Q294.11874 34.665627 293.36874 35.696877Q292.63437 36.728127 292.63437 38.728127ZM306.65 44.103127Q304.50937 44.103127 303.15 42.696877Q301.80624 41.275 301.80624 38.915627L301.80624 38.571877Q301.80624 37.009377 302.4 35.775Q303.00937 34.540627 304.0875 33.8375Q305.16562 33.134377 306.43124 33.134377Q308.49374 33.134377 309.63437 34.49375Q310.775 35.853127 310.775 38.384377L310.775 39.134377L303.61874 39.134377Q303.65 40.696877 304.525 41.665627Q305.4 42.61875 306.74374 42.61875Q307.7125 42.61875 308.36874 42.228127Q309.04062 41.8375 309.54062 41.196877L310.63437 42.05625Q309.30624 44.103127 306.65 44.103127ZM306.43124 34.61875Q305.3375 34.61875 304.5875 35.415627Q303.85312 36.2125 303.68124 37.65L308.9625 37.65L308.9625 37.509377Q308.88437 36.134377 308.2125 35.384377Q307.55624 34.61875 306.43124 34.61875ZM318.36874 34.946877Q317.9625 34.884377 317.49374 34.884377Q315.7125 34.884377 315.07187 36.4L315.07187 43.9L313.275 43.9L313.275 33.3375L315.025 33.3375L315.05624 34.55625Q315.94687 33.134377 317.57187 33.134377Q318.10312 33.134377 318.36874 33.275L318.36874 34.946877ZM331.79062 43.9Q331.63437 43.5875 331.54062 42.790627Q330.275 44.103127 328.525 44.103127Q326.9625 44.103127 325.9625 43.2125Q324.9625 42.321877 324.9625 40.9625Q324.9625 39.321877 326.2125 38.415627Q327.47812 37.49375 329.74374 37.49375L331.50937 37.49375L331.50937 36.665627Q331.50937 35.7125 330.93124 35.15Q330.36874 34.5875 329.275 34.5875Q328.30624 34.5875 327.65 35.0875Q326.99374 35.571877 326.99374 36.259377L325.18124 36.259377Q325.18124 35.478127 325.74374 34.74375Q326.30624 33.99375 327.25937 33.571877Q328.22812 33.134377 329.38437 33.134377Q331.2125 33.134377 332.24374 34.05625Q333.275 34.9625 333.32187 36.571877L333.32187 41.43125Q333.32187 42.884377 333.68124 43.74375L333.68124 43.9L331.79062 43.9ZM328.79062 42.525Q329.65 42.525 330.4 42.0875Q331.16562 41.65 331.50937 40.946877L331.50937 38.775L330.0875 38.775Q326.775 38.775 326.775 40.7125Q326.775 41.571877 327.3375 42.05625Q327.9 42.525 328.79062 42.525ZM342.41562 41.103127Q342.41562 40.36875 341.86874 39.9625Q341.32187 39.55625 339.94687 39.259377Q338.57187 38.9625 337.75937 38.55625Q336.9625 38.15 336.57187 37.5875Q336.19687 37.009377 336.19687 36.228127Q336.19687 34.93125 337.29062 34.040627Q338.38437 33.134377 340.10312 33.134377Q341.9 33.134377 343.00937 34.071877Q344.13437 34.99375 344.13437 36.43125L342.30624 36.43125Q342.30624 35.696877 341.68124 35.165627Q341.05624 34.61875 340.10312 34.61875Q339.10312 34.61875 338.54062 35.05625Q337.99374 35.478127 337.99374 36.18125Q337.99374 36.821877 338.50937 37.165627Q339.025 37.49375 340.38437 37.80625Q341.74374 38.103127 342.57187 38.525Q343.41562 38.93125 343.82187 39.525Q344.22812 40.11875 344.22812 40.9625Q344.22812 42.384377 343.0875 43.24375Q341.9625 44.103127 340.15 44.103127Q338.88437 44.103127 337.9 43.65Q336.93124 43.196877 336.36874 42.4Q335.82187 41.5875 335.82187 40.65L337.63437 40.65Q337.68124 41.55625 338.35312 42.0875Q339.04062 42.61875 340.15 42.61875Q341.18124 42.61875 341.79062 42.2125Q342.41562 41.790627 342.41562 41.103127ZM346.30624 42.946877Q346.30624 42.478127 346.5875 42.165627Q346.86874 41.853127 347.41562 41.853127Q347.97812 41.853127 348.25937 42.165627Q348.55624 42.478127 348.55624 42.946877Q348.55624 43.4 348.25937 43.7125Q347.97812 44.009377 347.41562 44.009377Q346.86874 44.009377 346.5875 43.7125Q346.30624 43.4 346.30624 42.946877ZM351.30624 42.946877Q351.30624 42.478127 351.5875 42.165627Q351.86874 41.853127 352.41562 41.853127Q352.97812 41.853127 353.25937 42.165627Q353.55624 42.478127 353.55624 42.946877Q353.55624 43.4 353.25937 43.7125Q352.97812 44.009377 352.41562 44.009377Q351.86874 44.009377 351.5875 43.7125Q351.30624 43.4 351.30624 42.946877ZM356.30624 42.946877Q356.30624 42.478127 356.5875 42.165627Q356.86874 41.853127 357.41562 41.853127Q357.97812 41.853127 358.25937 42.165627Q358.55624 42.478127 358.55624 42.946877Q358.55624 43.4 358.25937 43.7125Q357.97812 44.009377 357.41562 44.009377Q356.86874 44.009377 356.5875 43.7125Q356.30624 43.4 356.30624 42.946877Z" fill-rule="nonzero"/></svg>