<svg version="1.1" viewBox="0.0 0.0 808.0 499.0" fill="none" stroke="none" stroke-linecap="square" stroke-miterlimit="10" width="808" height="499" xmlns:xlink="http://www.w3.org/1999/xlink" xmlns="http://www.w3.org/2000/svg"><path fill="#ffffff" d="M0 0L808.0 0L808.0 499.0L0 499.0L0 0Z" fill-rule="nonzero"/><path fill="#ffffff" d="M0 0L808.0 0L808.0 499.0L0 499.0L0 0Z" fill-rule="nonzero"/><path stroke="#333333" stroke-width="1.0" stroke-linecap="butt" d="M51.5 453.5L783.5 453.5" fill-rule="nonzero"/><path stroke="#cccccc" stroke-width="1.0" stroke-linecap="butt" d="M51.5 358.5L783.5 358.5" fill-rule="nonzero"/><path stroke="#cccccc" stroke-width="1.0" stroke-linecap="butt" d="M51.5 263.5L783.5 263.5" fill-rule="nonzero"/><path stroke="#cccccc" stroke-width="1.0" stroke-linecap="butt" d="M51.5 168.5L783.5 168.5" fill-rule="nonzero"/><path stroke="#cccccc" stroke-width="1.0" stroke-linecap="butt" d="M51.5 73.5L783.5 73.5" fill-rule="nonzero"/><clipPath id="id_0"><path d="M51.95 73.083336L783.05 73.083336L783.05 453.05L51.95 453.05L51.95 73.083336Z" clip-rule="nonzero"/></clipPath><path stroke="#000000" stroke-width="0.0" stroke-linecap="butt" stroke-opacity="0.0" clip-path="url(#id_0)" d="M131.0 453.0L80.0 453.0L80.0 115.0C80.0 113.89543 80.89543 113.0 82.0 113.0L129.0 113.0C130.10457 113.0 131.0 113.89543 131.0 115.0Z" fill-rule="nonzero"/><path fill="#3c78d8" clip-path="url(#id_0)" d="M131.0 453.0L80.0 453.0L80.0 115.0C80.0 113.89543 80.89543 113.0 82.0 113.0L129.0 113.0C130.10457 113.0 131.0 113.89543 131.0 115.0Z" fill-rule="nonzero"/><path stroke="#000000" stroke-width="0.0" stroke-linecap="butt" stroke-opacity="0.0" clip-path="url(#id_0)" d="M209.0 453.0L158.0 453.0L158.0 250.0C158.0 248.89543 158.89543 248.0 160.0 248.0L207.0 248.0C208.10457 248.0 209.0 248.89543 209.0 250.0Z" fill-rule="nonzero"/><path fill="#3c78d8" clip-path="url(#id_0)" d="M209.0 453.0L158.0 453.0L158.0 250.0C158.0 248.89543 158.89543 248.0 160.0 248.0L207.0 248.0C208.10457 248.0 209.0 248.89543 209.0 250.0Z" fill-rule="nonzero"/><path stroke="#000000" stroke-width="0.0" stroke-linecap="butt" stroke-opacity="0.0" clip-path="url(#id_0)" d="M287.0 453.0L236.0 453.0L236.0 333.0C236.0 331.89542 236.89543 331.0 238.0 331.0L285.0 331.0C286.10458 331.0 287.0 331.89542 287.0 333.0Z" fill-rule="nonzero"/><path fill="#3c78d8" clip-path="url(#id_0)" d="M287.0 453.0L236.0 453.0L236.0 333.0C236.0 331.89542 236.89543 331.0 238.0 331.0L285.0 331.0C286.10458 331.0 287.0 331.89542 287.0 333.0Z" fill-rule="nonzero"/><path stroke="#000000" stroke-width="0.0" stroke-linecap="butt" stroke-opacity="0.0" clip-path="url(#id_0)" d="M365.0 453.0L314.0 453.0L314.0 347.0C314.0 345.89542 314.89542 345.0 316.0 345.0L363.0 345.0C364.10458 345.0 365.0 345.89542 365.0 347.0Z" fill-rule="nonzero"/><path fill="#3c78d8" clip-path="url(#id_0)" d="M365.0 453.0L314.0 453.0L314.0 347.0C314.0 345.89542 314.89542 345.0 316.0 345.0L363.0 345.0C364.10458 345.0 365.0 345.89542 365.0 347.0Z" fill-rule="nonzero"/><path stroke="#000000" stroke-width="0.0" stroke-linecap="butt" stroke-opacity="0.0" clip-path="url(#id_0)" d="M444.0 453.0L393.0 453.0L393.0 415.0C393.0 413.89542 393.89542 413.0 395.0 413.0L442.0 413.0C443.10458 413.0 444.0 413.89542 444.0 415.0Z" fill-rule="nonzero"/><path fill="#3c78d8" clip-path="url(#id_0)" d="M444.0 453.0L393.0 453.0L393.0 415.0C393.0 413.89542 393.89542 413.0 395.0 413.0L442.0 413.0C443.10458 413.0 444.0 413.89542 444.0 415.0Z" fill-rule="nonzero"/><path stroke="#000000" stroke-width="0.0" stroke-linecap="butt" stroke-opacity="0.0" clip-path="url(#id_0)" d="M522.0 453.0L471.0 453.0L471.0 436.0C471.0 434.89542 471.89542 434.0 473.0 434.0L520.0 434.0C521.10455 434.0 522.0 434.89542 522.0 436.0Z" fill-rule="nonzero"/><path fill="#3c78d8" clip-path="url(#id_0)" d="M522.0 453.0L471.0 453.0L471.0 436.0C471.0 434.89542 471.89542 434.0 473.0 434.0L520.0 434.0C521.10455 434.0 522.0 434.89542 522.0 436.0Z" fill-rule="nonzero"/><path stroke="#000000" stroke-width="0.0" stroke-linecap="butt" stroke-opacity="0.0" clip-path="url(#id_0)" d="M600.0 453.0L549.0 453.0L549.0 446.0C549.0 444.89542 549.89545 444.0 551.0 444.0L598.0 444.0C599.10455 444.0 600.0 444.89542 600.0 446.0Z" fill-rule="nonzero"/><path fill="#3c78d8" clip-path="url(#id_0)" d="M600.0 453.0L549.0 453.0L549.0 446.0C549.0 444.89542 549.89545 444.0 551.0 444.0L598.0 444.0C599.10455 444.0 600.0 444.89542 600.0 446.0Z" fill-rule="nonzero"/><path stroke="#000000" stroke-width="0.0" stroke-linecap="butt" stroke-opacity="0.0" clip-path="url(#id_0)" d="M678.0 453.0L627.0 453.0L627.0 451.0C627.0 449.89542 627.89545 449.0 629.0 449.0L676.0 449.0C677.10455 449.0 678.0 449.89542 678.0 451.0Z" fill-rule="nonzero"/><path fill="#3c78d8" clip-path="url(#id_0)" d="M678.0 453.0L627.0 453.0L627.0 451.0C627.0 449.89542 627.89545 449.0 629.0 449.0L676.0 449.0C677.10455 449.0 678.0 449.89542 678.0 451.0Z" fill-rule="nonzero"/><path stroke="#000000" stroke-width="0.0" stroke-linecap="butt" stroke-opacity="0.0" clip-path="url(#id_0)" d="M756.0 453.0L705.0 453.0L705.0 452.0C705.0 451.44772 705.4477 451.0 706.0 451.0L755.0 451.0C755.5523 451.0 756.0 451.44772 756.0 452.0Z" fill-rule="nonzero"/><path fill="#3c78d8" clip-path="url(#id_0)" d="M756.0 453.0L705.0 453.0L705.0 452.0C705.0 451.44772 705.4477 451.0 706.0 451.0L755.0 451.0C755.5523 451.0 756.0 451.44772 756.0 452.0Z" fill-rule="nonzero"/><path stroke="#3c78d8" stroke-width="3.0" stroke-linejoin="round" stroke-linecap="round" d="M98.765625 129.77983L97.6875 129.77983L97.6875 122.56108L95.5 123.357956L95.5 122.37358L98.609375 121.201706L98.765625 121.201706L98.765625 129.77983ZM107.71875 121.857956L104.1875 129.77983L103.046875 129.77983L106.5625 122.139206L101.953125 122.139206L101.953125 121.24858L107.71875 121.24858L107.71875 121.857956ZM113.359375 126.02983Q113.03125 126.43608 112.546875 126.68608Q112.078125 126.920456 111.515625 126.920456Q110.78125 126.920456 110.234375 126.56108Q109.6875 126.201706 109.390625 125.545456Q109.09375 124.87358 109.09375 124.076706Q109.09375 123.232956 109.40625 122.545456Q109.734375 121.857956 110.328125 121.49858Q110.9375 121.12358 111.734375 121.12358Q113.0 121.12358 113.71875 122.076706Q114.453125 123.02983 114.453125 124.65483L114.453125 124.96733Q114.453125 127.46733 113.46875 128.60796Q112.484375 129.74858 110.5 129.77983L110.28125 129.77983L110.28125 128.87358L110.515625 128.87358Q111.859375 128.84233 112.578125 128.17046Q113.296875 127.49858 113.359375 126.02983ZM111.6875 126.02983Q112.234375 126.02983 112.6875 125.701706Q113.15625 125.357956 113.375 124.87358L113.375 124.43608Q113.375 123.37358 112.90625 122.701706Q112.4375 122.02983 111.734375 122.02983Q111.015625 122.02983 110.578125 122.576706Q110.15625 123.12358 110.15625 124.02983Q110.15625 124.90483 110.5625 125.46733Q110.984375 126.02983 111.6875 126.02983Z" fill-rule="nonzero"/><path fill="#ffffff" d="M98.765625 129.77983L97.6875 129.77983L97.6875 122.56108L95.5 123.357956L95.5 122.37358L98.609375 121.201706L98.765625 121.201706L98.765625 129.77983ZM107.71875 121.857956L104.1875 129.77983L103.046875 129.77983L106.5625 122.139206L101.953125 122.139206L101.953125 121.24858L107.71875 121.24858L107.71875 121.857956ZM113.359375 126.02983Q113.03125 126.43608 112.546875 126.68608Q112.078125 126.920456 111.515625 126.920456Q110.78125 126.920456 110.234375 126.56108Q109.6875 126.201706 109.390625 125.545456Q109.09375 124.87358 109.09375 124.076706Q109.09375 123.232956 109.40625 122.545456Q109.734375 121.857956 110.328125 121.49858Q110.9375 121.12358 111.734375 121.12358Q113.0 121.12358 113.71875 122.076706Q114.453125 123.02983 114.453125 124.65483L114.453125 124.96733Q114.453125 127.46733 113.46875 128.60796Q112.484375 129.74858 110.5 129.77983L110.28125 129.77983L110.28125 128.87358L110.515625 128.87358Q111.859375 128.84233 112.578125 128.17046Q113.296875 127.49858 113.359375 126.02983ZM111.6875 126.02983Q112.234375 126.02983 112.6875 125.701706Q113.15625 125.357956 113.375 124.87358L113.375 124.43608Q113.375 123.37358 112.90625 122.701706Q112.4375 122.02983 111.734375 122.02983Q111.015625 122.02983 110.578125 122.576706Q110.15625 123.12358 110.15625 124.02983Q110.15625 124.90483 110.5625 125.46733Q110.984375 126.02983 111.6875 126.02983Z" fill-rule="nonzero"/><path stroke="#3c78d8" stroke-width="3.0" stroke-linejoin="round" stroke-linecap="round" d="M176.76562 264.668L175.6875 264.668L175.6875 257.44925L173.5 258.24612L173.5 257.26175L176.60938 256.08987L176.76562 256.08987L176.76562 264.668ZM185.5625 261.02737Q185.5625 262.93362 184.90625 263.87112Q184.26562 264.793 182.875 264.793Q181.51562 264.793 180.85938 263.88675Q180.20312 262.9805 180.17188 261.168L180.17188 259.7305Q180.17188 257.83987 180.8125 256.93362Q181.46875 256.01175 182.85938 256.01175Q184.23438 256.01175 184.89062 256.90237Q185.54688 257.77737 185.5625 259.62112L185.5625 261.02737ZM184.46875 259.543Q184.46875 258.168 184.07812 257.543Q183.70312 256.90237 182.85938 256.90237Q182.03125 256.90237 181.64062 257.543Q181.26562 258.168 181.26562 259.46487L181.26562 261.19925Q181.26562 262.57425 181.65625 263.24612Q182.0625 263.90237 182.875 263.90237Q183.67188 263.90237 184.0625 263.27737Q184.45312 262.65237 184.46875 261.32425L184.46875 259.543ZM192.39062 258.3555Q192.39062 258.99612 192.04688 259.49612Q191.70312 259.99612 191.14062 260.27737Q191.79688 260.55862 192.1875 261.12112Q192.57812 261.668 192.57812 262.37112Q192.57812 263.46487 191.82812 264.13675Q191.09375 264.793 189.875 264.793Q188.64062 264.793 187.89062 264.13675Q187.15625 263.46487 187.15625 262.37112Q187.15625 261.668 187.53125 261.12112Q187.90625 260.55862 188.57812 260.27737Q188.01562 259.99612 187.6875 259.49612Q187.35938 258.99612 187.35938 258.3555Q187.35938 257.27737 188.04688 256.65237Q188.73438 256.01175 189.875 256.01175Q191.0 256.01175 191.6875 256.65237Q192.39062 257.27737 192.39062 258.3555ZM191.5 262.33987Q191.5 261.62112 191.04688 261.18362Q190.59375 260.7305 189.85938 260.7305Q189.125 260.7305 188.67188 261.18362Q188.23438 261.62112 188.23438 262.3555Q188.23438 263.07425 188.67188 263.49612Q189.10938 263.90237 189.875 263.90237Q190.625 263.90237 191.0625 263.4805Q191.5 263.05862 191.5 262.33987ZM189.875 256.90237Q189.23438 256.90237 188.82812 257.30862Q188.4375 257.69925 188.4375 258.38675Q188.4375 259.02737 188.82812 259.43362Q189.21875 259.83987 189.85938 259.83987Q190.51562 259.83987 190.90625 259.43362Q191.29688 259.02737 191.29688 258.38675Q191.29688 257.7305 190.89062 257.32425Q190.48438 256.90237 189.875 256.90237Z" fill-rule="nonzero"/><path fill="#ffffff" d="M176.76562 264.668L175.6875 264.668L175.6875 257.44925L173.5 258.24612L173.5 257.26175L176.60938 256.08987L176.76562 256.08987L176.76562 264.668ZM185.5625 261.02737Q185.5625 262.93362 184.90625 263.87112Q184.26562 264.793 182.875 264.793Q181.51562 264.793 180.85938 263.88675Q180.20312 262.9805 180.17188 261.168L180.17188 259.7305Q180.17188 257.83987 180.8125 256.93362Q181.46875 256.01175 182.85938 256.01175Q184.23438 256.01175 184.89062 256.90237Q185.54688 257.77737 185.5625 259.62112L185.5625 261.02737ZM184.46875 259.543Q184.46875 258.168 184.07812 257.543Q183.70312 256.90237 182.85938 256.90237Q182.03125 256.90237 181.64062 257.543Q181.26562 258.168 181.26562 259.46487L181.26562 261.19925Q181.26562 262.57425 181.65625 263.24612Q182.0625 263.90237 182.875 263.90237Q183.67188 263.90237 184.0625 263.27737Q184.45312 262.65237 184.46875 261.32425L184.46875 259.543ZM192.39062 258.3555Q192.39062 258.99612 192.04688 259.49612Q191.70312 259.99612 191.14062 260.27737Q191.79688 260.55862 192.1875 261.12112Q192.57812 261.668 192.57812 262.37112Q192.57812 263.46487 191.82812 264.13675Q191.09375 264.793 189.875 264.793Q188.64062 264.793 187.89062 264.13675Q187.15625 263.46487 187.15625 262.37112Q187.15625 261.668 187.53125 261.12112Q187.90625 260.55862 188.57812 260.27737Q188.01562 259.99612 187.6875 259.49612Q187.35938 258.99612 187.35938 258.3555Q187.35938 257.27737 188.04688 256.65237Q188.73438 256.01175 189.875 256.01175Q191.0 256.01175 191.6875 256.65237Q192.39062 257.27737 192.39062 258.3555ZM191.5 262.33987Q191.5 261.62112 191.04688 261.18362Q190.59375 260.7305 189.85938 260.7305Q189.125 260.7305 188.67188 261.18362Q188.23438 261.62112 188.23438 262.3555Q188.23438 263.07425 188.67188 263.49612Q189.10938 263.90237 189.875 263.90237Q190.625 263.90237 191.0625 263.4805Q191.5 263.05862 191.5 262.33987ZM189.875 256.90237Q189.23438 256.90237 188.82812 257.30862Q188.4375 257.69925 188.4375 258.38675Q188.4375 259.02737 188.82812 259.43362Q189.21875 259.83987 189.85938 259.83987Q190.51562 259.83987 190.90625 259.43362Q191.29688 259.02737 191.29688 258.38675Q191.29688 257.7305 190.89062 257.32425Q190.48438 256.90237 189.875 256.90237Z" fill-rule="nonzero"/><path stroke="#3c78d8" stroke-width="3.0" stroke-linejoin="round" stroke-linecap="round" d="M258.96875 339.72943L258.96875 340.63568L258.76562 340.63568Q257.5 340.66693 256.75 341.4013Q256.0 342.12006 255.875 343.43256Q256.5625 342.66693 257.71875 342.66693Q258.82812 342.66693 259.5 343.44818Q260.17188 344.22943 260.17188 345.47943Q260.17188 346.79193 259.45312 347.5888Q258.73438 348.38568 257.51562 348.38568Q256.29688 348.38568 255.53125 347.44818Q254.78125 346.49506 254.78125 345.01068L254.78125 344.60443Q254.78125 342.24506 255.78125 340.99506Q256.78125 339.74506 258.76562 339.72943L258.96875 339.72943ZM257.54688 343.57318Q256.98438 343.57318 256.51562 343.9013Q256.04688 344.22943 255.85938 344.74506L255.85938 345.13568Q255.85938 346.19818 256.32812 346.8388Q256.8125 347.47943 257.51562 347.47943Q258.25 347.47943 258.67188 346.94818Q259.09375 346.4013 259.09375 345.5263Q259.09375 344.6513 258.67188 344.12006Q258.25 343.57318 257.54688 343.57318ZM266.28125 345.4013L267.46875 345.4013L267.46875 346.2763L266.28125 346.2763L266.28125 348.26068L265.20312 348.26068L265.20312 346.2763L261.3125 346.2763L261.3125 345.63568L265.125 339.72943L266.28125 339.72943L266.28125 345.4013ZM262.54688 345.4013L265.20312 345.4013L265.20312 341.2138L265.0625 341.44818L262.54688 345.4013Z" fill-rule="nonzero"/><path fill="#ffffff" d="M258.96875 339.72943L258.96875 340.63568L258.76562 340.63568Q257.5 340.66693 256.75 341.4013Q256.0 342.12006 255.875 343.43256Q256.5625 342.66693 257.71875 342.66693Q258.82812 342.66693 259.5 343.44818Q260.17188 344.22943 260.17188 345.47943Q260.17188 346.79193 259.45312 347.5888Q258.73438 348.38568 257.51562 348.38568Q256.29688 348.38568 255.53125 347.44818Q254.78125 346.49506 254.78125 345.01068L254.78125 344.60443Q254.78125 342.24506 255.78125 340.99506Q256.78125 339.74506 258.76562 339.72943L258.96875 339.72943ZM257.54688 343.57318Q256.98438 343.57318 256.51562 343.9013Q256.04688 344.22943 255.85938 344.74506L255.85938 345.13568Q255.85938 346.19818 256.32812 346.8388Q256.8125 347.47943 257.51562 347.47943Q258.25 347.47943 258.67188 346.94818Q259.09375 346.4013 259.09375 345.5263Q259.09375 344.6513 258.67188 344.12006Q258.25 343.57318 257.54688 343.57318ZM266.28125 345.4013L267.46875 345.4013L267.46875 346.2763L266.28125 346.2763L266.28125 348.26068L265.20312 348.26068L265.20312 346.2763L261.3125 346.2763L261.3125 345.63568L265.125 339.72943L266.28125 339.72943L266.28125 345.4013ZM262.54688 345.4013L265.20312 345.4013L265.20312 341.2138L265.0625 341.44818L262.54688 345.4013Z" fill-rule="nonzero"/><path stroke="#3c78d8" stroke-width="3.0" stroke-linejoin="round" stroke-linecap="round" d="M333.20312 357.27826L333.64062 353.02826L338.01562 353.02826L338.01562 354.02826L334.5625 354.02826L334.29688 356.35638Q334.9375 355.98138 335.73438 355.98138Q336.89062 355.98138 337.57812 356.76263Q338.26562 357.52826 338.26562 358.84076Q338.26562 360.15326 337.54688 360.91888Q336.84375 361.6845 335.5625 361.6845Q334.4375 361.6845 333.71875 361.0595Q333.0 360.41888 332.90625 359.3095L333.92188 359.3095Q334.03125 360.04388 334.45312 360.41888Q334.875 360.79388 335.5625 360.79388Q336.3125 360.79388 336.75 360.27826Q337.1875 359.76263 337.1875 358.85638Q337.1875 357.997 336.71875 357.48138Q336.25 356.96576 335.46875 356.96576Q334.76562 356.96576 334.35938 357.26263L334.07812 357.497L333.20312 357.27826ZM345.21875 353.63763L341.6875 361.5595L340.54688 361.5595L344.0625 353.91888L339.45312 353.91888L339.45312 353.02826L345.21875 353.02826L345.21875 353.63763Z" fill-rule="nonzero"/><path fill="#ffffff" d="M333.20312 357.27826L333.64062 353.02826L338.01562 353.02826L338.01562 354.02826L334.5625 354.02826L334.29688 356.35638Q334.9375 355.98138 335.73438 355.98138Q336.89062 355.98138 337.57812 356.76263Q338.26562 357.52826 338.26562 358.84076Q338.26562 360.15326 337.54688 360.91888Q336.84375 361.6845 335.5625 361.6845Q334.4375 361.6845 333.71875 361.0595Q333.0 360.41888 332.90625 359.3095L333.92188 359.3095Q334.03125 360.04388 334.45312 360.41888Q334.875 360.79388 335.5625 360.79388Q336.3125 360.79388 336.75 360.27826Q337.1875 359.76263 337.1875 358.85638Q337.1875 357.997 336.71875 357.48138Q336.25 356.96576 335.46875 356.96576Q334.76562 356.96576 334.35938 357.26263L334.07812 357.497L333.20312 357.27826ZM345.21875 353.63763L341.6875 361.5595L340.54688 361.5595L344.0625 353.91888L339.45312 353.91888L339.45312 353.02826L345.21875 353.02826L345.21875 353.63763Z" fill-rule="nonzero"/><path stroke="#3c78d8" stroke-width="3.0" stroke-linejoin="round" stroke-linecap="round" d="M417.29688 429.9535L411.70312 429.9535L411.70312 429.17224L414.65625 425.891Q415.3125 425.141 415.5625 424.68787Q415.8125 424.21912 415.8125 423.71912Q415.8125 423.04724 415.40625 422.62537Q415.01562 422.18787 414.32812 422.18787Q413.53125 422.18787 413.07812 422.65662Q412.625 423.10974 412.625 423.93787L411.54688 423.93787Q411.54688 422.75037 412.29688 422.03162Q413.0625 421.29724 414.32812 421.29724Q415.53125 421.29724 416.21875 421.92224Q416.90625 422.54724 416.90625 423.59412Q416.90625 424.84412 415.29688 426.59412L413.01562 429.06287L417.29688 429.06287L417.29688 429.9535ZM422.26562 429.9535L421.1875 429.9535L421.1875 422.73474L419.0 423.53162L419.0 422.54724L422.10938 421.37537L422.26562 421.37537L422.26562 429.9535Z" fill-rule="nonzero"/><path fill="#ffffff" d="M417.29688 429.9535L411.70312 429.9535L411.70312 429.17224L414.65625 425.891Q415.3125 425.141 415.5625 424.68787Q415.8125 424.21912 415.8125 423.71912Q415.8125 423.04724 415.40625 422.62537Q415.01562 422.18787 414.32812 422.18787Q413.53125 422.18787 413.07812 422.65662Q412.625 423.10974 412.625 423.93787L411.54688 423.93787Q411.54688 422.75037 412.29688 422.03162Q413.0625 421.29724 414.32812 421.29724Q415.53125 421.29724 416.21875 421.92224Q416.90625 422.54724 416.90625 423.59412Q416.90625 424.84412 415.29688 426.59412L413.01562 429.06287L417.29688 429.06287L417.29688 429.9535ZM422.26562 429.9535L421.1875 429.9535L421.1875 422.73474L419.0 423.53162L419.0 422.54724L422.10938 421.37537L422.26562 421.37537L422.26562 429.9535Z" fill-rule="nonzero"/><path stroke="#3c78d8" stroke-width="3.0" stroke-linejoin="round" stroke-linecap="round" d="M493.26562 448.05084L492.1875 448.05084L492.1875 440.8321L490.0 441.62897L490.0 440.6446L493.10938 439.47272L493.26562 439.47272L493.26562 448.05084ZM502.0625 444.41022Q502.0625 446.31647 501.40625 447.25397Q500.76562 448.17584 499.375 448.17584Q498.01562 448.17584 497.35938 447.2696Q496.70312 446.36334 496.67188 444.55084L496.67188 443.11334Q496.67188 441.22272 497.3125 440.31647Q497.96875 439.3946 499.35938 439.3946Q500.73438 439.3946 501.39062 440.28522Q502.04688 441.16022 502.0625 443.00397L502.0625 444.41022ZM500.96875 442.92584Q500.96875 441.55084 500.57812 440.92584Q500.20312 440.28522 499.35938 440.28522Q498.53125 440.28522 498.14062 440.92584Q497.76562 441.55084 497.76562 442.84772L497.76562 444.5821Q497.76562 445.9571 498.15625 446.62897Q498.5625 447.28522 499.375 447.28522Q500.17188 447.28522 500.5625 446.66022Q500.95312 446.03522 500.96875 444.7071L500.96875 442.92584Z" fill-rule="nonzero"/><path fill="#ffffff" d="M493.26562 448.05084L492.1875 448.05084L492.1875 440.8321L490.0 441.62897L490.0 440.6446L493.10938 439.47272L493.26562 439.47272L493.26562 448.05084ZM502.0625 444.41022Q502.0625 446.31647 501.40625 447.25397Q500.76562 448.17584 499.375 448.17584Q498.01562 448.17584 497.35938 447.2696Q496.70312 446.36334 496.67188 444.55084L496.67188 443.11334Q496.67188 441.22272 497.3125 440.31647Q497.96875 439.3946 499.35938 439.3946Q500.73438 439.3946 501.39062 440.28522Q502.04688 441.16022 502.0625 443.00397L502.0625 444.41022ZM500.96875 442.92584Q500.96875 441.55084 500.57812 440.92584Q500.20312 440.28522 499.35938 440.28522Q498.53125 440.28522 498.14062 440.92584Q497.76562 441.55084 497.76562 442.84772L497.76562 444.5821Q497.76562 445.9571 498.15625 446.62897Q498.5625 447.28522 499.375 447.28522Q500.17188 447.28522 500.5625 446.66022Q500.95312 446.03522 500.96875 444.7071L500.96875 442.92584Z" fill-rule="nonzero"/><path stroke="#ffffff" stroke-width="3.0" stroke-linejoin="round" stroke-linecap="round" d="M571.7031 424.2696L572.1406 420.0196L576.5156 420.0196L576.5156 421.0196L573.0625 421.0196L572.7969 423.34772Q573.4375 422.97272 574.2344 422.97272Q575.3906 422.97272 576.0781 423.75397Q576.7656 424.5196 576.7656 425.8321Q576.7656 427.1446 576.0469 427.91022Q575.34375 428.67584 574.0625 428.67584Q572.9375 428.67584 572.21875 428.05084Q571.5 427.41022 571.40625 426.30084L572.4219 426.30084Q572.53125 427.03522 572.9531 427.41022Q573.375 427.78522 574.0625 427.78522Q574.8125 427.78522 575.25 427.2696Q575.6875 426.75397 575.6875 425.84772Q575.6875 424.98834 575.21875 424.47272Q574.75 423.9571 573.96875 423.9571Q573.2656 423.9571 572.8594 424.25397L572.5781 424.48834L571.7031 424.2696Z" fill-rule="nonzero"/><path fill="#3c78d8" d="M571.7031 424.2696L572.1406 420.0196L576.5156 420.0196L576.5156 421.0196L573.0625 421.0196L572.7969 423.34772Q573.4375 422.97272 574.2344 422.97272Q575.3906 422.97272 576.0781 423.75397Q576.7656 424.5196 576.7656 425.8321Q576.7656 427.1446 576.0469 427.91022Q575.34375 428.67584 574.0625 428.67584Q572.9375 428.67584 572.21875 428.05084Q571.5 427.41022 571.40625 426.30084L572.4219 426.30084Q572.53125 427.03522 572.9531 427.41022Q573.375 427.78522 574.0625 427.78522Q574.8125 427.78522 575.25 427.2696Q575.6875 426.75397 575.6875 425.84772Q575.6875 424.98834 575.21875 424.47272Q574.75 423.9571 573.96875 423.9571Q573.2656 423.9571 572.8594 424.25397L572.5781 424.48834L571.7031 424.2696Z" fill-rule="nonzero"/><path stroke="#ffffff" stroke-width="3.0" stroke-linejoin="round" stroke-linecap="round" d="M654.7969 434.25034L649.2031 434.25034L649.2031 433.4691L652.15625 430.18784Q652.8125 429.43784 653.0625 428.9847Q653.3125 428.51596 653.3125 428.01596Q653.3125 427.3441 652.90625 426.9222Q652.5156 426.4847 651.8281 426.4847Q651.03125 426.4847 650.5781 426.95346Q650.125 427.4066 650.125 428.2347L649.0469 428.2347Q649.0469 427.0472 649.7969 426.32846Q650.5625 425.5941 651.8281 425.5941Q653.03125 425.5941 653.71875 426.2191Q654.40625 426.8441 654.40625 427.89096Q654.40625 429.14096 652.7969 430.89096L650.5156 433.3597L654.7969 433.3597L654.7969 434.25034Z" fill-rule="nonzero"/><path fill="#3c78d8" d="M654.7969 434.25034L649.2031 434.25034L649.2031 433.4691L652.15625 430.18784Q652.8125 429.43784 653.0625 428.9847Q653.3125 428.51596 653.3125 428.01596Q653.3125 427.3441 652.90625 426.9222Q652.5156 426.4847 651.8281 426.4847Q651.03125 426.4847 650.5781 426.95346Q650.125 427.4066 650.125 428.2347L649.0469 428.2347Q649.0469 427.0472 649.7969 426.32846Q650.5625 425.5941 651.8281 425.5941Q653.03125 425.5941 653.71875 426.2191Q654.40625 426.8441 654.40625 427.89096Q654.40625 429.14096 652.7969 430.89096L650.5156 433.3597L654.7969 433.3597L654.7969 434.25034Z" fill-rule="nonzero"/><path stroke="#ffffff" stroke-width="3.0" stroke-linejoin="round" stroke-linecap="round" d="M730.7656 436.15018L729.6875 436.15018L729.6875 428.93143L727.5 429.7283L727.5 428.74393L730.6094 427.57205L730.7656 427.57205L730.7656 436.15018Z" fill-rule="nonzero"/><path fill="#3c78d8" d="M730.7656 436.15018L729.6875 436.15018L729.6875 428.93143L727.5 429.7283L727.5 428.74393L730.6094 427.57205L730.7656 427.57205L730.7656 436.15018Z" fill-rule="nonzero"/><path fill="#757575" d="M45.0125 453.90936Q45.0125 455.8156 44.35625 456.7531Q43.715626 457.675 42.325 457.675Q40.965626 457.675 40.309376 456.76874Q39.653126 455.8625 39.621876 454.05L39.621876 452.6125Q39.621876 450.72186 40.2625 449.8156Q40.91875 448.89374 42.309376 448.89374Q43.684376 448.89374 44.340626 449.78436Q44.996876 450.65936 45.0125 452.5031L45.0125 453.90936ZM43.91875 452.425Q43.91875 451.05 43.528126 450.425Q43.153126 449.78436 42.309376 449.78436Q41.48125 449.78436 41.090626 450.425Q40.715626 451.05 40.715626 452.34686L40.715626 454.08124Q40.715626 455.45624 41.10625 456.1281Q41.5125 456.78436 42.325 456.78436Q43.121876 456.78436 43.5125 456.15936Q43.903126 455.53436 43.91875 454.20624L43.91875 452.425Z" fill-rule="nonzero"/><path fill="#757575" d="M33.153126 358.27707L33.590626 354.02707L37.965626 354.02707L37.965626 355.02707L34.5125 355.02707L34.246876 357.3552Q34.8875 356.9802 35.684376 356.9802Q36.840626 356.9802 37.528126 357.76144Q38.215626 358.52707 38.215626 359.83957Q38.215626 361.15207 37.496876 361.9177Q36.79375 362.68332 35.5125 362.68332Q34.3875 362.68332 33.66875 362.05832Q32.95 361.4177 32.85625 360.30832L33.871876 360.30832Q33.98125 361.0427 34.403126 361.4177Q34.825 361.7927 35.5125 361.7927Q36.2625 361.7927 36.7 361.27707Q37.1375 360.76144 37.1375 359.8552Q37.1375 358.99582 36.66875 358.4802Q36.2 357.96457 35.41875 357.96457Q34.715626 357.96457 34.309376 358.26144L34.028126 358.49582L33.153126 358.27707ZM45.0125 358.9177Q45.0125 360.82394 44.35625 361.76144Q43.715626 362.68332 42.325 362.68332Q40.965626 362.68332 40.309376 361.77707Q39.653126 360.87082 39.621876 359.05832L39.621876 357.62082Q39.621876 355.7302 40.2625 354.82394Q40.91875 353.90207 42.309376 353.90207Q43.684376 353.90207 44.340626 354.7927Q44.996876 355.6677 45.0125 357.51144L45.0125 358.9177ZM43.91875 357.43332Q43.91875 356.05832 43.528126 355.43332Q43.153126 354.7927 42.309376 354.7927Q41.48125 354.7927 41.090626 355.43332Q40.715626 356.05832 40.715626 357.3552L40.715626 359.08957Q40.715626 360.46457 41.10625 361.13644Q41.5125 361.7927 42.325 361.7927Q43.121876 361.7927 43.5125 361.1677Q43.903126 360.5427 43.91875 359.21457L43.91875 357.43332Z" fill-rule="nonzero"/><path fill="#757575" d="M29.215626 267.56668L28.1375 267.56668L28.1375 260.34793L25.95 261.1448L25.95 260.16043L29.059376 258.98856L29.215626 258.98856L29.215626 267.56668ZM38.0125 263.92606Q38.0125 265.8323 37.35625 266.7698Q36.715626 267.69168 35.325 267.69168Q33.965626 267.69168 33.309376 266.78543Q32.653126 265.87918 32.621876 264.06668L32.621876 262.62918Q32.621876 260.73856 33.2625 259.8323Q33.91875 258.91043 35.309376 258.91043Q36.684376 258.91043 37.340626 259.80106Q37.996876 260.67606 38.0125 262.5198L38.0125 263.92606ZM36.91875 262.44168Q36.91875 261.06668 36.528126 260.44168Q36.153126 259.80106 35.309376 259.80106Q34.48125 259.80106 34.090626 260.44168Q33.715626 261.06668 33.715626 262.36356L33.715626 264.09793Q33.715626 265.47293 34.10625 266.1448Q34.5125 266.80106 35.325 266.80106Q36.121876 266.80106 36.5125 266.17606Q36.903126 265.55106 36.91875 264.22293L36.91875 262.44168ZM45.0125 263.92606Q45.0125 265.8323 44.35625 266.7698Q43.715626 267.69168 42.325 267.69168Q40.965626 267.69168 40.309376 266.78543Q39.653126 265.87918 39.621876 264.06668L39.621876 262.62918Q39.621876 260.73856 40.2625 259.8323Q40.91875 258.91043 42.309376 258.91043Q43.684376 258.91043 44.340626 259.80106Q44.996876 260.67606 45.0125 262.5198L45.0125 263.92606ZM43.91875 262.44168Q43.91875 261.06668 43.528126 260.44168Q43.153126 259.80106 42.309376 259.80106Q41.48125 259.80106 41.090626 260.44168Q40.715626 261.06668 40.715626 262.36356L40.715626 264.09793Q40.715626 265.47293 41.10625 266.1448Q41.5125 266.80106 42.325 266.80106Q43.121876 266.80106 43.5125 266.17606Q43.903126 265.55106 43.91875 264.22293L43.91875 262.44168Z" fill-rule="nonzero"/><path fill="#757575" d="M29.215626 172.575L28.1375 172.575L28.1375 165.35625L25.95 166.15312L25.95 165.16875L29.059376 163.99687L29.215626 163.99687L29.215626 172.575ZM33.153126 168.29375L33.590626 164.04375L37.965626 164.04375L37.965626 165.04375L34.5125 165.04375L34.246876 167.37187Q34.8875 166.99687 35.684376 166.99687Q36.840626 166.99687 37.528126 167.77812Q38.215626 168.54375 38.215626 169.85625Q38.215626 171.16875 37.496876 171.93437Q36.79375 172.7 35.5125 172.7Q34.3875 172.7 33.66875 172.075Q32.95 171.43437 32.85625 170.325L33.871876 170.325Q33.98125 171.05937 34.403126 171.43437Q34.825 171.80937 35.5125 171.80937Q36.2625 171.80937 36.7 171.29375Q37.1375 170.77812 37.1375 169.87187Q37.1375 169.0125 36.66875 168.49687Q36.2 167.98125 35.41875 167.98125Q34.715626 167.98125 34.309376 168.27812L34.028126 168.5125L33.153126 168.29375ZM45.0125 168.93437Q45.0125 170.84062 44.35625 171.77812Q43.715626 172.7 42.325 172.7Q40.965626 172.7 40.309376 171.79375Q39.653126 170.8875 39.621876 169.075L39.621876 167.6375Q39.621876 165.74687 40.2625 164.84062Q40.91875 163.91875 42.309376 163.91875Q43.684376 163.91875 44.340626 164.80937Q44.996876 165.68437 45.0125 167.52812L45.0125 168.93437ZM43.91875 167.45Q43.91875 166.075 43.528126 165.45Q43.153126 164.80937 42.309376 164.80937Q41.48125 164.80937 41.090626 165.45Q40.715626 166.075 40.715626 167.37187L40.715626 169.10625Q40.715626 170.48125 41.10625 171.15312Q41.5125 171.80937 42.325 171.80937Q43.121876 171.80937 43.5125 171.18437Q43.903126 170.55937 43.91875 169.23125L43.91875 167.45Z" fill-rule="nonzero"/><path fill="#757575" d="M31.246876 77.583336L25.653126 77.583336L25.653126 76.802086L28.60625 73.520836Q29.2625 72.770836 29.5125 72.31771Q29.7625 71.84896 29.7625 71.34896Q29.7625 70.677086 29.35625 70.25521Q28.965626 69.81771 28.278126 69.81771Q27.48125 69.81771 27.028126 70.28646Q26.575 70.739586 26.575 71.56771L25.496876 71.56771Q25.496876 70.38021 26.246876 69.66146Q27.0125 68.927086 28.278126 68.927086Q29.48125 68.927086 30.16875 69.552086Q30.85625 70.177086 30.85625 71.22396Q30.85625 72.47396 29.246876 74.22396L26.965626 76.69271L31.246876 76.69271L31.246876 77.583336ZM38.0125 73.94271Q38.0125 75.84896 37.35625 76.78646Q36.715626 77.708336 35.325 77.708336Q33.965626 77.708336 33.309376 76.802086Q32.653126 75.895836 32.621876 74.083336L32.621876 72.645836Q32.621876 70.75521 33.2625 69.84896Q33.91875 68.927086 35.309376 68.927086Q36.684376 68.927086 37.340626 69.81771Q37.996876 70.69271 38.0125 72.53646L38.0125 73.94271ZM36.91875 72.458336Q36.91875 71.083336 36.528126 70.458336Q36.153126 69.81771 35.309376 69.81771Q34.48125 69.81771 34.090626 70.458336Q33.715626 71.083336 33.715626 72.38021L33.715626 74.114586Q33.715626 75.489586 34.10625 76.16146Q34.5125 76.81771 35.325 76.81771Q36.121876 76.81771 36.5125 76.19271Q36.903126 75.56771 36.91875 74.239586L36.91875 72.458336ZM45.0125 73.94271Q45.0125 75.84896 44.35625 76.78646Q43.715626 77.708336 42.325 77.708336Q40.965626 77.708336 40.309376 76.802086Q39.653126 75.895836 39.621876 74.083336L39.621876 72.645836Q39.621876 70.75521 40.2625 69.84896Q40.91875 68.927086 42.309376 68.927086Q43.684376 68.927086 44.340626 69.81771Q44.996876 70.69271 45.0125 72.53646L45.0125 73.94271ZM43.91875 72.458336Q43.91875 71.083336 43.528126 70.458336Q43.153126 69.81771 42.309376 69.81771Q41.48125 69.81771 41.090626 70.458336Q40.715626 71.083336 40.715626 72.38021L40.715626 74.114586Q40.715626 75.489586 41.10625 76.16146Q41.5125 76.81771 42.325 76.81771Q43.121876 76.81771 43.5125 76.19271Q43.903126 75.56771 43.91875 74.239586L43.91875 72.458336Z" fill-rule="nonzero"/><path fill="#757575" d="M87.0737 464.70624L87.10495 465.40936Q87.79245 464.59686 88.97995 464.59686Q90.308075 464.59686 90.79245 465.6125Q91.10495 465.15936 91.60495 464.8781Q92.120575 464.59686 92.808075 464.59686Q94.901825 464.59686 94.933075 466.8L94.933075 471.05L93.85495 471.05L93.85495 466.8625Q93.85495 466.1906 93.54245 465.8625Q93.22995 465.51874 92.495575 465.51874Q91.8862 465.51874 91.47995 465.8781Q91.089325 466.2375 91.026825 466.84686L91.026825 471.05L89.9487 471.05L89.9487 466.89374Q89.9487 465.51874 88.589325 465.51874Q87.526825 465.51874 87.1362 466.425L87.1362 471.05L86.04245 471.05L86.04245 464.70624L87.0737 464.70624ZM100.964325 471.05Q100.870575 470.8625 100.808075 470.3781Q100.058075 471.175 99.0112 471.175Q98.0737 471.175 97.464325 470.64374Q96.870575 470.1125 96.870575 469.28436Q96.870575 468.3 97.620575 467.7531Q98.370575 467.20624 99.745575 467.20624L100.79245 467.20624L100.79245 466.70624Q100.79245 466.14374 100.4487 465.8156Q100.120575 465.47186 99.4487 465.47186Q98.870575 465.47186 98.47995 465.76874Q98.089325 466.05 98.089325 466.47186L96.995575 466.47186Q96.995575 465.9875 97.3237 465.55Q97.66745 465.1125 98.245575 464.8625Q98.8237 464.59686 99.5112 464.59686Q100.620575 464.59686 101.22995 465.14374Q101.85495 465.6906 101.8862 466.64374L101.8862 469.5656Q101.8862 470.4406 102.10495 470.95624L102.10495 471.05L100.964325 471.05ZM99.16745 470.22186Q99.683075 470.22186 100.1362 469.95624Q100.589325 469.6906 100.79245 469.26874L100.79245 467.97186L99.9487 467.97186Q97.9487 467.97186 97.9487 469.14374Q97.9487 469.64374 98.29245 469.9406Q98.6362 470.22186 99.16745 470.22186ZM106.589325 470.28436Q107.16745 470.28436 107.60495 469.9406Q108.04245 469.58124 108.089325 469.05L109.120575 469.05Q109.089325 469.59686 108.72995 470.09686Q108.3862 470.58124 107.808075 470.8781Q107.245575 471.175 106.589325 471.175Q105.29245 471.175 104.526825 470.3156Q103.776825 469.4406 103.776825 467.9406L103.776825 467.7531Q103.776825 466.83124 104.10495 466.1125Q104.4487 465.39374 105.0737 465.0031Q105.714325 464.59686 106.589325 464.59686Q107.651825 464.59686 108.35495 465.2375Q109.0737 465.8625 109.120575 466.89374L108.089325 466.89374Q108.04245 466.26874 107.620575 465.8781Q107.1987 465.4875 106.589325 465.4875Q105.7612 465.4875 105.308075 466.08124Q104.85495 466.675 104.85495 467.8L104.85495 468.0031Q104.85495 469.09686 105.308075 469.6906Q105.7612 470.28436 106.589325 470.28436ZM116.776825 467.0656Q116.776825 468.3156 116.35495 469.2531Q115.933075 470.175 115.151825 470.675Q114.3862 471.175 113.35495 471.175Q112.35495 471.175 111.5737 470.675Q110.79245 470.175 110.35495 469.26874Q109.933075 468.34686 109.91745 467.1281L109.91745 466.51874Q109.91745 465.28436 110.339325 464.34686Q110.776825 463.40936 111.558075 462.90936Q112.339325 462.39374 113.35495 462.39374Q114.370575 462.39374 115.151825 462.89374Q115.933075 463.39374 116.35495 464.33124Q116.776825 465.26874 116.776825 466.51874L116.776825 467.0656ZM115.66745 466.5031Q115.66745 464.9875 115.058075 464.175Q114.4487 463.3625 113.35495 463.3625Q112.276825 463.3625 111.66745 464.175Q111.058075 464.9875 111.04245 466.425L111.04245 467.0656Q111.04245 468.53436 111.651825 469.3781Q112.276825 470.20624 113.35495 470.20624Q114.4487 470.20624 115.04245 469.425Q115.651825 468.6281 115.66745 467.14374L115.66745 466.5031ZM120.72995 467.2531Q119.29245 466.83124 118.620575 466.22186Q117.964325 465.6125 117.964325 464.72186Q117.964325 463.72186 118.7612 463.0656Q119.5737 462.39374 120.870575 462.39374Q121.745575 462.39374 122.433075 462.7375Q123.120575 463.08124 123.495575 463.675Q123.8862 464.26874 123.8862 464.9875L122.745575 464.9875Q122.745575 464.20624 122.245575 463.76874Q121.7612 463.33124 120.870575 463.33124Q120.04245 463.33124 119.5737 463.70624Q119.10495 464.0656 119.10495 464.70624Q119.10495 465.2375 119.54245 465.59686Q119.995575 465.95624 121.058075 466.2531Q122.120575 466.55 122.714325 466.90936Q123.3237 467.26874 123.60495 467.7531Q123.901825 468.2375 123.901825 468.8781Q123.901825 469.925 123.089325 470.55Q122.276825 471.175 120.933075 471.175Q120.04245 471.175 119.276825 470.83124Q118.526825 470.4875 118.10495 469.90936Q117.6987 469.3156 117.6987 468.58124L118.8237 468.58124Q118.8237 469.34686 119.401825 469.8Q119.97995 470.2531 120.933075 470.2531Q121.8237 470.2531 122.29245 469.89374Q122.7612 469.51874 122.7612 468.89374Q122.7612 468.26874 122.3237 467.925Q121.8862 467.58124 120.72995 467.2531Z" fill-rule="nonzero"/><path fill="#757575" d="M170.54745 470.1281L174.59433 470.1281L174.59433 471.05L169.40683 471.05L169.40683 462.51874L170.54745 462.51874L170.54745 470.1281ZM176.42245 471.05L175.34433 471.05L175.34433 464.70624L176.42245 464.70624L176.42245 471.05ZM175.25058 463.03436Q175.25058 462.76874 175.40683 462.58124Q175.5787 462.39374 175.8912 462.39374Q176.2037 462.39374 176.35995 462.58124Q176.53183 462.76874 176.53183 463.03436Q176.53183 463.28436 176.35995 463.47186Q176.2037 463.64374 175.8912 463.64374Q175.5787 463.64374 175.40683 463.47186Q175.25058 463.28436 175.25058 463.03436ZM179.2662 464.70624L179.29745 465.5031Q180.03183 464.59686 181.2037 464.59686Q183.21933 464.59686 183.23495 466.8625L183.23495 471.05L182.1412 471.05L182.1412 466.84686Q182.1412 466.175 181.8287 465.84686Q181.53183 465.51874 180.87558 465.51874Q180.34433 465.51874 179.93808 465.8Q179.54745 466.08124 179.3287 466.53436L179.3287 471.05L178.25058 471.05L178.25058 464.70624L179.2662 464.70624ZM189.15683 470.425Q188.53183 471.175 187.29745 471.175Q186.28183 471.175 185.75058 470.58124Q185.21933 469.9875 185.21933 468.83124L185.21933 464.70624L186.29745 464.70624L186.29745 468.8Q186.29745 470.2531 187.46933 470.2531Q188.71933 470.2531 189.12558 469.3156L189.12558 464.70624L190.21933 464.70624L190.21933 471.05L189.18808 471.05L189.15683 470.425ZM194.37558 467.01874L195.78183 464.70624L197.04745 464.70624L194.96933 467.84686L197.10995 471.05L195.85995 471.05L194.3912 468.675L192.92245 471.05L191.65683 471.05L193.79745 467.84686L191.73495 464.70624L192.98495 464.70624L194.37558 467.01874Z" fill-rule="nonzero"/><path fill="#757575" d="M231.23997 467.59686L229.22435 467.59686L229.22435 471.05L228.09935 471.05L228.09935 462.51874L230.92747 462.51874Q232.36497 462.51874 233.1306 463.175Q233.91185 463.83124 233.91185 465.08124Q233.91185 465.8781 233.47435 466.47186Q233.05247 467.0656 232.28685 467.3625L234.28685 470.97186L234.28685 471.05L233.08372 471.05L231.23997 467.59686ZM229.22435 466.675L230.95872 466.675Q231.80247 466.675 232.28685 466.2531Q232.78685 465.8156 232.78685 465.08124Q232.78685 464.3 232.3181 463.8781Q231.84935 463.45624 230.95872 463.4406L229.22435 463.4406L229.22435 466.675ZM238.84935 471.05Q238.7556 470.8625 238.6931 470.3781Q237.9431 471.175 236.89622 471.175Q235.95872 471.175 235.34935 470.64374Q234.7556 470.1125 234.7556 469.28436Q234.7556 468.3 235.5056 467.7531Q236.2556 467.20624 237.6306 467.20624L238.67747 467.20624L238.67747 466.70624Q238.67747 466.14374 238.33372 465.8156Q238.0056 465.47186 237.33372 465.47186Q236.7556 465.47186 236.36497 465.76874Q235.97435 466.05 235.97435 466.47186L234.8806 466.47186Q234.8806 465.9875 235.20872 465.55Q235.55247 465.1125 236.1306 464.8625Q236.70872 464.59686 237.39622 464.59686Q238.5056 464.59686 239.11497 465.14374Q239.73997 465.6906 239.77122 466.64374L239.77122 469.5656Q239.77122 470.4406 239.98997 470.95624L239.98997 471.05L238.84935 471.05ZM237.05247 470.22186Q237.5681 470.22186 238.02122 469.95624Q238.47435 469.6906 238.67747 469.26874L238.67747 467.97186L237.83372 467.97186Q235.83372 467.97186 235.83372 469.14374Q235.83372 469.64374 236.17747 469.9406Q236.52122 470.22186 237.05247 470.22186ZM245.6306 469.3625Q245.6306 468.925 245.28685 468.6906Q244.95872 468.4406 244.1306 468.26874Q243.3181 468.09686 242.83372 467.84686Q242.34935 467.59686 242.11497 467.26874Q241.89622 466.925 241.89622 466.45624Q241.89622 465.675 242.55247 465.14374Q243.20872 464.59686 244.23997 464.59686Q245.3181 464.59686 245.97435 465.15936Q246.64622 465.70624 246.64622 466.5656L245.5681 466.5656Q245.5681 466.1281 245.17747 465.8156Q244.80247 465.4875 244.23997 465.4875Q243.64622 465.4875 243.30247 465.7531Q242.97435 466.0031 242.97435 466.40936Q242.97435 466.8 243.28685 467.0031Q243.59935 467.20624 244.41185 467.39374Q245.22435 467.5656 245.72435 467.8156Q246.22435 468.0656 246.45872 468.425Q246.70872 468.78436 246.70872 469.28436Q246.70872 470.14374 246.02122 470.65936Q245.34935 471.175 244.27122 471.175Q243.5056 471.175 242.91185 470.90936Q242.33372 470.6281 242.0056 470.14374Q241.67747 469.65936 241.67747 469.09686L242.7556 469.09686Q242.78685 469.64374 243.1931 469.97186Q243.59935 470.28436 244.27122 470.28436Q244.8806 470.28436 245.2556 470.03436Q245.6306 469.78436 245.6306 469.3625ZM253.28685 467.95624Q253.28685 469.39374 252.6306 470.28436Q251.97435 471.175 250.83372 471.175Q249.67747 471.175 249.02122 470.4406L249.02122 473.4875L247.9431 473.4875L247.9431 464.70624L248.92747 464.70624L248.97435 465.40936Q249.64622 464.59686 250.8181 464.59686Q251.95872 464.59686 252.61497 465.45624Q253.28685 466.3156 253.28685 467.84686L253.28685 467.95624ZM252.20872 467.83124Q252.20872 466.7531 251.73997 466.14374Q251.28685 465.51874 250.48997 465.51874Q249.5056 465.51874 249.02122 466.3781L249.02122 469.40936Q249.5056 470.28436 250.5056 470.28436Q251.28685 470.28436 251.73997 469.675Q252.20872 469.05 252.20872 467.83124ZM260.3025 467.95624Q260.3025 469.40936 259.6306 470.3Q258.97437 471.175 257.84937 471.175Q256.64624 471.175 255.98997 470.3156L255.92747 471.05L254.9431 471.05L254.9431 462.05L256.02124 462.05L256.02124 465.40936Q256.6775 464.59686 257.83374 464.59686Q258.99 464.59686 259.64624 465.47186Q260.3025 466.33124 260.3025 467.8625L260.3025 467.95624ZM259.22437 467.83124Q259.22437 466.72186 258.78687 466.1281Q258.365 465.51874 257.5681 465.51874Q256.49 465.51874 256.02124 466.5031L256.02124 469.2531Q256.52124 470.2531 257.5681 470.2531Q258.34937 470.2531 258.78687 469.64374Q259.22437 469.03436 259.22437 467.83124ZM264.5681 471.175Q263.27124 471.175 262.45874 470.33124Q261.66187 469.47186 261.66187 468.05L261.66187 467.8625Q261.66187 466.90936 262.02124 466.175Q262.3806 465.425 263.02124 465.01874Q263.6775 464.59686 264.4275 464.59686Q265.66187 464.59686 266.34937 465.40936Q267.03687 466.22186 267.03687 467.7375L267.03687 468.1906L262.74 468.1906Q262.77124 469.1281 263.28687 469.70624Q263.8181 470.28436 264.6306 470.28436Q265.1931 470.28436 265.58374 470.05Q265.99 469.8156 266.3025 469.425L266.95874 469.9406Q266.16187 471.175 264.5681 471.175ZM264.4275 465.4875Q263.77124 465.4875 263.3181 465.97186Q262.8806 466.4406 262.78687 467.3L265.95874 467.3L265.95874 467.22186Q265.91187 466.39374 265.5056 465.9406Q265.115 465.4875 264.4275 465.4875ZM271.0056 465.675Q270.7556 465.64374 270.47437 465.64374Q269.39624 465.64374 269.02124 466.55L269.02124 471.05L267.9431 471.05L267.9431 464.70624L268.99 464.70624L269.0056 465.4406Q269.53687 464.59686 270.52124 464.59686Q270.83374 464.59686 271.0056 464.675L271.0056 465.675ZM275.0056 465.675Q274.7556 465.64374 274.47437 465.64374Q273.39624 465.64374 273.02124 466.55L273.02124 471.05L271.9431 471.05L271.9431 464.70624L272.99 464.70624L273.0056 465.4406Q273.53687 464.59686 274.52124 464.59686Q274.83374 464.59686 275.0056 464.675L275.0056 465.675ZM278.0056 469.45624L279.49 464.70624L280.64624 464.70624L278.09937 472.03436Q277.5056 473.6125 276.22437 473.6125L276.0056 473.59686L275.615 473.51874L275.615 472.64374L275.89624 472.65936Q276.45874 472.65936 276.7556 472.4406Q277.0681 472.22186 277.27124 471.6281L277.5056 470.97186L275.24 464.70624L276.4275 464.70624L278.0056 469.45624ZM286.22437 467.70624L286.22437 471.05L285.09937 471.05L285.09937 462.51874L288.2556 462.51874Q289.64624 462.51874 290.4431 463.2375Q291.24 463.9406 291.24 465.1281Q291.24 466.3625 290.45874 467.03436Q289.6931 467.70624 288.24 467.70624L286.22437 467.70624ZM286.22437 466.78436L288.2556 466.78436Q289.16187 466.78436 289.6306 466.3625Q290.115 465.9406 290.115 465.14374Q290.115 464.3781 289.6306 463.925Q289.16187 463.45624 288.3181 463.4406L286.22437 463.4406L286.22437 466.78436ZM294.115 471.05L293.03687 471.05L293.03687 464.70624L294.115 464.70624L294.115 471.05ZM292.9431 463.03436Q292.9431 462.76874 293.09937 462.58124Q293.27124 462.39374 293.58374 462.39374Q293.89624 462.39374 294.0525 462.58124Q294.22437 462.76874 294.22437 463.03436Q294.22437 463.28436 294.0525 463.47186Q293.89624 463.64374 293.58374 463.64374Q293.27124 463.64374 293.09937 463.47186Q292.9431 463.28436 292.9431 463.03436Z" fill-rule="nonzero"/><path fill="#757575" d="M317.13562 468.3625L317.3075 469.4875L317.54187 468.47186L319.22937 462.51874L320.1825 462.51874L321.82312 468.47186L322.0575 469.5031L322.245 468.34686L323.57312 462.51874L324.69812 462.51874L322.63562 471.05L321.60437 471.05L319.83875 464.83124L319.71375 464.175L319.57312 464.83124L317.76062 471.05L316.72937 471.05L314.66687 462.51874L315.79187 462.51874L317.13562 468.3625ZM327.3075 471.05L326.22937 471.05L326.22937 464.70624L327.3075 464.70624L327.3075 471.05ZM326.13562 463.03436Q326.13562 462.76874 326.29187 462.58124Q326.46375 462.39374 326.77625 462.39374Q327.08875 462.39374 327.245 462.58124Q327.41687 462.76874 327.41687 463.03436Q327.41687 463.28436 327.245 463.47186Q327.08875 463.64374 326.77625 463.64374Q326.46375 463.64374 326.29187 463.47186Q326.13562 463.28436 326.13562 463.03436ZM330.15125 464.70624L330.1825 465.5031Q330.91687 464.59686 332.08875 464.59686Q334.10437 464.59686 334.12 466.8625L334.12 471.05L333.02625 471.05L333.02625 466.84686Q333.02625 466.175 332.71375 465.84686Q332.41687 465.51874 331.76062 465.51874Q331.22937 465.51874 330.82312 465.8Q330.4325 466.08124 330.21375 466.53436L330.21375 471.05L329.13562 471.05L329.13562 464.70624L330.15125 464.70624ZM335.87 467.83124Q335.87 466.3625 336.5575 465.4875Q337.245 464.59686 338.37 464.59686Q339.47937 464.59686 340.13562 465.34686L340.13562 462.05L341.21375 462.05L341.21375 471.05L340.21375 471.05L340.16687 470.3625Q339.51062 471.175 338.35437 471.175Q337.26062 471.175 336.5575 470.26874Q335.87 469.3625 335.87 467.90936L335.87 467.83124ZM336.94812 467.95624Q336.94812 469.03436 337.38562 469.64374Q337.83875 470.2531 338.62 470.2531Q339.65125 470.2531 340.13562 469.3156L340.13562 466.40936Q339.65125 465.51874 338.63562 465.51874Q337.83875 465.51874 337.38562 466.1281Q336.94812 466.7375 336.94812 467.95624ZM342.83875 467.8156Q342.83875 466.89374 343.19812 466.14374Q343.57312 465.39374 344.22937 465.0031Q344.88562 464.59686 345.71375 464.59686Q347.01062 464.59686 347.8075 465.4875Q348.62 466.3781 348.62 467.8781L348.62 467.95624Q348.62 468.8781 348.26062 469.6125Q347.90125 470.34686 347.245 470.76874Q346.58875 471.175 345.72937 471.175Q344.44812 471.175 343.63562 470.28436Q342.83875 469.3781 342.83875 467.89374L342.83875 467.8156ZM343.9325 467.95624Q343.9325 469.0031 344.41687 469.64374Q344.91687 470.28436 345.72937 470.28436Q346.5575 470.28436 347.04187 469.64374Q347.52625 468.9875 347.52625 467.8156Q347.52625 466.78436 347.02625 466.14374Q346.54187 465.4875 345.71375 465.4875Q344.91687 465.4875 344.41687 466.1281Q343.9325 466.7531 343.9325 467.95624ZM355.745 469.55L356.96375 464.70624L358.04187 464.70624L356.19812 471.05L355.32312 471.05L353.77625 466.2375L352.27625 471.05L351.40125 471.05L349.5575 464.70624L350.63562 464.70624L351.88562 469.45624L353.37 464.70624L354.22937 464.70624L355.745 469.55ZM362.82312 469.3625Q362.82312 468.925 362.47937 468.6906Q362.15125 468.4406 361.32312 468.26874Q360.51062 468.09686 360.02625 467.84686Q359.54187 467.59686 359.3075 467.26874Q359.08875 466.925 359.08875 466.45624Q359.08875 465.675 359.745 465.14374Q360.40125 464.59686 361.4325 464.59686Q362.51062 464.59686 363.16687 465.15936Q363.83875 465.70624 363.83875 466.5656L362.76062 466.5656Q362.76062 466.1281 362.37 465.8156Q361.995 465.4875 361.4325 465.4875Q360.83875 465.4875 360.495 465.7531Q360.16687 466.0031 360.16687 466.40936Q360.16687 466.8 360.47937 467.0031Q360.79187 467.20624 361.60437 467.39374Q362.41687 467.5656 362.91687 467.8156Q363.41687 468.0656 363.65125 468.425Q363.90125 468.78436 363.90125 469.28436Q363.90125 470.14374 363.21375 470.65936Q362.54187 471.175 361.46375 471.175Q360.69812 471.175 360.10437 470.90936Q359.52625 470.6281 359.19812 470.14374Q358.87 469.65936 358.87 469.09686L359.94812 469.09686Q359.97937 469.64374 360.38562 469.97186Q360.79187 470.28436 361.46375 470.28436Q362.07312 470.28436 362.44812 470.03436Q362.82312 469.78436 362.82312 469.3625Z" fill-rule="nonzero"/><path fill="#757575" d="M404.48438 471.05L404.48438 462.51874L407.28125 462.51874Q408.67188 462.51874 409.35938 463.09686Q410.0625 463.65936 410.0625 464.78436Q410.0625 465.39374 409.71875 465.8625Q409.39062 466.3156 408.79688 466.5656Q409.5 466.7531 409.89062 467.3Q410.29688 467.83124 410.29688 468.58124Q410.29688 469.7375 409.54688 470.39374Q408.8125 471.05 407.45312 471.05L404.48438 471.05ZM405.60938 467.0656L405.60938 470.1281L407.46875 470.1281Q408.26562 470.1281 408.71875 469.72186Q409.17188 469.3156 409.17188 468.59686Q409.17188 467.0656 407.48438 467.0656L405.60938 467.0656ZM405.60938 466.15936L407.3125 466.15936Q408.04688 466.15936 408.48438 465.8Q408.9375 465.425 408.9375 464.78436Q408.9375 464.08124 408.53125 463.76874Q408.125 463.4406 407.28125 463.4406L405.60938 463.4406L405.60938 466.15936ZM416.3125 467.1125L412.60938 467.1125L412.60938 470.1281L416.90625 470.1281L416.90625 471.05L411.48438 471.05L411.48438 462.51874L416.85938 462.51874L416.85938 463.4406L412.60938 463.4406L412.60938 466.1906L416.3125 466.1906L416.3125 467.1125ZM419.625 470.1281L423.67188 470.1281L423.67188 471.05L418.48438 471.05L418.48438 462.51874L419.625 462.51874L419.625 470.1281ZM429.20312 468.8156L425.625 468.8156L424.82812 471.05L423.67188 471.05L426.92188 462.51874L427.90625 462.51874L431.17188 471.05L430.01562 471.05L429.20312 468.8156ZM425.96875 467.89374L428.875 467.89374L427.42188 463.90936L425.96875 467.89374Z" fill-rule="nonzero"/><path fill="#757575" d="M465.17688 471.05L465.17688 462.51874L467.97375 462.51874Q469.36438 462.51874 470.05188 463.09686Q470.755 463.65936 470.755 464.78436Q470.755 465.39374 470.41125 465.8625Q470.08313 466.3156 469.48938 466.5656Q470.1925 466.7531 470.58313 467.3Q470.98938 467.83124 470.98938 468.58124Q470.98938 469.7375 470.23938 470.39374Q469.505 471.05 468.14563 471.05L465.17688 471.05ZM466.30188 467.0656L466.30188 470.1281L468.16125 470.1281Q468.95813 470.1281 469.41125 469.72186Q469.86438 469.3156 469.86438 468.59686Q469.86438 467.0656 468.17688 467.0656L466.30188 467.0656ZM466.30188 466.15936L468.005 466.15936Q468.73938 466.15936 469.17688 465.8Q469.63 465.425 469.63 464.78436Q469.63 464.08124 469.22375 463.76874Q468.8175 463.4406 467.97375 463.4406L466.30188 463.4406L466.30188 466.15936ZM474.64563 471.175Q473.34875 471.175 472.53625 470.33124Q471.73938 469.47186 471.73938 468.05L471.73938 467.8625Q471.73938 466.90936 472.09875 466.175Q472.45813 465.425 473.09875 465.01874Q473.755 464.59686 474.505 464.59686Q475.73938 464.59686 476.42688 465.40936Q477.11438 466.22186 477.11438 467.7375L477.11438 468.1906L472.8175 468.1906Q472.84875 469.1281 473.36438 469.70624Q473.89563 470.28436 474.70813 470.28436Q475.27063 470.28436 475.66125 470.05Q476.0675 469.8156 476.38 469.425L477.03625 469.9406Q476.23938 471.175 474.64563 471.175ZM474.505 465.4875Q473.84875 465.4875 473.39563 465.97186Q472.95813 466.4406 472.86438 467.3L476.03625 467.3L476.03625 467.22186Q475.98938 466.39374 475.58313 465.9406Q475.1925 465.4875 474.505 465.4875ZM481.92688 471.05Q481.83313 470.8625 481.77063 470.3781Q481.02063 471.175 479.97375 471.175Q479.03625 471.175 478.42688 470.64374Q477.83313 470.1125 477.83313 469.28436Q477.83313 468.3 478.58313 467.7531Q479.33313 467.20624 480.70813 467.20624L481.755 467.20624L481.755 466.70624Q481.755 466.14374 481.41125 465.8156Q481.08313 465.47186 480.41125 465.47186Q479.83313 465.47186 479.4425 465.76874Q479.05188 466.05 479.05188 466.47186L477.95813 466.47186Q477.95813 465.9875 478.28625 465.55Q478.63 465.1125 479.20813 464.8625Q479.78625 464.59686 480.47375 464.59686Q481.58313 464.59686 482.1925 465.14374Q482.8175 465.6906 482.84875 466.64374L482.84875 469.5656Q482.84875 470.4406 483.0675 470.95624L483.0675 471.05L481.92688 471.05ZM480.13 470.22186Q480.64563 470.22186 481.09875 469.95624Q481.55188 469.6906 481.755 469.26874L481.755 467.97186L480.91125 467.97186Q478.91125 467.97186 478.91125 469.14374Q478.91125 469.64374 479.255 469.9406Q479.59875 470.22186 480.13 470.22186ZM484.755 467.83124Q484.755 466.34686 485.4425 465.47186Q486.13 464.59686 487.255 464.59686Q488.41125 464.59686 489.0675 465.40936L489.11438 464.70624L490.11438 464.70624L490.11438 470.89374Q490.11438 472.1281 489.38 472.83124Q488.64563 473.55 487.42688 473.55Q486.73938 473.55 486.08313 473.2531Q485.42688 472.95624 485.08313 472.45624L485.64563 471.8Q486.33313 472.65936 487.34875 472.65936Q488.13 472.65936 488.5675 472.20624Q489.02063 471.76874 489.02063 470.95624L489.02063 470.40936Q488.36438 471.175 487.23938 471.175Q486.13 471.175 485.4425 470.28436Q484.755 469.3781 484.755 467.83124ZM485.84875 467.95624Q485.84875 469.01874 486.28625 469.64374Q486.72375 470.2531 487.52063 470.2531Q488.53625 470.2531 489.02063 469.3156L489.02063 466.425Q488.52063 465.51874 487.52063 465.51874Q486.73938 465.51874 486.28625 466.1281Q485.84875 466.7375 485.84875 467.95624ZM493.1925 471.05L492.11438 471.05L492.11438 462.05L493.1925 462.05L493.1925 471.05ZM497.64563 471.175Q496.34875 471.175 495.53625 470.33124Q494.73938 469.47186 494.73938 468.05L494.73938 467.8625Q494.73938 466.90936 495.09875 466.175Q495.45813 465.425 496.09875 465.01874Q496.755 464.59686 497.505 464.59686Q498.73938 464.59686 499.42688 465.40936Q500.11438 466.22186 500.11438 467.7375L500.11438 468.1906L495.8175 468.1906Q495.84875 469.1281 496.36438 469.70624Q496.89563 470.28436 497.70813 470.28436Q498.27063 470.28436 498.66125 470.05Q499.0675 469.8156 499.38 469.425L500.03625 469.9406Q499.23938 471.175 497.64563 471.175ZM497.505 465.4875Q496.84875 465.4875 496.39563 465.97186Q495.95813 466.4406 495.86438 467.3L499.03625 467.3L499.03625 467.22186Q498.98938 466.39374 498.58313 465.9406Q498.1925 465.4875 497.505 465.4875ZM501.17688 471.05L501.17688 462.51874L503.97375 462.51874Q505.36438 462.51874 506.05188 463.09686Q506.755 463.65936 506.755 464.78436Q506.755 465.39374 506.41125 465.8625Q506.08313 466.3156 505.48938 466.5656Q506.1925 466.7531 506.58313 467.3Q506.98938 467.83124 506.98938 468.58124Q506.98938 469.7375 506.23938 470.39374Q505.505 471.05 504.14563 471.05L501.17688 471.05ZM502.30188 467.0656L502.30188 470.1281L504.16125 470.1281Q504.95813 470.1281 505.41125 469.72186Q505.86438 469.3156 505.86438 468.59686Q505.86438 467.0656 504.17688 467.0656L502.30188 467.0656ZM502.30188 466.15936L504.005 466.15936Q504.73938 466.15936 505.17688 465.8Q505.63 465.425 505.63 464.78436Q505.63 464.08124 505.22375 463.76874Q504.8175 463.4406 503.97375 463.4406L502.30188 463.4406L502.30188 466.15936ZM507.72375 467.8156Q507.72375 466.89374 508.08313 466.14374Q508.45813 465.39374 509.11438 465.0031Q509.77063 464.59686 510.59875 464.59686Q511.89563 464.59686 512.6925 465.4875Q513.505 466.3781 513.505 467.8781L513.505 467.95624Q513.505 468.8781 513.1456 469.6125Q512.78625 470.34686 512.13 470.76874Q511.47375 471.175 510.61438 471.175Q509.33313 471.175 508.52063 470.28436Q507.72375 469.3781 507.72375 467.89374L507.72375 467.8156ZM508.8175 467.95624Q508.8175 469.0031 509.30188 469.64374Q509.80188 470.28436 510.61438 470.28436Q511.4425 470.28436 511.92688 469.64374Q512.41125 468.9875 512.41125 467.8156Q512.41125 466.78436 511.91125 466.14374Q511.42688 465.4875 510.59875 465.4875Q509.80188 465.4875 509.30188 466.1281Q508.8175 466.7531 508.8175 467.95624ZM516.03625 464.70624L516.0675 465.5031Q516.8019 464.59686 517.97375 464.59686Q519.9894 464.59686 520.005 466.8625L520.005 471.05L518.91125 471.05L518.91125 466.84686Q518.91125 466.175 518.59875 465.84686Q518.3019 465.51874 517.6456 465.51874Q517.1144 465.51874 516.7081 465.8Q516.3175 466.08124 516.09875 466.53436L516.09875 471.05L515.0206 471.05L515.0206 464.70624L516.03625 464.70624ZM524.6456 471.175Q523.34875 471.175 522.53625 470.33124Q521.7394 469.47186 521.7394 468.05L521.7394 467.8625Q521.7394 466.90936 522.09875 466.175Q522.4581 465.425 523.09875 465.01874Q523.755 464.59686 524.505 464.59686Q525.7394 464.59686 526.4269 465.40936Q527.1144 466.22186 527.1144 467.7375L527.1144 468.1906L522.8175 468.1906Q522.84875 469.1281 523.3644 469.70624Q523.8956 470.28436 524.7081 470.28436Q525.2706 470.28436 525.66125 470.05Q526.0675 469.8156 526.38 469.425L527.03625 469.9406Q526.2394 471.175 524.6456 471.175ZM524.505 465.4875Q523.84875 465.4875 523.3956 465.97186Q522.9581 466.4406 522.8644 467.3L526.03625 467.3L526.03625 467.22186Q525.9894 466.39374 525.5831 465.9406Q525.1925 465.4875 524.505 465.4875Z" fill-rule="nonzero"/><path fill="#757575" d="M557.9944 467.70624L557.9944 471.05L556.8694 471.05L556.8694 462.51874L560.02563 462.51874Q561.41626 462.51874 562.21313 463.2375Q563.01 463.9406 563.01 465.1281Q563.01 466.3625 562.22876 467.03436Q561.46313 467.70624 560.01 467.70624L557.9944 467.70624ZM557.9944 466.78436L560.02563 466.78436Q560.9319 466.78436 561.40063 466.3625Q561.885 465.9406 561.885 465.14374Q561.885 464.3781 561.40063 463.925Q560.9319 463.45624 560.08813 463.4406L557.9944 463.4406L557.9944 466.78436ZM567.77563 465.675Q567.52563 465.64374 567.2444 465.64374Q566.16626 465.64374 565.79126 466.55L565.79126 471.05L564.71313 471.05L564.71313 464.70624L565.76 464.70624L565.77563 465.4406Q566.3069 464.59686 567.29126 464.59686Q567.60376 464.59686 567.77563 464.675L567.77563 465.675ZM570.77563 469.45624L572.26 464.70624L573.41626 464.70624L570.8694 472.03436Q570.27563 473.6125 568.9944 473.6125L568.77563 473.59686L568.385 473.51874L568.385 472.64374L568.66626 472.65936Q569.22876 472.65936 569.52563 472.4406Q569.83813 472.22186 570.04126 471.6281L570.27563 470.97186L568.01 464.70624L569.1975 464.70624L570.77563 469.45624ZM575.72876 464.70624L575.76 465.5031Q576.4944 464.59686 577.66626 464.59686Q579.6819 464.59686 579.6975 466.8625L579.6975 471.05L578.60376 471.05L578.60376 466.84686Q578.60376 466.175 578.29126 465.84686Q577.9944 465.51874 577.33813 465.51874Q576.8069 465.51874 576.40063 465.8Q576.01 466.08124 575.79126 466.53436L575.79126 471.05L574.71313 471.05L574.71313 464.70624L575.72876 464.70624ZM583.1819 463.175L583.1819 464.70624L584.35376 464.70624L584.35376 465.55L583.1819 465.55L583.1819 469.47186Q583.1819 469.8625 583.33813 470.05Q583.4944 470.2375 583.8694 470.2375Q584.0569 470.2375 584.385 470.175L584.385 471.05Q583.96313 471.175 583.5569 471.175Q582.83813 471.175 582.46313 470.7375Q582.08813 470.28436 582.08813 469.47186L582.08813 465.55L580.9319 465.55L580.9319 464.70624L582.08813 464.70624L582.08813 463.175L583.1819 463.175ZM586.79126 465.47186Q587.51 464.59686 588.66626 464.59686Q590.6819 464.59686 590.6975 466.8625L590.6975 471.05L589.60376 471.05L589.60376 466.84686Q589.60376 466.175 589.29126 465.84686Q588.9944 465.51874 588.33813 465.51874Q587.8069 465.51874 587.40063 465.8Q587.01 466.08124 586.79126 466.53436L586.79126 471.05L585.71313 471.05L585.71313 462.05L586.79126 462.05L586.79126 465.47186Z" fill-rule="nonzero"/><path fill="#757575" d="M643.1244 471.05L641.9994 471.05L637.7025 464.47186L637.7025 471.05L636.5619 471.05L636.5619 462.51874L637.7025 462.51874L641.9994 469.1281L641.9994 462.51874L643.1244 462.51874L643.1244 471.05ZM645.10876 467.8156Q645.10876 466.89374 645.46814 466.14374Q645.84314 465.39374 646.4994 465.0031Q647.15564 464.59686 647.98376 464.59686Q649.28064 464.59686 650.0775 465.4875Q650.89 466.3781 650.89 467.8781L650.89 467.95624Q650.89 468.8781 650.53064 469.6125Q650.17126 470.34686 649.515 470.76874Q648.85876 471.175 647.9994 471.175Q646.71814 471.175 645.90564 470.28436Q645.10876 469.3781 645.10876 467.89374L645.10876 467.8156ZM646.2025 467.95624Q646.2025 469.0031 646.6869 469.64374Q647.1869 470.28436 647.9994 470.28436Q648.8275 470.28436 649.3119 469.64374Q649.79626 468.9875 649.79626 467.8156Q649.79626 466.78436 649.29626 466.14374Q648.8119 465.4875 647.98376 465.4875Q647.1869 465.4875 646.6869 466.1281Q646.2025 466.7531 646.2025 467.95624ZM655.46814 465.675Q655.21814 465.64374 654.9369 465.64374Q653.85876 465.64374 653.48376 466.55L653.48376 471.05L652.40564 471.05L652.40564 464.70624L653.4525 464.70624L653.46814 465.4406Q653.9994 464.59686 654.98376 464.59686Q655.29626 464.59686 655.46814 464.675L655.46814 465.675ZM657.42126 464.70624L657.4525 465.5031Q658.1869 464.59686 659.35876 464.59686Q661.3744 464.59686 661.39 466.8625L661.39 471.05L660.29626 471.05L660.29626 466.84686Q660.29626 466.175 659.98376 465.84686Q659.6869 465.51874 659.03064 465.51874Q658.4994 465.51874 658.09314 465.8Q657.7025 466.08124 657.48376 466.53436L657.48376 471.05L656.40564 471.05L656.40564 464.70624L657.42126 464.70624ZM667.09314 469.3625Q667.09314 468.925 666.7494 468.6906Q666.42126 468.4406 665.59314 468.26874Q664.78064 468.09686 664.29626 467.84686Q663.8119 467.59686 663.5775 467.26874Q663.35876 466.925 663.35876 466.45624Q663.35876 465.675 664.015 465.14374Q664.67126 464.59686 665.7025 464.59686Q666.78064 464.59686 667.4369 465.15936Q668.10876 465.70624 668.10876 466.5656L667.03064 466.5656Q667.03064 466.1281 666.64 465.8156Q666.265 465.4875 665.7025 465.4875Q665.10876 465.4875 664.765 465.7531Q664.4369 466.0031 664.4369 466.40936Q664.4369 466.8 664.7494 467.0031Q665.0619 467.20624 665.8744 467.39374Q666.6869 467.5656 667.1869 467.8156Q667.6869 468.0656 667.92126 468.425Q668.17126 468.78436 668.17126 469.28436Q668.17126 470.14374 667.48376 470.65936Q666.8119 471.175 665.73376 471.175Q664.96814 471.175 664.3744 470.90936Q663.79626 470.6281 663.46814 470.14374Q663.14 469.65936 663.14 469.09686L664.21814 469.09686Q664.2494 469.64374 664.65564 469.97186Q665.0619 470.28436 665.73376 470.28436Q666.34314 470.28436 666.71814 470.03436Q667.09314 469.78436 667.09314 469.3625Z" fill-rule="nonzero"/><path fill="#757575" d="M713.4732 467.28436L709.87946 467.28436L709.87946 471.05L708.75446 471.05L708.75446 462.51874L714.05133 462.51874L714.05133 463.4406L709.87946 463.4406L709.87946 466.3625L713.4732 466.3625L713.4732 467.28436ZM718.6607 465.675Q718.4107 465.64374 718.12946 465.64374Q717.05133 465.64374 716.67633 466.55L716.67633 471.05L715.5982 471.05L715.5982 464.70624L716.6451 464.70624L716.6607 465.4406Q717.19196 464.59686 718.17633 464.59686Q718.48883 464.59686 718.6607 464.675L718.6607 465.675ZM722.2232 471.175Q720.92633 471.175 720.11383 470.33124Q719.31696 469.47186 719.31696 468.05L719.31696 467.8625Q719.31696 466.90936 719.67633 466.175Q720.0357 465.425 720.67633 465.01874Q721.3326 464.59686 722.0826 464.59686Q723.31696 464.59686 724.00446 465.40936Q724.69196 466.22186 724.69196 467.7375L724.69196 468.1906L720.3951 468.1906Q720.42633 469.1281 720.94196 469.70624Q721.4732 470.28436 722.2857 470.28436Q722.8482 470.28436 723.23883 470.05Q723.6451 469.8156 723.9576 469.425L724.61383 469.9406Q723.81696 471.175 722.2232 471.175ZM722.0826 465.4875Q721.42633 465.4875 720.9732 465.97186Q720.5357 466.4406 720.44196 467.3L723.61383 467.3L723.61383 467.22186Q723.56696 466.39374 723.1607 465.9406Q722.7701 465.4875 722.0826 465.4875ZM728.2232 471.175Q726.92633 471.175 726.11383 470.33124Q725.31696 469.47186 725.31696 468.05L725.31696 467.8625Q725.31696 466.90936 725.67633 466.175Q726.0357 465.425 726.67633 465.01874Q727.3326 464.59686 728.0826 464.59686Q729.31696 464.59686 730.00446 465.40936Q730.69196 466.22186 730.69196 467.7375L730.69196 468.1906L726.3951 468.1906Q726.42633 469.1281 726.94196 469.70624Q727.4732 470.28436 728.2857 470.28436Q728.8482 470.28436 729.23883 470.05Q729.6451 469.8156 729.9576 469.425L730.61383 469.9406Q729.81696 471.175 728.2232 471.175ZM728.0826 465.4875Q727.42633 465.4875 726.9732 465.97186Q726.5357 466.4406 726.44196 467.3L729.61383 467.3L729.61383 467.22186Q729.56696 466.39374 729.1607 465.9406Q728.7701 465.4875 728.0826 465.4875ZM731.75446 471.05L731.75446 462.51874L734.55133 462.51874Q735.94196 462.51874 736.62946 463.09686Q737.3326 463.65936 737.3326 464.78436Q737.3326 465.39374 736.98883 465.8625Q736.6607 466.3156 736.06696 466.5656Q736.7701 466.7531 737.1607 467.3Q737.56696 467.83124 737.56696 468.58124Q737.56696 469.7375 736.81696 470.39374Q736.0826 471.05 734.7232 471.05L731.75446 471.05ZM732.87946 467.0656L732.87946 470.1281L734.73883 470.1281Q735.5357 470.1281 735.98883 469.72186Q736.44196 469.3156 736.44196 468.59686Q736.44196 467.0656 734.75446 467.0656L732.87946 467.0656ZM732.87946 466.15936L734.5826 466.15936Q735.31696 466.15936 735.75446 465.8Q736.2076 465.425 736.2076 464.78436Q736.2076 464.08124 735.80133 463.76874Q735.3951 463.4406 734.55133 463.4406L732.87946 463.4406L732.87946 466.15936ZM741.2701 467.2531Q739.8326 466.83124 739.1607 466.22186Q738.50446 465.6125 738.50446 464.72186Q738.50446 463.72186 739.30133 463.0656Q740.11383 462.39374 741.4107 462.39374Q742.2857 462.39374 742.9732 462.7375Q743.6607 463.08124 744.0357 463.675Q744.42633 464.26874 744.42633 464.9875L743.2857 464.9875Q743.2857 464.20624 742.7857 463.76874Q742.30133 463.33124 741.4107 463.33124Q740.5826 463.33124 740.11383 463.70624Q739.6451 464.0656 739.6451 464.70624Q739.6451 465.2375 740.0826 465.59686Q740.5357 465.95624 741.5982 466.2531Q742.6607 466.55 743.25446 466.90936Q743.86383 467.26874 744.1451 467.7531Q744.44196 468.2375 744.44196 468.8781Q744.44196 469.925 743.62946 470.55Q742.81696 471.175 741.4732 471.175Q740.5826 471.175 739.81696 470.83124Q739.06696 470.4875 738.6451 469.90936Q738.23883 469.3156 738.23883 468.58124L739.36383 468.58124Q739.36383 469.34686 739.94196 469.8Q740.5201 470.2531 741.4732 470.2531Q742.36383 470.2531 742.8326 469.89374Q743.30133 469.51874 743.30133 468.89374Q743.30133 468.26874 742.86383 467.925Q742.42633 467.58124 741.2701 467.2531ZM745.75446 471.05L745.75446 462.51874L748.17633 462.51874Q749.2857 462.51874 750.12946 463.01874Q750.98883 463.5031 751.4576 464.40936Q751.92633 465.3156 751.92633 466.5031L751.92633 467.03436Q751.92633 468.2531 751.4576 469.15936Q751.00446 470.0656 750.12946 470.55Q749.2701 471.03436 748.12946 471.05L745.75446 471.05ZM746.87946 463.4406L746.87946 470.1281L748.06696 470.1281Q749.36383 470.1281 750.0826 469.33124Q750.81696 468.51874 750.81696 467.01874L750.81696 466.51874Q750.81696 465.0656 750.12946 464.26874Q749.4576 463.45624 748.19196 463.4406L746.87946 463.4406Z" fill-rule="nonzero"/><path fill="#757575" d="M29.66875 39.465626L29.934376 41.340626L30.340626 39.653126L33.153126 29.73125L34.73125 29.73125L37.48125 39.653126L37.871876 41.371876L38.16875 39.45L40.3875 29.73125L42.2625 29.73125L38.825 43.95L37.10625 43.95L34.184376 33.590626L33.95 32.496876L33.73125 33.590626L30.7 43.95L28.98125 43.95L25.54375 29.73125L27.41875 29.73125L29.66875 39.465626ZM46.121876 34.66875Q47.325 33.184376 49.246876 33.184376Q52.60625 33.184376 52.621876 36.965626L52.621876 43.95L50.825 43.95L50.825 36.95Q50.809376 35.809376 50.29375 35.2625Q49.79375 34.715626 48.7 34.715626Q47.825 34.715626 47.153126 35.184376Q46.496876 35.653126 46.121876 36.41875L46.121876 43.95L44.325 43.95L44.325 28.95L46.121876 28.95L46.121876 34.66875ZM61.840626 43.95Q61.684376 43.6375 61.590626 42.840626Q60.325 44.153126 58.575 44.153126Q57.0125 44.153126 56.0125 43.2625Q55.0125 42.371876 55.0125 41.0125Q55.0125 39.371876 56.2625 38.465626Q57.528126 37.54375 59.79375 37.54375L61.559376 37.54375L61.559376 36.715626Q61.559376 35.7625 60.98125 35.2Q60.41875 34.6375 59.325 34.6375Q58.35625 34.6375 57.7 35.1375Q57.04375 35.621876 57.04375 36.309376L55.23125 36.309376Q55.23125 35.528126 55.79375 34.79375Q56.35625 34.04375 57.309376 33.621876Q58.278126 33.184376 59.434376 33.184376Q61.2625 33.184376 62.29375 34.10625Q63.325 35.0125 63.371876 36.621876L63.371876 41.48125Q63.371876 42.934376 63.73125 43.79375L63.73125 43.95L61.840626 43.95ZM58.840626 42.575Q59.7 42.575 60.45 42.1375Q61.215626 41.7 61.559376 40.996876L61.559376 38.825L60.1375 38.825Q56.825 38.825 56.825 40.7625Q56.825 41.621876 57.3875 42.10625Q57.95 42.575 58.840626 42.575ZM68.7625 30.825L68.7625 33.3875L70.74687 33.3875L70.74687 34.778126L68.7625 34.778126L68.7625 41.325Q68.7625 41.965626 69.02812 42.29375Q69.29375 42.60625 69.93437 42.60625Q70.24687 42.60625 70.79375 42.48125L70.79375 43.95Q70.075 44.153126 69.40312 44.153126Q68.2 44.153126 67.575 43.41875Q66.96562 42.684376 66.96562 41.325L66.96562 34.778126L65.04375 34.778126L65.04375 33.3875L66.96562 33.3875L66.96562 30.825L68.7625 30.825ZM84.84062 43.95Q84.68437 43.6375 84.59062 42.840626Q83.325 44.153126 81.575 44.153126Q80.0125 44.153126 79.0125 43.2625Q78.0125 42.371876 78.0125 41.0125Q78.0125 39.371876 79.2625 38.465626Q80.52812 37.54375 82.79375 37.54375L84.55937 37.54375L84.55937 36.715626Q84.55937 35.7625 83.98125 35.2Q83.41875 34.6375 82.325 34.6375Q81.35625 34.6375 80.7 35.1375Q80.04375 35.621876 80.04375 36.309376L78.23125 36.309376Q78.23125 35.528126 78.79375 34.79375Q79.35625 34.04375 80.30937 33.621876Q81.27812 33.184376 82.43437 33.184376Q84.2625 33.184376 85.29375 34.10625Q86.325 35.0125 86.37187 36.621876L86.37187 41.48125Q86.37187 42.934376 86.73125 43.79375L86.73125 43.95L84.84062 43.95ZM81.84062 42.575Q82.7 42.575 83.45 42.1375Q84.21562 41.7 84.55937 40.996876L84.55937 38.825L83.1375 38.825Q79.825 38.825 79.825 40.7625Q79.825 41.621876 80.3875 42.10625Q80.95 42.575 81.84062 42.575ZM94.41875 34.996876Q94.0125 34.934376 93.54375 34.934376Q91.7625 34.934376 91.12187 36.45L91.12187 43.95L89.325 43.95L89.325 33.3875L91.075 33.3875L91.10625 34.60625Q91.99687 33.184376 93.62187 33.184376Q94.15312 33.184376 94.41875 33.325L94.41875 34.996876ZM100.7 44.153126Q98.55937 44.153126 97.2 42.746876Q95.85625 41.325 95.85625 38.965626L95.85625 38.621876Q95.85625 37.059376 96.45 35.825Q97.05937 34.590626 98.1375 33.8875Q99.21562 33.184376 100.48125 33.184376Q102.54375 33.184376 103.68437 34.54375Q104.825 35.903126 104.825 38.434376L104.825 39.184376L97.66875 39.184376Q97.7 40.746876 98.575 41.715626Q99.45 42.66875 100.79375 42.66875Q101.7625 42.66875 102.41875 42.278126Q103.09062 41.8875 103.59062 41.246876L104.68437 42.10625Q103.35625 44.153126 100.7 44.153126ZM100.48125 34.66875Q99.3875 34.66875 98.6375 35.465626Q97.90312 36.2625 97.73125 37.7L103.0125 37.7L103.0125 37.559376Q102.93437 36.184376 102.2625 35.434376Q101.60625 34.66875 100.48125 34.66875ZM114.7625 30.825L114.7625 33.3875L116.74687 33.3875L116.74687 34.778126L114.7625 34.778126L114.7625 41.325Q114.7625 41.965626 115.02812 42.29375Q115.29375 42.60625 115.93437 42.60625Q116.24687 42.60625 116.79375 42.48125L116.79375 43.95Q116.075 44.153126 115.40312 44.153126Q114.2 44.153126 113.575 43.41875Q112.96562 42.684376 112.96562 41.325L112.96562 34.778126L111.04375 34.778126L111.04375 33.3875L112.96562 33.3875L112.96562 30.825L114.7625 30.825ZM121.12187 34.66875Q122.325 33.184376 124.24687 33.184376Q127.60625 33.184376 127.62187 36.965626L127.62187 43.95L125.825 43.95L125.825 36.95Q125.80937 35.809376 125.29375 35.2625Q124.79375 34.715626 123.7 34.715626Q122.825 34.715626 122.15312 35.184376Q121.49687 35.653126 121.12187 36.41875L121.12187 43.95L119.325 43.95L119.325 28.95L121.12187 28.95L121.12187 34.66875ZM134.7 44.153126Q132.55937 44.153126 131.2 42.746876Q129.85625 41.325 129.85625 38.965626L129.85625 38.621876Q129.85625 37.059376 130.45 35.825Q131.05937 34.590626 132.1375 33.8875Q133.21562 33.184376 134.48125 33.184376Q136.54375 33.184376 137.68437 34.54375Q138.825 35.903126 138.825 38.434376L138.825 39.184376L131.66875 39.184376Q131.7 40.746876 132.575 41.715626Q133.45 42.66875 134.79375 42.66875Q135.7625 42.66875 136.41875 42.278126Q137.09062 41.8875 137.59062 41.246876L138.68437 42.10625Q137.35625 44.153126 134.7 44.153126ZM134.48125 34.66875Q133.3875 34.66875 132.6375 35.465626Q131.90312 36.2625 131.73125 37.7L137.0125 37.7L137.0125 37.559376Q136.93437 36.184376 136.2625 35.434376Q135.60625 34.66875 134.48125 34.66875ZM155.24687 38.778126Q155.24687 41.2 154.1375 42.684376Q153.04375 44.153126 151.15312 44.153126Q149.23125 44.153126 148.12187 42.91875L148.12187 48.0125L146.325 48.0125L146.325 33.3875L147.96562 33.3875L148.05937 34.559376Q149.15312 33.184376 151.12187 33.184376Q153.02812 33.184376 154.1375 34.621876Q155.24687 36.059376 155.24687 38.621876L155.24687 38.778126ZM153.43437 38.575Q153.43437 36.79375 152.66875 35.7625Q151.91875 34.715626 150.59062 34.715626Q148.95 34.715626 148.12187 36.16875L148.12187 41.23125Q148.93437 42.66875 150.60625 42.66875Q151.90312 42.66875 152.66875 41.6375Q153.43437 40.60625 153.43437 38.575ZM159.27812 43.95L157.48125 43.95L157.48125 28.95L159.27812 28.95L159.27812 43.95ZM168.84062 43.95Q168.68437 43.6375 168.59062 42.840626Q167.325 44.153126 165.575 44.153126Q164.0125 44.153126 163.0125 43.2625Q162.0125 42.371876 162.0125 41.0125Q162.0125 39.371876 163.2625 38.465626Q164.52812 37.54375 166.79375 37.54375L168.55937 37.54375L168.55937 36.715626Q168.55937 35.7625 167.98125 35.2Q167.41875 34.6375 166.325 34.6375Q165.35625 34.6375 164.7 35.1375Q164.04375 35.621876 164.04375 36.309376L162.23125 36.309376Q162.23125 35.528126 162.79375 34.79375Q163.35625 34.04375 164.30937 33.621876Q165.27812 33.184376 166.43437 33.184376Q168.2625 33.184376 169.29375 34.10625Q170.325 35.0125 170.37187 36.621876L170.37187 41.48125Q170.37187 42.934376 170.73125 43.79375L170.73125 43.95L168.84062 43.95ZM165.84062 42.575Q166.7 42.575 167.45 42.1375Q168.21562 41.7 168.55937 40.996876L168.55937 38.825L167.1375 38.825Q163.825 38.825 163.825 40.7625Q163.825 41.621876 164.3875 42.10625Q164.95 42.575 165.84062 42.575ZM175.7625 30.825L175.7625 33.3875L177.74687 33.3875L177.74687 34.778126L175.7625 34.778126L175.7625 41.325Q175.7625 41.965626 176.02812 42.29375Q176.29375 42.60625 176.93437 42.60625Q177.24687 42.60625 177.79375 42.48125L177.79375 43.95Q177.075 44.153126 176.40312 44.153126Q175.2 44.153126 174.575 43.41875Q173.96562 42.684376 173.96562 41.325L173.96562 34.778126L172.04375 34.778126L172.04375 33.3875L173.96562 33.3875L173.96562 30.825L175.7625 30.825ZM181.2 43.95L181.2 34.778126L179.54375 34.778126L179.54375 33.3875L181.2 33.3875L181.2 32.29375Q181.2 30.60625 182.10625 29.684376Q183.02812 28.746876 184.68437 28.746876Q185.30937 28.746876 185.91875 28.903126L185.825 30.371876Q185.37187 30.29375 184.85625 30.29375Q183.96562 30.29375 183.48125 30.809376Q183.0125 31.309376 183.0125 32.2625L183.0125 33.3875L185.2625 33.3875L185.2625 34.778126L183.0125 34.778126L183.0125 43.95L181.2 43.95ZM186.84062 38.575Q186.84062 37.0125 187.45 35.778126Q188.05937 34.528126 189.1375 33.85625Q190.23125 33.184376 191.6375 33.184376Q193.79375 33.184376 195.12187 34.684376Q196.46562 36.16875 196.46562 38.653126L196.46562 38.778126Q196.46562 40.325 195.87187 41.559376Q195.27812 42.778126 194.16875 43.465626Q193.075 44.153126 191.65312 44.153126Q189.5125 44.153126 188.16875 42.653126Q186.84062 41.153126 186.84062 38.7L186.84062 38.575ZM188.65312 38.778126Q188.65312 40.54375 189.46562 41.60625Q190.29375 42.66875 191.65312 42.66875Q193.02812 42.66875 193.84062 41.590626Q194.65312 40.5125 194.65312 38.575Q194.65312 36.825 193.825 35.746876Q192.99687 34.66875 191.6375 34.66875Q190.29375 34.66875 189.46562 35.73125Q188.65312 36.79375 188.65312 38.778126ZM203.41875 34.996876Q203.0125 34.934376 202.54375 34.934376Q200.7625 34.934376 200.12187 36.45L200.12187 43.95L198.325 43.95L198.325 33.3875L200.075 33.3875L200.10625 34.60625Q200.99687 33.184376 202.62187 33.184376Q203.15312 33.184376 203.41875 33.325L203.41875 34.996876ZM207.0125 33.3875L207.05937 34.559376Q208.23125 33.184376 210.2 33.184376Q212.41875 33.184376 213.21562 34.8875Q213.74687 34.121876 214.59062 33.653126Q215.43437 33.184376 216.59062 33.184376Q220.05937 33.184376 220.12187 36.871876L220.12187 43.95L218.30937 43.95L218.30937 36.98125Q218.30937 35.840626 217.79375 35.278126Q217.27812 34.715626 216.05937 34.715626Q215.05937 34.715626 214.3875 35.325Q213.73125 35.91875 213.62187 36.934376L213.62187 43.95L211.80937 43.95L211.80937 37.028126Q211.80937 34.715626 209.54375 34.715626Q207.7625 34.715626 207.12187 36.23125L207.12187 43.95L205.30937 43.95L205.30937 33.3875L207.0125 33.3875ZM229.46562 41.153126Q229.46562 40.41875 228.91875 40.0125Q228.37187 39.60625 226.99687 39.309376Q225.62187 39.0125 224.80937 38.60625Q224.0125 38.2 223.62187 37.6375Q223.24687 37.059376 223.24687 36.278126Q223.24687 34.98125 224.34062 34.090626Q225.43437 33.184376 227.15312 33.184376Q228.95 33.184376 230.05937 34.121876Q231.18437 35.04375 231.18437 36.48125L229.35625 36.48125Q229.35625 35.746876 228.73125 35.215626Q228.10625 34.66875 227.15312 34.66875Q226.15312 34.66875 225.59062 35.10625Q225.04375 35.528126 225.04375 36.23125Q225.04375 36.871876 225.55937 37.215626Q226.075 37.54375 227.43437 37.85625Q228.79375 38.153126 229.62187 38.575Q230.46562 38.98125 230.87187 39.575Q231.27812 40.16875 231.27812 41.0125Q231.27812 42.434376 230.1375 43.29375Q229.0125 44.153126 227.2 44.153126Q225.93437 44.153126 224.95 43.7Q223.98125 43.246876 223.41875 42.45Q222.87187 41.6375 222.87187 40.7L224.68437 40.7Q224.73125 41.60625 225.40312 42.1375Q226.09062 42.66875 227.2 42.66875Q228.23125 42.66875 228.84062 42.2625Q229.46562 41.840626 229.46562 41.153126ZM237.84062 38.575Q237.84062 37.0125 238.45 35.778126Q239.05937 34.528126 240.1375 33.85625Q241.23125 33.184376 242.6375 33.184376Q244.79375 33.184376 246.12187 34.684376Q247.46562 36.16875 247.46562 38.653126L247.46562 38.778126Q247.46562 40.325 246.87187 41.559376Q246.27812 42.778126 245.16875 43.465626Q244.075 44.153126 242.65312 44.153126Q240.5125 44.153126 239.16875 42.653126Q237.84062 41.153126 237.84062 38.7L237.84062 38.575ZM239.65312 38.778126Q239.65312 40.54375 240.46562 41.60625Q241.29375 42.66875 242.65312 42.66875Q244.02812 42.66875 244.84062 41.590626Q245.65312 40.5125 245.65312 38.575Q245.65312 36.825 244.825 35.746876Q243.99687 34.66875 242.6375 34.66875Q241.29375 34.66875 240.46562 35.73125Q239.65312 36.79375 239.65312 38.778126ZM251.02812 33.3875L251.09062 34.715626Q252.29375 33.184376 254.24687 33.184376Q257.60626 33.184376 257.6219 36.965626L257.6219 43.95L255.825 43.95L255.825 36.95Q255.80937 35.809376 255.29375 35.2625Q254.79375 34.715626 253.7 34.715626Q252.825 34.715626 252.15312 35.184376Q251.49687 35.653126 251.12187 36.41875L251.12187 43.95L249.325 43.95L249.325 33.3875L251.02812 33.3875ZM274.66876 41.465626L276.7 33.3875L278.5125 33.3875L275.4344 43.95L273.96564 43.95L271.40314 35.934376L268.90314 43.95L267.4344 43.95L264.3719 33.3875L266.16876 33.3875L268.2469 41.29375L270.71564 33.3875L272.16876 33.3875L274.66876 41.465626ZM282.1219 34.66875Q283.325 33.184376 285.2469 33.184376Q288.60626 33.184376 288.6219 36.965626L288.6219 43.95L286.825 43.95L286.825 36.95Q286.8094 35.809376 286.29376 35.2625Q285.79376 34.715626 284.7 34.715626Q283.825 34.715626 283.15314 35.184376Q282.4969 35.653126 282.1219 36.41875L282.1219 43.95L280.325 43.95L280.325 28.95L282.1219 28.95L282.1219 34.66875ZM293.27814 43.95L291.48126 43.95L291.48126 33.3875L293.27814 33.3875L293.27814 43.95ZM291.325 30.575Q291.325 30.1375 291.59064 29.840626Q291.8719 29.528126 292.3875 29.528126Q292.91876 29.528126 293.1844 29.840626Q293.46564 30.1375 293.46564 30.575Q293.46564 31.0125 293.1844 31.309376Q292.91876 31.60625 292.3875 31.60625Q291.8719 31.60625 291.59064 31.309376Q291.325 31.0125 291.325 30.575ZM300.5594 42.66875Q301.52814 42.66875 302.2469 42.090626Q302.96564 41.496876 303.04376 40.621876L304.7625 40.621876Q304.7 41.528126 304.1219 42.35625Q303.5594 43.16875 302.59064 43.66875Q301.6375 44.153126 300.5594 44.153126Q298.40314 44.153126 297.1219 42.715626Q295.85626 41.2625 295.85626 38.7625L295.85626 38.465626Q295.85626 36.91875 296.41876 35.715626Q296.98126 34.5125 298.04376 33.85625Q299.10626 33.184376 300.54376 33.184376Q302.325 33.184376 303.4969 34.246876Q304.6844 35.309376 304.7625 37.0125L303.04376 37.0125Q302.96564 35.996876 302.2625 35.340626Q301.575 34.66875 300.54376 34.66875Q299.16876 34.66875 298.40314 35.66875Q297.65314 36.653126 297.65314 38.528126L297.65314 38.871876Q297.65314 40.7 298.40314 41.684376Q299.15314 42.66875 300.5594 42.66875ZM308.1219 34.66875Q309.325 33.184376 311.2469 33.184376Q314.60626 33.184376 314.6219 36.965626L314.6219 43.95L312.825 43.95L312.825 36.95Q312.8094 35.809376 312.29376 35.2625Q311.79376 34.715626 310.7 34.715626Q309.825 34.715626 309.15314 35.184376Q308.4969 35.653126 308.1219 36.41875L308.1219 43.95L306.325 43.95L306.325 28.95L308.1219 28.95L308.1219 34.66875ZM325.77814 41.309376L328.23126 33.3875L330.16876 33.3875L325.91876 45.575Q324.9344 48.215626 322.79376 48.215626L322.45 48.184376L321.77814 48.059376L321.77814 46.590626L322.2625 46.6375Q323.1844 46.6375 323.6844 46.2625Q324.2 45.8875 324.52814 44.903126L324.9344 43.825L321.16876 33.3875L323.1375 33.3875L325.77814 41.309376ZM330.84064 38.575Q330.84064 37.0125 331.45 35.778126Q332.0594 34.528126 333.1375 33.85625Q334.23126 33.184376 335.6375 33.184376Q337.79376 33.184376 339.1219 34.684376Q340.46564 36.16875 340.46564 38.653126L340.46564 38.778126Q340.46564 40.325 339.8719 41.559376Q339.27814 42.778126 338.16876 43.465626Q337.075 44.153126 335.65314 44.153126Q333.5125 44.153126 332.16876 42.653126Q330.84064 41.153126 330.84064 38.7L330.84064 38.575ZM332.65314 38.778126Q332.65314 40.54375 333.46564 41.60625Q334.29376 42.66875 335.65314 42.66875Q337.02814 42.66875 337.84064 41.590626Q338.65314 40.5125 338.65314 38.575Q338.65314 36.825 337.825 35.746876Q336.9969 34.66875 335.6375 34.66875Q334.29376 34.66875 333.46564 35.73125Q332.65314 36.79375 332.65314 38.778126ZM348.84064 42.903126Q347.79376 44.153126 345.7469 44.153126Q344.0594 44.153126 343.16876 43.16875Q342.29376 42.184376 342.27814 40.2625L342.27814 33.3875L344.09064 33.3875L344.09064 40.215626Q344.09064 42.60625 346.04376 42.60625Q348.10626 42.60625 348.79376 41.075L348.79376 33.3875L350.60626 33.3875L350.60626 43.95L348.8875 43.95L348.84064 42.903126ZM364.84064 42.903126Q363.79376 44.153126 361.7469 44.153126Q360.0594 44.153126 359.16876 43.16875Q358.29376 42.184376 358.27814 40.2625L358.27814 33.3875L360.09064 33.3875L360.09064 40.215626Q360.09064 42.60625 362.04376 42.60625Q364.10626 42.60625 364.79376 41.075L364.79376 33.3875L366.60626 33.3875L366.60626 43.95L364.8875 43.95L364.84064 42.903126ZM375.46564 41.153126Q375.46564 40.41875 374.91876 40.0125Q374.3719 39.60625 372.9969 39.309376Q371.6219 39.0125 370.8094 38.60625Q370.0125 38.2 369.6219 37.6375Q369.2469 37.059376 369.2469 36.278126Q369.2469 34.98125 370.34064 34.090626Q371.4344 33.184376 373.15314 33.184376Q374.95 33.184376 376.0594 34.121876Q377.1844 35.04375 377.1844 36.48125L375.35626 36.48125Q375.35626 35.746876 374.73126 35.215626Q374.10626 34.66875 373.15314 34.66875Q372.15314 34.66875 371.59064 35.10625Q371.04376 35.528126 371.04376 36.23125Q371.04376 36.871876 371.5594 37.215626Q372.075 37.54375 373.4344 37.85625Q374.79376 38.153126 375.6219 38.575Q376.46564 38.98125 376.8719 39.575Q377.27814 40.16875 377.27814 41.0125Q377.27814 42.434376 376.1375 43.29375Q375.0125 44.153126 373.2 44.153126Q371.9344 44.153126 370.95 43.7Q369.98126 43.246876 369.41876 42.45Q368.8719 41.6375 368.8719 40.7L370.6844 40.7Q370.73126 41.60625 371.40314 42.1375Q372.09064 42.66875 373.2 42.66875Q374.23126 42.66875 374.84064 42.2625Q375.46564 41.840626 375.46564 41.153126ZM383.7 44.153126Q381.5594 44.153126 380.2 42.746876Q378.85626 41.325 378.85626 38.965626L378.85626 38.621876Q378.85626 37.059376 379.45 35.825Q380.0594 34.590626 381.1375 33.8875Q382.21564 33.184376 383.48126 33.184376Q385.54376 33.184376 386.6844 34.54375Q387.825 35.903126 387.825 38.434376L387.825 39.184376L380.66876 39.184376Q380.7 40.746876 381.575 41.715626Q382.45 42.66875 383.79376 42.66875Q384.7625 42.66875 385.41876 42.278126Q386.09064 41.8875 386.59064 41.246876L387.6844 42.10625Q386.35626 44.153126 383.7 44.153126ZM383.48126 34.66875Q382.3875 34.66875 381.6375 35.465626Q380.90314 36.2625 380.73126 37.7L386.0125 37.7L386.0125 37.559376Q385.9344 36.184376 385.2625 35.434376Q384.60626 34.66875 383.48126 34.66875ZM399.79376 37.60625Q397.3719 36.91875 396.27814 35.91875Q395.1844 34.903126 395.1844 33.41875Q395.1844 31.73125 396.52814 30.6375Q397.8719 29.528126 400.0125 29.528126Q401.48126 29.528126 402.6219 30.10625Q403.77814 30.66875 404.40314 31.66875Q405.02814 32.653126 405.02814 33.840626L403.15314 33.840626Q403.15314 32.559376 402.325 31.825Q401.5125 31.075 400.0125 31.075Q398.6219 31.075 397.84064 31.684376Q397.075 32.29375 397.075 33.3875Q397.075 34.246876 397.8094 34.85625Q398.54376 35.45 400.3094 35.95Q402.09064 36.45 403.09064 37.059376Q404.09064 37.653126 404.575 38.45Q405.0594 39.246876 405.0594 40.340626Q405.0594 42.059376 403.71564 43.10625Q402.3719 44.153126 400.10626 44.153126Q398.65314 44.153126 397.3719 43.590626Q396.10626 43.028126 395.41876 42.059376Q394.73126 41.075 394.73126 39.825L396.6219 39.825Q396.6219 41.121876 397.575 41.871876Q398.52814 42.60625 400.10626 42.60625Q401.59064 42.60625 402.3875 42.0125Q403.1844 41.403126 403.1844 40.35625Q403.1844 39.309376 402.45 38.746876Q401.71564 38.16875 399.79376 37.60625ZM413.84064 42.903126Q412.79376 44.153126 410.7469 44.153126Q409.0594 44.153126 408.16876 43.16875Q407.29376 42.184376 407.27814 40.2625L407.27814 33.3875L409.09064 33.3875L409.09064 40.215626Q409.09064 42.60625 411.04376 42.60625Q413.10626 42.60625 413.79376 41.075L413.79376 33.3875L415.60626 33.3875L415.60626 43.95L413.8875 43.95L413.84064 42.903126ZM427.2469 38.778126Q427.2469 41.2 426.1375 42.684376Q425.04376 44.153126 423.15314 44.153126Q421.23126 44.153126 420.1219 42.91875L420.1219 48.0125L418.325 48.0125L418.325 33.3875L419.96564 33.3875L420.0594 34.559376Q421.15314 33.184376 423.1219 33.184376Q425.02814 33.184376 426.1375 34.621876Q427.2469 36.059376 427.2469 38.621876L427.2469 38.778126ZM425.4344 38.575Q425.4344 36.79375 424.66876 35.7625Q423.91876 34.715626 422.59064 34.715626Q420.95 34.715626 420.1219 36.16875L420.1219 41.23125Q420.9344 42.66875 422.60626 42.66875Q423.90314 42.66875 424.66876 41.6375Q425.4344 40.60625 425.4344 38.575ZM433.7 44.153126Q431.5594 44.153126 430.2 42.746876Q428.85626 41.325 428.85626 38.965626L428.85626 38.621876Q428.85626 37.059376 429.45 35.825Q430.0594 34.590626 431.1375 33.8875Q432.21564 33.184376 433.48126 33.184376Q435.54376 33.184376 436.6844 34.54375Q437.825 35.903126 437.825 38.434376L437.825 39.184376L430.66876 39.184376Q430.7 40.746876 431.575 41.715626Q432.45 42.66875 433.79376 42.66875Q434.7625 42.66875 435.41876 42.278126Q436.09064 41.8875 436.59064 41.246876L437.6844 42.10625Q436.35626 44.153126 433.7 44.153126ZM433.48126 34.66875Q432.3875 34.66875 431.6375 35.465626Q430.90314 36.2625 430.73126 37.7L436.0125 37.7L436.0125 37.559376Q435.9344 36.184376 435.2625 35.434376Q434.60626 34.66875 433.48126 34.66875ZM445.41876 34.996876Q445.0125 34.934376 444.54376 34.934376Q442.7625 34.934376 442.1219 36.45L442.1219 43.95L440.325 43.95L440.325 33.3875L442.075 33.3875L442.10626 34.60625Q442.9969 33.184376 444.6219 33.184376Q445.15314 33.184376 445.41876 33.325L445.41876 34.996876ZM458.0594 39.434376Q457.79376 41.7 456.3875 42.934376Q454.9969 44.153126 452.66876 44.153126Q450.15314 44.153126 448.6219 42.340626Q447.10626 40.528126 447.10626 37.496876L447.10626 36.1375Q447.10626 34.153126 447.8094 32.653126Q448.52814 31.153126 449.825 30.340626Q451.1219 29.528126 452.84064 29.528126Q455.10626 29.528126 456.46564 30.79375Q457.84064 32.059376 458.0594 34.29375L456.16876 34.29375Q455.9344 32.60625 455.10626 31.840626Q454.29376 31.075 452.84064 31.075Q451.04376 31.075 450.0125 32.403126Q448.9969 33.73125 448.9969 36.184376L448.9969 37.559376Q448.9969 39.871876 449.96564 41.246876Q450.9344 42.60625 452.66876 42.60625Q454.23126 42.60625 455.0594 41.903126Q455.90314 41.2 456.16876 39.434376L458.0594 39.434376ZM459.84064 38.575Q459.84064 37.0125 460.45 35.778126Q461.0594 34.528126 462.1375 33.85625Q463.23126 33.184376 464.6375 33.184376Q466.79376 33.184376 468.1219 34.684376Q469.46564 36.16875 469.46564 38.653126L469.46564 38.778126Q469.46564 40.325 468.8719 41.559376Q468.27814 42.778126 467.16876 43.465626Q466.075 44.153126 464.65314 44.153126Q462.5125 44.153126 461.16876 42.653126Q459.84064 41.153126 459.84064 38.7L459.84064 38.575ZM461.65314 38.778126Q461.65314 40.54375 462.46564 41.60625Q463.29376 42.66875 464.65314 42.66875Q466.02814 42.66875 466.84064 41.590626Q467.65314 40.5125 467.65314 38.575Q467.65314 36.825 466.825 35.746876Q465.9969 34.66875 464.6375 34.66875Q463.29376 34.66875 462.46564 35.73125Q461.65314 36.79375 461.65314 38.778126ZM473.27814 43.95L471.48126 43.95L471.48126 28.95L473.27814 28.95L473.27814 43.95ZM478.27814 43.95L476.48126 43.95L476.48126 28.95L478.27814 28.95L478.27814 43.95ZM483.27814 43.95L481.48126 43.95L481.48126 33.3875L483.27814 33.3875L483.27814 43.95ZM481.325 30.575Q481.325 30.1375 481.59064 29.840626Q481.8719 29.528126 482.3875 29.528126Q482.91876 29.528126 483.1844 29.840626Q483.46564 30.1375 483.46564 30.575Q483.46564 31.0125 483.1844 31.309376Q482.91876 31.60625 482.3875 31.60625Q481.8719 31.60625 481.59064 31.309376Q481.325 31.0125 481.325 30.575ZM485.8719 38.575Q485.8719 36.153126 487.02814 34.66875Q488.1844 33.184376 490.04376 33.184376Q491.90314 33.184376 492.98126 34.45L492.98126 28.95L494.79376 28.95L494.79376 43.95L493.1375 43.95L493.04376 42.809376Q491.96564 44.153126 490.02814 44.153126Q488.2 44.153126 487.02814 42.653126Q485.8719 41.1375 485.8719 38.715626L485.8719 38.575ZM487.6844 38.778126Q487.6844 40.575 488.41876 41.590626Q489.16876 42.60625 490.48126 42.60625Q492.2 42.60625 492.98126 41.075L492.98126 36.215626Q492.1844 34.715626 490.4969 34.715626Q489.16876 34.715626 488.41876 35.746876Q487.6844 36.778126 487.6844 38.778126ZM501.7 44.153126Q499.5594 44.153126 498.2 42.746876Q496.85626 41.325 496.85626 38.965626L496.85626 38.621876Q496.85626 37.059376 497.45 35.825Q498.0594 34.590626 499.1375 33.8875Q500.21564 33.184376 501.48126 33.184376Q503.54376 33.184376 504.6844 34.54375Q505.825 35.903126 505.825 38.434376L505.825 39.184376L498.66876 39.184376Q498.7 40.746876 499.575 41.715626Q500.45 42.66875 501.79376 42.66875Q502.7625 42.66875 503.41876 42.278126Q504.09064 41.8875 504.59064 41.246876L505.6844 42.10625Q504.35626 44.153126 501.7 44.153126ZM501.48126 34.66875Q500.3875 34.66875 499.6375 35.465626Q498.90314 36.2625 498.73126 37.7L504.0125 37.7L504.0125 37.559376Q503.9344 36.184376 503.2625 35.434376Q502.60626 34.66875 501.48126 34.66875ZM513.41876 34.996876Q513.0125 34.934376 512.54376 34.934376Q510.7625 34.934376 510.1219 36.45L510.1219 43.95L508.325 43.95L508.325 33.3875L510.075 33.3875L510.10626 34.60625Q510.9969 33.184376 512.6219 33.184376Q513.15314 33.184376 513.41876 33.325L513.41876 34.996876ZM517.4344 39.95Q517.45 38.778126 517.7 38.10625Q517.95 37.434376 518.7 36.621876L519.98126 35.29375Q520.79376 34.371876 520.79376 33.309376Q520.79376 32.278126 520.2469 31.7Q519.71564 31.121876 518.7 31.121876Q517.7 31.121876 517.09064 31.653126Q516.4969 32.16875 516.4969 33.059376L514.6844 33.059376Q514.7 31.48125 515.8094 30.5125Q516.91876 29.528126 518.7 29.528126Q520.54376 29.528126 521.575 30.528126Q522.60626 31.5125 522.60626 33.246876Q522.60626 34.95 521.02814 36.621876L519.95 37.66875Q519.2469 38.465626 519.2469 39.95L517.4344 39.95ZM517.35626 43.04375Q517.35626 42.60625 517.6219 42.309376Q517.90314 42.0125 518.41876 42.0125Q518.95 42.0125 519.21564 42.309376Q519.4969 42.60625 519.4969 43.04375Q519.4969 43.48125 519.21564 43.778126Q518.95 44.059376 518.41876 44.059376Q517.90314 44.059376 517.6219 43.778126Q517.35626 43.48125 517.35626 43.04375Z" fill-rule="nonzero"/></svg>