<svg version="1.1" viewBox="0.0 0.0 790.0 549.0" fill="none" stroke="none" stroke-linecap="square" stroke-miterlimit="10" width="790" height="549" xmlns:xlink="http://www.w3.org/1999/xlink" xmlns="http://www.w3.org/2000/svg"><path fill="#ffffff" d="M0 0L790.0 0L790.0 549.0L0 549.0L0 0Z" fill-rule="nonzero"/><path fill="#ffffff" d="M0 0L790.0 0L790.0 549.0L0 549.0L0 0Z" fill-rule="nonzero"/><path stroke="#333333" stroke-width="1.0" stroke-linecap="butt" d="M80.5 500.5L762.5 500.5" fill-rule="nonzero"/><path stroke="#cccccc" stroke-width="1.0" stroke-linecap="butt" d="M80.5 394.5L762.5 394.5" fill-rule="nonzero"/><path stroke="#cccccc" stroke-width="1.0" stroke-linecap="butt" d="M80.5 288.5L762.5 288.5" fill-rule="nonzero"/><path stroke="#cccccc" stroke-width="1.0" stroke-linecap="butt" d="M80.5 183.5L762.5 183.5" fill-rule="nonzero"/><path stroke="#cccccc" stroke-width="1.0" stroke-linecap="butt" d="M80.5 77.5L762.5 77.5" fill-rule="nonzero"/><clipPath id="id_0"><path d="M80.45 77.25L762.55 77.25L762.55 500.55L80.45 500.55L80.45 77.25Z" clip-rule="nonzero"/></clipPath><path stroke="#000000" stroke-width="0.0" stroke-linecap="butt" stroke-opacity="0.0" clip-path="url(#id_0)" d="M237.0 501.0L135.0 501.0L135.0 143.0C135.0 141.89543 135.89543 141.0 137.0 141.0L235.0 141.0C236.10457 141.0 237.0 141.89543 237.0 143.0Z" fill-rule="nonzero"/><path fill="#3c78d8" clip-path="url(#id_0)" d="M237.0 501.0L135.0 501.0L135.0 143.0C135.0 141.89543 135.89543 141.0 137.0 141.0L235.0 141.0C236.10457 141.0 237.0 141.89543 237.0 143.0Z" fill-rule="nonzero"/><path stroke="#000000" stroke-width="0.0" stroke-linecap="butt" stroke-opacity="0.0" clip-path="url(#id_0)" d="M394.0 501.0L292.0 501.0L292.0 477.0C292.0 475.89542 292.89542 475.0 294.0 475.0L392.0 475.0C393.10458 475.0 394.0 475.89542 394.0 477.0Z" fill-rule="nonzero"/><path fill="#3c78d8" clip-path="url(#id_0)" d="M394.0 501.0L292.0 501.0L292.0 477.0C292.0 475.89542 292.89542 475.0 294.0 475.0L392.0 475.0C393.10458 475.0 394.0 475.89542 394.0 477.0Z" fill-rule="nonzero"/><path stroke="#000000" stroke-width="0.0" stroke-linecap="butt" stroke-opacity="0.0" clip-path="url(#id_0)" d="M551.0 501.0L449.0 501.0L449.0 480.0C449.0 478.89542 449.89542 478.0 451.0 478.0L549.0 478.0C550.10455 478.0 551.0 478.89542 551.0 480.0Z" fill-rule="nonzero"/><path fill="#3c78d8" clip-path="url(#id_0)" d="M551.0 501.0L449.0 501.0L449.0 480.0C449.0 478.89542 449.89542 478.0 451.0 478.0L549.0 478.0C550.10455 478.0 551.0 478.89542 551.0 480.0Z" fill-rule="nonzero"/><path stroke="#000000" stroke-width="0.0" stroke-linecap="butt" stroke-opacity="0.0" clip-path="url(#id_0)" d="M708.0 501.0L606.0 501.0L606.0 487.0C606.0 485.89542 606.89545 485.0 608.0 485.0L706.0 485.0C707.10455 485.0 708.0 485.89542 708.0 487.0Z" fill-rule="nonzero"/><path fill="#3c78d8" clip-path="url(#id_0)" d="M708.0 501.0L606.0 501.0L606.0 487.0C606.0 485.89542 606.89545 485.0 608.0 485.0L706.0 485.0C707.10455 485.0 708.0 485.89542 708.0 487.0Z" fill-rule="nonzero"/><path stroke="#3c78d8" stroke-width="3.0" stroke-linejoin="round" stroke-linecap="round" d="M171.89062 151.1468Q171.89062 151.78743 171.54688 152.28743Q171.20312 152.78743 170.64062 153.06868Q171.29688 153.34993 171.6875 153.91243Q172.07812 154.4593 172.07812 155.16243Q172.07812 156.25618 171.32812 156.92805Q170.59375 157.5843 169.375 157.5843Q168.14062 157.5843 167.39062 156.92805Q166.65625 156.25618 166.65625 155.16243Q166.65625 154.4593 167.03125 153.91243Q167.40625 153.34993 168.07812 153.06868Q167.51562 152.78743 167.1875 152.28743Q166.85938 151.78743 166.85938 151.1468Q166.85938 150.06868 167.54688 149.44368Q168.23438 148.80305 169.375 148.80305Q170.5 148.80305 171.1875 149.44368Q171.89062 150.06868 171.89062 151.1468ZM171.0 155.13118Q171.0 154.41243 170.54688 153.97493Q170.09375 153.5218 169.35938 153.5218Q168.625 153.5218 168.17188 153.97493Q167.73438 154.41243 167.73438 155.1468Q167.73438 155.86555 168.17188 156.28743Q168.60938 156.69368 169.375 156.69368Q170.125 156.69368 170.5625 156.2718Q171.0 155.84993 171.0 155.13118ZM169.375 149.69368Q168.73438 149.69368 168.32812 150.09993Q167.9375 150.49055 167.9375 151.17805Q167.9375 151.81868 168.32812 152.22493Q168.71875 152.63118 169.35938 152.63118Q170.01562 152.63118 170.40625 152.22493Q170.79688 151.81868 170.79688 151.17805Q170.79688 150.5218 170.39062 150.11555Q169.98438 149.69368 169.375 149.69368ZM174.20312 153.17805L174.64062 148.92805L179.01562 148.92805L179.01562 149.92805L175.5625 149.92805L175.29688 152.25618Q175.9375 151.88118 176.73438 151.88118Q177.89062 151.88118 178.57812 152.66243Q179.26562 153.42805 179.26562 154.74055Q179.26562 156.05305 178.54688 156.81868Q177.84375 157.5843 176.5625 157.5843Q175.4375 157.5843 174.71875 156.9593Q174.0 156.31868 173.90625 155.2093L174.92188 155.2093Q175.03125 155.94368 175.45312 156.31868Q175.875 156.69368 176.5625 156.69368Q177.3125 156.69368 177.75 156.17805Q178.1875 155.66243 178.1875 154.75618Q178.1875 153.8968 177.71875 153.38118Q177.25 152.86555 176.46875 152.86555Q175.76562 152.86555 175.35938 153.16243L175.07812 153.3968L174.20312 153.17805ZM180.84375 156.8968Q180.84375 156.61555 181.0 156.42805Q181.17188 156.24055 181.5 156.24055Q181.84375 156.24055 182.01562 156.42805Q182.1875 156.61555 182.1875 156.8968Q182.1875 157.16243 182.01562 157.34993Q181.84375 157.5218 181.5 157.5218Q181.17188 157.5218 181.0 157.34993Q180.84375 157.16243 180.84375 156.8968ZM189.0625 153.81868Q189.0625 155.72493 188.40625 156.66243Q187.76562 157.5843 186.375 157.5843Q185.01562 157.5843 184.35938 156.67805Q183.70312 155.7718 183.67188 153.9593L183.67188 152.5218Q183.67188 150.63118 184.3125 149.72493Q184.96875 148.80305 186.35938 148.80305Q187.73438 148.80305 188.39062 149.69368Q189.04688 150.56868 189.0625 152.41243L189.0625 153.81868ZM187.96875 152.3343Q187.96875 150.9593 187.57812 150.3343Q187.20312 149.69368 186.35938 149.69368Q185.53125 149.69368 185.14062 150.3343Q184.76562 150.9593 184.76562 152.25618L184.76562 153.99055Q184.76562 155.36555 185.15625 156.03743Q185.5625 156.69368 186.375 156.69368Q187.17188 156.69368 187.5625 156.06868Q187.95312 155.44368 187.96875 154.11555L187.96875 152.3343ZM196.29688 157.4593L190.70312 157.4593L190.70312 156.67805L193.65625 153.3968Q194.3125 152.6468 194.5625 152.19368Q194.8125 151.72493 194.8125 151.22493Q194.8125 150.55305 194.40625 150.13118Q194.01562 149.69368 193.32812 149.69368Q192.53125 149.69368 192.07812 150.16243Q191.625 150.61555 191.625 151.44368L190.54688 151.44368Q190.54688 150.25618 191.29688 149.53743Q192.0625 148.80305 193.32812 148.80305Q194.53125 148.80305 195.21875 149.42805Q195.90625 150.05305 195.90625 151.09993Q195.90625 152.34993 194.29688 154.09993L192.01562 156.56868L196.29688 156.56868L196.29688 157.4593ZM197.60938 150.56868Q197.60938 149.80305 198.09375 149.30305Q198.59375 148.80305 199.35938 148.80305Q200.14062 148.80305 200.625 149.30305Q201.10938 149.80305 201.10938 150.59993L201.10938 151.0218Q201.10938 151.78743 200.60938 152.28743Q200.125 152.7718 199.375 152.7718Q198.60938 152.7718 198.10938 152.28743Q197.60938 151.78743 197.60938 150.97493L197.60938 150.56868ZM198.42188 151.0218Q198.42188 151.47493 198.67188 151.7718Q198.9375 152.06868 199.375 152.06868Q199.79688 152.06868 200.04688 151.78743Q200.29688 151.49055 200.29688 150.99055L200.29688 150.56868Q200.29688 150.11555 200.04688 149.81868Q199.79688 149.50618 199.35938 149.50618Q198.92188 149.50618 198.67188 149.81868Q198.42188 150.11555 198.42188 150.5843L198.42188 151.0218ZM201.76562 155.36555Q201.76562 154.59993 202.25 154.11555Q202.75 153.61555 203.51562 153.61555Q204.28125 153.61555 204.76562 154.11555Q205.26562 154.59993 205.26562 155.41243L205.26562 155.81868Q205.26562 156.5843 204.78125 157.0843Q204.29688 157.5843 203.53125 157.5843Q202.76562 157.5843 202.26562 157.09993Q201.76562 156.59993 201.76562 155.78743L201.76562 155.36555ZM202.57812 155.81868Q202.57812 156.28743 202.82812 156.5843Q203.09375 156.88118 203.53125 156.88118Q203.95312 156.88118 204.20312 156.59993Q204.45312 156.30305 204.45312 155.80305L204.45312 155.36555Q204.45312 154.8968 204.1875 154.61555Q203.9375 154.31868 203.51562 154.31868Q203.09375 154.31868 202.82812 154.61555Q202.57812 154.8968 202.57812 155.3968L202.57812 155.81868ZM199.625 156.81868L199.0 156.42805L203.17188 149.75618L203.78125 150.1468L199.625 156.81868Z" fill-rule="nonzero"/><path fill="#ffffff" d="M171.89062 151.1468Q171.89062 151.78743 171.54688 152.28743Q171.20312 152.78743 170.64062 153.06868Q171.29688 153.34993 171.6875 153.91243Q172.07812 154.4593 172.07812 155.16243Q172.07812 156.25618 171.32812 156.92805Q170.59375 157.5843 169.375 157.5843Q168.14062 157.5843 167.39062 156.92805Q166.65625 156.25618 166.65625 155.16243Q166.65625 154.4593 167.03125 153.91243Q167.40625 153.34993 168.07812 153.06868Q167.51562 152.78743 167.1875 152.28743Q166.85938 151.78743 166.85938 151.1468Q166.85938 150.06868 167.54688 149.44368Q168.23438 148.80305 169.375 148.80305Q170.5 148.80305 171.1875 149.44368Q171.89062 150.06868 171.89062 151.1468ZM171.0 155.13118Q171.0 154.41243 170.54688 153.97493Q170.09375 153.5218 169.35938 153.5218Q168.625 153.5218 168.17188 153.97493Q167.73438 154.41243 167.73438 155.1468Q167.73438 155.86555 168.17188 156.28743Q168.60938 156.69368 169.375 156.69368Q170.125 156.69368 170.5625 156.2718Q171.0 155.84993 171.0 155.13118ZM169.375 149.69368Q168.73438 149.69368 168.32812 150.09993Q167.9375 150.49055 167.9375 151.17805Q167.9375 151.81868 168.32812 152.22493Q168.71875 152.63118 169.35938 152.63118Q170.01562 152.63118 170.40625 152.22493Q170.79688 151.81868 170.79688 151.17805Q170.79688 150.5218 170.39062 150.11555Q169.98438 149.69368 169.375 149.69368ZM174.20312 153.17805L174.64062 148.92805L179.01562 148.92805L179.01562 149.92805L175.5625 149.92805L175.29688 152.25618Q175.9375 151.88118 176.73438 151.88118Q177.89062 151.88118 178.57812 152.66243Q179.26562 153.42805 179.26562 154.74055Q179.26562 156.05305 178.54688 156.81868Q177.84375 157.5843 176.5625 157.5843Q175.4375 157.5843 174.71875 156.9593Q174.0 156.31868 173.90625 155.2093L174.92188 155.2093Q175.03125 155.94368 175.45312 156.31868Q175.875 156.69368 176.5625 156.69368Q177.3125 156.69368 177.75 156.17805Q178.1875 155.66243 178.1875 154.75618Q178.1875 153.8968 177.71875 153.38118Q177.25 152.86555 176.46875 152.86555Q175.76562 152.86555 175.35938 153.16243L175.07812 153.3968L174.20312 153.17805ZM180.84375 156.8968Q180.84375 156.61555 181.0 156.42805Q181.17188 156.24055 181.5 156.24055Q181.84375 156.24055 182.01562 156.42805Q182.1875 156.61555 182.1875 156.8968Q182.1875 157.16243 182.01562 157.34993Q181.84375 157.5218 181.5 157.5218Q181.17188 157.5218 181.0 157.34993Q180.84375 157.16243 180.84375 156.8968ZM189.0625 153.81868Q189.0625 155.72493 188.40625 156.66243Q187.76562 157.5843 186.375 157.5843Q185.01562 157.5843 184.35938 156.67805Q183.70312 155.7718 183.67188 153.9593L183.67188 152.5218Q183.67188 150.63118 184.3125 149.72493Q184.96875 148.80305 186.35938 148.80305Q187.73438 148.80305 188.39062 149.69368Q189.04688 150.56868 189.0625 152.41243L189.0625 153.81868ZM187.96875 152.3343Q187.96875 150.9593 187.57812 150.3343Q187.20312 149.69368 186.35938 149.69368Q185.53125 149.69368 185.14062 150.3343Q184.76562 150.9593 184.76562 152.25618L184.76562 153.99055Q184.76562 155.36555 185.15625 156.03743Q185.5625 156.69368 186.375 156.69368Q187.17188 156.69368 187.5625 156.06868Q187.95312 155.44368 187.96875 154.11555L187.96875 152.3343ZM196.29688 157.4593L190.70312 157.4593L190.70312 156.67805L193.65625 153.3968Q194.3125 152.6468 194.5625 152.19368Q194.8125 151.72493 194.8125 151.22493Q194.8125 150.55305 194.40625 150.13118Q194.01562 149.69368 193.32812 149.69368Q192.53125 149.69368 192.07812 150.16243Q191.625 150.61555 191.625 151.44368L190.54688 151.44368Q190.54688 150.25618 191.29688 149.53743Q192.0625 148.80305 193.32812 148.80305Q194.53125 148.80305 195.21875 149.42805Q195.90625 150.05305 195.90625 151.09993Q195.90625 152.34993 194.29688 154.09993L192.01562 156.56868L196.29688 156.56868L196.29688 157.4593ZM197.60938 150.56868Q197.60938 149.80305 198.09375 149.30305Q198.59375 148.80305 199.35938 148.80305Q200.14062 148.80305 200.625 149.30305Q201.10938 149.80305 201.10938 150.59993L201.10938 151.0218Q201.10938 151.78743 200.60938 152.28743Q200.125 152.7718 199.375 152.7718Q198.60938 152.7718 198.10938 152.28743Q197.60938 151.78743 197.60938 150.97493L197.60938 150.56868ZM198.42188 151.0218Q198.42188 151.47493 198.67188 151.7718Q198.9375 152.06868 199.375 152.06868Q199.79688 152.06868 200.04688 151.78743Q200.29688 151.49055 200.29688 150.99055L200.29688 150.56868Q200.29688 150.11555 200.04688 149.81868Q199.79688 149.50618 199.35938 149.50618Q198.92188 149.50618 198.67188 149.81868Q198.42188 150.11555 198.42188 150.5843L198.42188 151.0218ZM201.76562 155.36555Q201.76562 154.59993 202.25 154.11555Q202.75 153.61555 203.51562 153.61555Q204.28125 153.61555 204.76562 154.11555Q205.26562 154.59993 205.26562 155.41243L205.26562 155.81868Q205.26562 156.5843 204.78125 157.0843Q204.29688 157.5843 203.53125 157.5843Q202.76562 157.5843 202.26562 157.09993Q201.76562 156.59993 201.76562 155.78743L201.76562 155.36555ZM202.57812 155.81868Q202.57812 156.28743 202.82812 156.5843Q203.09375 156.88118 203.53125 156.88118Q203.95312 156.88118 204.20312 156.59993Q204.45312 156.30305 204.45312 155.80305L204.45312 155.36555Q204.45312 154.8968 204.1875 154.61555Q203.9375 154.31868 203.51562 154.31868Q203.09375 154.31868 202.82812 154.61555Q202.57812 154.8968 202.57812 155.3968L202.57812 155.81868ZM199.625 156.81868L199.0 156.42805L203.17188 149.75618L203.78125 150.1468L199.625 156.81868Z" fill-rule="nonzero"/><path stroke="#3c78d8" stroke-width="3.0" stroke-linejoin="round" stroke-linecap="round" d="M331.46875 483.11227L331.46875 484.01852L331.26562 484.01852Q330.0 484.04977 329.25 484.78415Q328.5 485.5029 328.375 486.8154Q329.0625 486.04977 330.21875 486.04977Q331.32812 486.04977 332.0 486.83102Q332.67188 487.61227 332.67188 488.86227Q332.67188 490.17477 331.95312 490.97165Q331.23438 491.76852 330.01562 491.76852Q328.79688 491.76852 328.03125 490.83102Q327.28125 489.8779 327.28125 488.39352L327.28125 487.98727Q327.28125 485.6279 328.28125 484.3779Q329.28125 483.1279 331.26562 483.11227L331.46875 483.11227ZM330.04688 486.95602Q329.48438 486.95602 329.01562 487.28415Q328.54688 487.61227 328.35938 488.1279L328.35938 488.51852Q328.35938 489.58102 328.82812 490.22165Q329.3125 490.86227 330.01562 490.86227Q330.75 490.86227 331.17188 490.33102Q331.59375 489.78415 331.59375 488.90915Q331.59375 488.03415 331.17188 487.5029Q330.75 486.95602 330.04688 486.95602ZM334.34375 491.08102Q334.34375 490.79977 334.5 490.61227Q334.67188 490.42477 335.0 490.42477Q335.34375 490.42477 335.51562 490.61227Q335.6875 490.79977 335.6875 491.08102Q335.6875 491.34665 335.51562 491.53415Q335.34375 491.70602 335.0 491.70602Q334.67188 491.70602 334.5 491.53415Q334.34375 491.34665 334.34375 491.08102ZM342.5625 488.0029Q342.5625 489.90915 341.90625 490.84665Q341.26562 491.76852 339.875 491.76852Q338.51562 491.76852 337.85938 490.86227Q337.20312 489.95602 337.17188 488.14352L337.17188 486.70602Q337.17188 484.8154 337.8125 483.90915Q338.46875 482.98727 339.85938 482.98727Q341.23438 482.98727 341.89062 483.8779Q342.54688 484.7529 342.5625 486.59665L342.5625 488.0029ZM341.46875 486.51852Q341.46875 485.14352 341.07812 484.51852Q340.70312 483.8779 339.85938 483.8779Q339.03125 483.8779 338.64062 484.51852Q338.26562 485.14352 338.26562 486.4404L338.26562 488.17477Q338.26562 489.54977 338.65625 490.22165Q339.0625 490.8779 339.875 490.8779Q340.67188 490.8779 341.0625 490.2529Q341.45312 489.6279 341.46875 488.29977L341.46875 486.51852ZM349.71875 483.72165L346.1875 491.64352L345.04688 491.64352L348.5625 484.0029L343.95312 484.0029L343.95312 483.11227L349.71875 483.11227L349.71875 483.72165ZM351.10938 484.7529Q351.10938 483.98727 351.59375 483.48727Q352.09375 482.98727 352.85938 482.98727Q353.64062 482.98727 354.125 483.48727Q354.60938 483.98727 354.60938 484.78415L354.60938 485.20602Q354.60938 485.97165 354.10938 486.47165Q353.625 486.95602 352.875 486.95602Q352.10938 486.95602 351.60938 486.47165Q351.10938 485.97165 351.10938 485.15915L351.10938 484.7529ZM351.92188 485.20602Q351.92188 485.65915 352.17188 485.95602Q352.4375 486.2529 352.875 486.2529Q353.29688 486.2529 353.54688 485.97165Q353.79688 485.67477 353.79688 485.17477L353.79688 484.7529Q353.79688 484.29977 353.54688 484.0029Q353.29688 483.6904 352.85938 483.6904Q352.42188 483.6904 352.17188 484.0029Q351.92188 484.29977 351.92188 484.76852L351.92188 485.20602ZM355.26562 489.54977Q355.26562 488.78415 355.75 488.29977Q356.25 487.79977 357.01562 487.79977Q357.78125 487.79977 358.26562 488.29977Q358.76562 488.78415 358.76562 489.59665L358.76562 490.0029Q358.76562 490.76852 358.28125 491.26852Q357.79688 491.76852 357.03125 491.76852Q356.26562 491.76852 355.76562 491.28415Q355.26562 490.78415 355.26562 489.97165L355.26562 489.54977ZM356.07812 490.0029Q356.07812 490.47165 356.32812 490.76852Q356.59375 491.0654 357.03125 491.0654Q357.45312 491.0654 357.70312 490.78415Q357.95312 490.48727 357.95312 489.98727L357.95312 489.54977Q357.95312 489.08102 357.6875 488.79977Q357.4375 488.5029 357.01562 488.5029Q356.59375 488.5029 356.32812 488.79977Q356.07812 489.08102 356.07812 489.58102L356.07812 490.0029ZM353.125 491.0029L352.5 490.61227L356.67188 483.9404L357.28125 484.33102L353.125 491.0029Z" fill-rule="nonzero"/><path fill="#ffffff" d="M331.46875 483.11227L331.46875 484.01852L331.26562 484.01852Q330.0 484.04977 329.25 484.78415Q328.5 485.5029 328.375 486.8154Q329.0625 486.04977 330.21875 486.04977Q331.32812 486.04977 332.0 486.83102Q332.67188 487.61227 332.67188 488.86227Q332.67188 490.17477 331.95312 490.97165Q331.23438 491.76852 330.01562 491.76852Q328.79688 491.76852 328.03125 490.83102Q327.28125 489.8779 327.28125 488.39352L327.28125 487.98727Q327.28125 485.6279 328.28125 484.3779Q329.28125 483.1279 331.26562 483.11227L331.46875 483.11227ZM330.04688 486.95602Q329.48438 486.95602 329.01562 487.28415Q328.54688 487.61227 328.35938 488.1279L328.35938 488.51852Q328.35938 489.58102 328.82812 490.22165Q329.3125 490.86227 330.01562 490.86227Q330.75 490.86227 331.17188 490.33102Q331.59375 489.78415 331.59375 488.90915Q331.59375 488.03415 331.17188 487.5029Q330.75 486.95602 330.04688 486.95602ZM334.34375 491.08102Q334.34375 490.79977 334.5 490.61227Q334.67188 490.42477 335.0 490.42477Q335.34375 490.42477 335.51562 490.61227Q335.6875 490.79977 335.6875 491.08102Q335.6875 491.34665 335.51562 491.53415Q335.34375 491.70602 335.0 491.70602Q334.67188 491.70602 334.5 491.53415Q334.34375 491.34665 334.34375 491.08102ZM342.5625 488.0029Q342.5625 489.90915 341.90625 490.84665Q341.26562 491.76852 339.875 491.76852Q338.51562 491.76852 337.85938 490.86227Q337.20312 489.95602 337.17188 488.14352L337.17188 486.70602Q337.17188 484.8154 337.8125 483.90915Q338.46875 482.98727 339.85938 482.98727Q341.23438 482.98727 341.89062 483.8779Q342.54688 484.7529 342.5625 486.59665L342.5625 488.0029ZM341.46875 486.51852Q341.46875 485.14352 341.07812 484.51852Q340.70312 483.8779 339.85938 483.8779Q339.03125 483.8779 338.64062 484.51852Q338.26562 485.14352 338.26562 486.4404L338.26562 488.17477Q338.26562 489.54977 338.65625 490.22165Q339.0625 490.8779 339.875 490.8779Q340.67188 490.8779 341.0625 490.2529Q341.45312 489.6279 341.46875 488.29977L341.46875 486.51852ZM349.71875 483.72165L346.1875 491.64352L345.04688 491.64352L348.5625 484.0029L343.95312 484.0029L343.95312 483.11227L349.71875 483.11227L349.71875 483.72165ZM351.10938 484.7529Q351.10938 483.98727 351.59375 483.48727Q352.09375 482.98727 352.85938 482.98727Q353.64062 482.98727 354.125 483.48727Q354.60938 483.98727 354.60938 484.78415L354.60938 485.20602Q354.60938 485.97165 354.10938 486.47165Q353.625 486.95602 352.875 486.95602Q352.10938 486.95602 351.60938 486.47165Q351.10938 485.97165 351.10938 485.15915L351.10938 484.7529ZM351.92188 485.20602Q351.92188 485.65915 352.17188 485.95602Q352.4375 486.2529 352.875 486.2529Q353.29688 486.2529 353.54688 485.97165Q353.79688 485.67477 353.79688 485.17477L353.79688 484.7529Q353.79688 484.29977 353.54688 484.0029Q353.29688 483.6904 352.85938 483.6904Q352.42188 483.6904 352.17188 484.0029Q351.92188 484.29977 351.92188 484.76852L351.92188 485.20602ZM355.26562 489.54977Q355.26562 488.78415 355.75 488.29977Q356.25 487.79977 357.01562 487.79977Q357.78125 487.79977 358.26562 488.29977Q358.76562 488.78415 358.76562 489.59665L358.76562 490.0029Q358.76562 490.76852 358.28125 491.26852Q357.79688 491.76852 357.03125 491.76852Q356.26562 491.76852 355.76562 491.28415Q355.26562 490.78415 355.26562 489.97165L355.26562 489.54977ZM356.07812 490.0029Q356.07812 490.47165 356.32812 490.76852Q356.59375 491.0654 357.03125 491.0654Q357.45312 491.0654 357.70312 490.78415Q357.95312 490.48727 357.95312 489.98727L357.95312 489.54977Q357.95312 489.08102 357.6875 488.79977Q357.4375 488.5029 357.01562 488.5029Q356.59375 488.5029 356.32812 488.79977Q356.07812 489.08102 356.07812 489.58102L356.07812 490.0029ZM353.125 491.0029L352.5 490.61227L356.67188 483.9404L357.28125 484.33102L353.125 491.0029Z" fill-rule="nonzero"/><path stroke="#3c78d8" stroke-width="3.0" stroke-linejoin="round" stroke-linecap="round" d="M484.70312 489.62927L485.14062 485.37927L489.51562 485.37927L489.51562 486.37927L486.0625 486.37927L485.79688 488.7074Q486.4375 488.3324 487.23438 488.3324Q488.39062 488.3324 489.07812 489.11365Q489.76562 489.87927 489.76562 491.19177Q489.76562 492.50427 489.04688 493.2699Q488.34375 494.03552 487.0625 494.03552Q485.9375 494.03552 485.21875 493.41052Q484.5 492.7699 484.40625 491.66052L485.42188 491.66052Q485.53125 492.3949 485.95312 492.7699Q486.375 493.1449 487.0625 493.1449Q487.8125 493.1449 488.25 492.62927Q488.6875 492.11365 488.6875 491.2074Q488.6875 490.34802 488.21875 489.8324Q487.75 489.31677 486.96875 489.31677Q486.26562 489.31677 485.85938 489.61365L485.57812 489.84802L484.70312 489.62927ZM491.34375 493.34802Q491.34375 493.06677 491.5 492.87927Q491.67188 492.69177 492.0 492.69177Q492.34375 492.69177 492.51562 492.87927Q492.6875 493.06677 492.6875 493.34802Q492.6875 493.61365 492.51562 493.80115Q492.34375 493.97302 492.0 493.97302Q491.67188 493.97302 491.5 493.80115Q491.34375 493.61365 491.34375 493.34802ZM499.79688 493.91052L494.20312 493.91052L494.20312 493.12927L497.15625 489.84802Q497.8125 489.09802 498.0625 488.6449Q498.3125 488.17615 498.3125 487.67615Q498.3125 487.00427 497.90625 486.5824Q497.51562 486.1449 496.82812 486.1449Q496.03125 486.1449 495.57812 486.61365Q495.125 487.06677 495.125 487.8949L494.04688 487.8949Q494.04688 486.7074 494.79688 485.98865Q495.5625 485.25427 496.82812 485.25427Q498.03125 485.25427 498.71875 485.87927Q499.40625 486.50427 499.40625 487.55115Q499.40625 488.80115 497.79688 490.55115L495.51562 493.0199L499.79688 493.0199L499.79688 493.91052ZM505.46875 485.37927L505.46875 486.28552L505.26562 486.28552Q504.0 486.31677 503.25 487.05115Q502.5 487.7699 502.375 489.0824Q503.0625 488.31677 504.21875 488.31677Q505.32812 488.31677 506.0 489.09802Q506.67188 489.87927 506.67188 491.12927Q506.67188 492.44177 505.95312 493.23865Q505.23438 494.03552 504.01562 494.03552Q502.79688 494.03552 502.03125 493.09802Q501.28125 492.1449 501.28125 490.66052L501.28125 490.25427Q501.28125 487.8949 502.28125 486.6449Q503.28125 485.3949 505.26562 485.37927L505.46875 485.37927ZM504.04688 489.22302Q503.48438 489.22302 503.01562 489.55115Q502.54688 489.87927 502.35938 490.3949L502.35938 490.78552Q502.35938 491.84802 502.82812 492.48865Q503.3125 493.12927 504.01562 493.12927Q504.75 493.12927 505.17188 492.59802Q505.59375 492.05115 505.59375 491.17615Q505.59375 490.30115 505.17188 489.7699Q504.75 489.22302 504.04688 489.22302ZM508.10938 487.0199Q508.10938 486.25427 508.59375 485.75427Q509.09375 485.25427 509.85938 485.25427Q510.64062 485.25427 511.125 485.75427Q511.60938 486.25427 511.60938 487.05115L511.60938 487.47302Q511.60938 488.23865 511.10938 488.73865Q510.625 489.22302 509.875 489.22302Q509.10938 489.22302 508.60938 488.73865Q508.10938 488.23865 508.10938 487.42615L508.10938 487.0199ZM508.92188 487.47302Q508.92188 487.92615 509.17188 488.22302Q509.4375 488.5199 509.875 488.5199Q510.29688 488.5199 510.54688 488.23865Q510.79688 487.94177 510.79688 487.44177L510.79688 487.0199Q510.79688 486.56677 510.54688 486.2699Q510.29688 485.9574 509.85938 485.9574Q509.42188 485.9574 509.17188 486.2699Q508.92188 486.56677 508.92188 487.03552L508.92188 487.47302ZM512.2656 491.81677Q512.2656 491.05115 512.75 490.56677Q513.25 490.06677 514.0156 490.06677Q514.78125 490.06677 515.2656 490.56677Q515.7656 491.05115 515.7656 491.86365L515.7656 492.2699Q515.7656 493.03552 515.28125 493.53552Q514.7969 494.03552 514.03125 494.03552Q513.2656 494.03552 512.7656 493.55115Q512.2656 493.05115 512.2656 492.23865L512.2656 491.81677ZM513.0781 492.2699Q513.0781 492.73865 513.3281 493.03552Q513.59375 493.3324 514.03125 493.3324Q514.4531 493.3324 514.7031 493.05115Q514.9531 492.75427 514.9531 492.25427L514.9531 491.81677Q514.9531 491.34802 514.6875 491.06677Q514.4375 490.7699 514.0156 490.7699Q513.59375 490.7699 513.3281 491.06677Q513.0781 491.34802 513.0781 491.84802L513.0781 492.2699ZM510.125 493.2699L509.5 492.87927L513.6719 486.2074L514.28125 486.59802L510.125 493.2699Z" fill-rule="nonzero"/><path fill="#ffffff" d="M484.70312 489.62927L485.14062 485.37927L489.51562 485.37927L489.51562 486.37927L486.0625 486.37927L485.79688 488.7074Q486.4375 488.3324 487.23438 488.3324Q488.39062 488.3324 489.07812 489.11365Q489.76562 489.87927 489.76562 491.19177Q489.76562 492.50427 489.04688 493.2699Q488.34375 494.03552 487.0625 494.03552Q485.9375 494.03552 485.21875 493.41052Q484.5 492.7699 484.40625 491.66052L485.42188 491.66052Q485.53125 492.3949 485.95312 492.7699Q486.375 493.1449 487.0625 493.1449Q487.8125 493.1449 488.25 492.62927Q488.6875 492.11365 488.6875 491.2074Q488.6875 490.34802 488.21875 489.8324Q487.75 489.31677 486.96875 489.31677Q486.26562 489.31677 485.85938 489.61365L485.57812 489.84802L484.70312 489.62927ZM491.34375 493.34802Q491.34375 493.06677 491.5 492.87927Q491.67188 492.69177 492.0 492.69177Q492.34375 492.69177 492.51562 492.87927Q492.6875 493.06677 492.6875 493.34802Q492.6875 493.61365 492.51562 493.80115Q492.34375 493.97302 492.0 493.97302Q491.67188 493.97302 491.5 493.80115Q491.34375 493.61365 491.34375 493.34802ZM499.79688 493.91052L494.20312 493.91052L494.20312 493.12927L497.15625 489.84802Q497.8125 489.09802 498.0625 488.6449Q498.3125 488.17615 498.3125 487.67615Q498.3125 487.00427 497.90625 486.5824Q497.51562 486.1449 496.82812 486.1449Q496.03125 486.1449 495.57812 486.61365Q495.125 487.06677 495.125 487.8949L494.04688 487.8949Q494.04688 486.7074 494.79688 485.98865Q495.5625 485.25427 496.82812 485.25427Q498.03125 485.25427 498.71875 485.87927Q499.40625 486.50427 499.40625 487.55115Q499.40625 488.80115 497.79688 490.55115L495.51562 493.0199L499.79688 493.0199L499.79688 493.91052ZM505.46875 485.37927L505.46875 486.28552L505.26562 486.28552Q504.0 486.31677 503.25 487.05115Q502.5 487.7699 502.375 489.0824Q503.0625 488.31677 504.21875 488.31677Q505.32812 488.31677 506.0 489.09802Q506.67188 489.87927 506.67188 491.12927Q506.67188 492.44177 505.95312 493.23865Q505.23438 494.03552 504.01562 494.03552Q502.79688 494.03552 502.03125 493.09802Q501.28125 492.1449 501.28125 490.66052L501.28125 490.25427Q501.28125 487.8949 502.28125 486.6449Q503.28125 485.3949 505.26562 485.37927L505.46875 485.37927ZM504.04688 489.22302Q503.48438 489.22302 503.01562 489.55115Q502.54688 489.87927 502.35938 490.3949L502.35938 490.78552Q502.35938 491.84802 502.82812 492.48865Q503.3125 493.12927 504.01562 493.12927Q504.75 493.12927 505.17188 492.59802Q505.59375 492.05115 505.59375 491.17615Q505.59375 490.30115 505.17188 489.7699Q504.75 489.22302 504.04688 489.22302ZM508.10938 487.0199Q508.10938 486.25427 508.59375 485.75427Q509.09375 485.25427 509.85938 485.25427Q510.64062 485.25427 511.125 485.75427Q511.60938 486.25427 511.60938 487.05115L511.60938 487.47302Q511.60938 488.23865 511.10938 488.73865Q510.625 489.22302 509.875 489.22302Q509.10938 489.22302 508.60938 488.73865Q508.10938 488.23865 508.10938 487.42615L508.10938 487.0199ZM508.92188 487.47302Q508.92188 487.92615 509.17188 488.22302Q509.4375 488.5199 509.875 488.5199Q510.29688 488.5199 510.54688 488.23865Q510.79688 487.94177 510.79688 487.44177L510.79688 487.0199Q510.79688 486.56677 510.54688 486.2699Q510.29688 485.9574 509.85938 485.9574Q509.42188 485.9574 509.17188 486.2699Q508.92188 486.56677 508.92188 487.03552L508.92188 487.47302ZM512.2656 491.81677Q512.2656 491.05115 512.75 490.56677Q513.25 490.06677 514.0156 490.06677Q514.78125 490.06677 515.2656 490.56677Q515.7656 491.05115 515.7656 491.86365L515.7656 492.2699Q515.7656 493.03552 515.28125 493.53552Q514.7969 494.03552 514.03125 494.03552Q513.2656 494.03552 512.7656 493.55115Q512.2656 493.05115 512.2656 492.23865L512.2656 491.81677ZM513.0781 492.2699Q513.0781 492.73865 513.3281 493.03552Q513.59375 493.3324 514.03125 493.3324Q514.4531 493.3324 514.7031 493.05115Q514.9531 492.75427 514.9531 492.25427L514.9531 491.81677Q514.9531 491.34802 514.6875 491.06677Q514.4375 490.7699 514.0156 490.7699Q513.59375 490.7699 513.3281 491.06677Q513.0781 491.34802 513.0781 491.84802L513.0781 492.2699ZM510.125 493.2699L509.5 492.87927L513.6719 486.2074L514.28125 486.59802L510.125 493.2699Z" fill-rule="nonzero"/><path stroke="#ffffff" stroke-width="3.0" stroke-linejoin="round" stroke-linecap="round" d="M642.78125 465.32922L643.59375 465.32922Q644.375 465.3136 644.8125 464.92297Q645.25 464.53235 645.25 463.86047Q645.25 462.36047 643.75 462.36047Q643.0469 462.36047 642.625 462.76672Q642.21875 463.17297 642.21875 463.82922L641.125 463.82922Q641.125 462.8136 641.8594 462.14172Q642.6094 461.46985 643.75 461.46985Q644.9531 461.46985 645.6406 462.11047Q646.3281 462.7511 646.3281 463.89172Q646.3281 464.45422 645.96875 464.96985Q645.6094 465.48547 644.9844 465.7511Q645.6875 465.96985 646.0625 466.48547Q646.4531 467.0011 646.4531 467.7511Q646.4531 468.89172 645.7031 469.57922Q644.9531 470.2511 643.75 470.2511Q642.5625 470.2511 641.7969 469.59485Q641.0469 468.9386 641.0469 467.8761L642.1406 467.8761Q642.1406 468.54797 642.5781 468.95422Q643.0156 469.36047 643.7656 469.36047Q644.5469 469.36047 644.9531 468.95422Q645.375 468.53235 645.375 467.76672Q645.375 467.03235 644.9219 466.64172Q644.46875 466.23547 643.59375 466.21985L642.78125 466.21985L642.78125 465.32922ZM648.34375 469.5636Q648.34375 469.28235 648.5 469.09485Q648.6719 468.90735 649.0 468.90735Q649.34375 468.90735 649.5156 469.09485Q649.6875 469.28235 649.6875 469.5636Q649.6875 469.82922 649.5156 470.01672Q649.34375 470.1886 649.0 470.1886Q648.6719 470.1886 648.5 470.01672Q648.34375 469.82922 648.34375 469.5636ZM655.46875 461.59485L655.46875 462.5011L655.2656 462.5011Q654.0 462.53235 653.25 463.26672Q652.5 463.98547 652.375 465.29797Q653.0625 464.53235 654.21875 464.53235Q655.3281 464.53235 656.0 465.3136Q656.6719 466.09485 656.6719 467.34485Q656.6719 468.65735 655.9531 469.45422Q655.2344 470.2511 654.0156 470.2511Q652.7969 470.2511 652.03125 469.3136Q651.28125 468.36047 651.28125 466.8761L651.28125 466.46985Q651.28125 464.11047 652.28125 462.86047Q653.28125 461.61047 655.2656 461.59485L655.46875 461.59485ZM654.0469 465.4386Q653.4844 465.4386 653.0156 465.76672Q652.5469 466.09485 652.3594 466.61047L652.3594 467.0011Q652.3594 468.0636 652.8281 468.70422Q653.3125 469.34485 654.0156 469.34485Q654.75 469.34485 655.1719 468.8136Q655.59375 468.26672 655.59375 467.39172Q655.59375 466.51672 655.1719 465.98547Q654.75 465.4386 654.0469 465.4386ZM662.78125 467.26672L663.96875 467.26672L663.96875 468.14172L662.78125 468.14172L662.78125 470.1261L661.7031 470.1261L661.7031 468.14172L657.8125 468.14172L657.8125 467.5011L661.625 461.59485L662.78125 461.59485L662.78125 467.26672ZM659.0469 467.26672L661.7031 467.26672L661.7031 463.07922L661.5625 463.3136L659.0469 467.26672ZM665.1094 463.23547Q665.1094 462.46985 665.59375 461.96985Q666.09375 461.46985 666.8594 461.46985Q667.6406 461.46985 668.125 461.96985Q668.6094 462.46985 668.6094 463.26672L668.6094 463.6886Q668.6094 464.45422 668.1094 464.95422Q667.625 465.4386 666.875 465.4386Q666.1094 465.4386 665.6094 464.95422Q665.1094 464.45422 665.1094 463.64172L665.1094 463.23547ZM665.9219 463.6886Q665.9219 464.14172 666.1719 464.4386Q666.4375 464.73547 666.875 464.73547Q667.2969 464.73547 667.5469 464.45422Q667.7969 464.15735 667.7969 463.65735L667.7969 463.23547Q667.7969 462.78235 667.5469 462.48547Q667.2969 462.17297 666.8594 462.17297Q666.4219 462.17297 666.1719 462.48547Q665.9219 462.78235 665.9219 463.2511L665.9219 463.6886ZM669.2656 468.03235Q669.2656 467.26672 669.75 466.78235Q670.25 466.28235 671.0156 466.28235Q671.78125 466.28235 672.2656 466.78235Q672.7656 467.26672 672.7656 468.07922L672.7656 468.48547Q672.7656 469.2511 672.28125 469.7511Q671.7969 470.2511 671.03125 470.2511Q670.2656 470.2511 669.7656 469.76672Q669.2656 469.26672 669.2656 468.45422L669.2656 468.03235ZM670.0781 468.48547Q670.0781 468.95422 670.3281 469.2511Q670.59375 469.54797 671.03125 469.54797Q671.4531 469.54797 671.7031 469.26672Q671.9531 468.96985 671.9531 468.46985L671.9531 468.03235Q671.9531 467.5636 671.6875 467.28235Q671.4375 466.98547 671.0156 466.98547Q670.59375 466.98547 670.3281 467.28235Q670.0781 467.5636 670.0781 468.0636L670.0781 468.48547ZM667.125 469.48547L666.5 469.09485L670.6719 462.42297L671.28125 462.8136L667.125 469.48547Z" fill-rule="nonzero"/><path fill="#3c78d8" d="M642.78125 465.32922L643.59375 465.32922Q644.375 465.3136 644.8125 464.92297Q645.25 464.53235 645.25 463.86047Q645.25 462.36047 643.75 462.36047Q643.0469 462.36047 642.625 462.76672Q642.21875 463.17297 642.21875 463.82922L641.125 463.82922Q641.125 462.8136 641.8594 462.14172Q642.6094 461.46985 643.75 461.46985Q644.9531 461.46985 645.6406 462.11047Q646.3281 462.7511 646.3281 463.89172Q646.3281 464.45422 645.96875 464.96985Q645.6094 465.48547 644.9844 465.7511Q645.6875 465.96985 646.0625 466.48547Q646.4531 467.0011 646.4531 467.7511Q646.4531 468.89172 645.7031 469.57922Q644.9531 470.2511 643.75 470.2511Q642.5625 470.2511 641.7969 469.59485Q641.0469 468.9386 641.0469 467.8761L642.1406 467.8761Q642.1406 468.54797 642.5781 468.95422Q643.0156 469.36047 643.7656 469.36047Q644.5469 469.36047 644.9531 468.95422Q645.375 468.53235 645.375 467.76672Q645.375 467.03235 644.9219 466.64172Q644.46875 466.23547 643.59375 466.21985L642.78125 466.21985L642.78125 465.32922ZM648.34375 469.5636Q648.34375 469.28235 648.5 469.09485Q648.6719 468.90735 649.0 468.90735Q649.34375 468.90735 649.5156 469.09485Q649.6875 469.28235 649.6875 469.5636Q649.6875 469.82922 649.5156 470.01672Q649.34375 470.1886 649.0 470.1886Q648.6719 470.1886 648.5 470.01672Q648.34375 469.82922 648.34375 469.5636ZM655.46875 461.59485L655.46875 462.5011L655.2656 462.5011Q654.0 462.53235 653.25 463.26672Q652.5 463.98547 652.375 465.29797Q653.0625 464.53235 654.21875 464.53235Q655.3281 464.53235 656.0 465.3136Q656.6719 466.09485 656.6719 467.34485Q656.6719 468.65735 655.9531 469.45422Q655.2344 470.2511 654.0156 470.2511Q652.7969 470.2511 652.03125 469.3136Q651.28125 468.36047 651.28125 466.8761L651.28125 466.46985Q651.28125 464.11047 652.28125 462.86047Q653.28125 461.61047 655.2656 461.59485L655.46875 461.59485ZM654.0469 465.4386Q653.4844 465.4386 653.0156 465.76672Q652.5469 466.09485 652.3594 466.61047L652.3594 467.0011Q652.3594 468.0636 652.8281 468.70422Q653.3125 469.34485 654.0156 469.34485Q654.75 469.34485 655.1719 468.8136Q655.59375 468.26672 655.59375 467.39172Q655.59375 466.51672 655.1719 465.98547Q654.75 465.4386 654.0469 465.4386ZM662.78125 467.26672L663.96875 467.26672L663.96875 468.14172L662.78125 468.14172L662.78125 470.1261L661.7031 470.1261L661.7031 468.14172L657.8125 468.14172L657.8125 467.5011L661.625 461.59485L662.78125 461.59485L662.78125 467.26672ZM659.0469 467.26672L661.7031 467.26672L661.7031 463.07922L661.5625 463.3136L659.0469 467.26672ZM665.1094 463.23547Q665.1094 462.46985 665.59375 461.96985Q666.09375 461.46985 666.8594 461.46985Q667.6406 461.46985 668.125 461.96985Q668.6094 462.46985 668.6094 463.26672L668.6094 463.6886Q668.6094 464.45422 668.1094 464.95422Q667.625 465.4386 666.875 465.4386Q666.1094 465.4386 665.6094 464.95422Q665.1094 464.45422 665.1094 463.64172L665.1094 463.23547ZM665.9219 463.6886Q665.9219 464.14172 666.1719 464.4386Q666.4375 464.73547 666.875 464.73547Q667.2969 464.73547 667.5469 464.45422Q667.7969 464.15735 667.7969 463.65735L667.7969 463.23547Q667.7969 462.78235 667.5469 462.48547Q667.2969 462.17297 666.8594 462.17297Q666.4219 462.17297 666.1719 462.48547Q665.9219 462.78235 665.9219 463.2511L665.9219 463.6886ZM669.2656 468.03235Q669.2656 467.26672 669.75 466.78235Q670.25 466.28235 671.0156 466.28235Q671.78125 466.28235 672.2656 466.78235Q672.7656 467.26672 672.7656 468.07922L672.7656 468.48547Q672.7656 469.2511 672.28125 469.7511Q671.7969 470.2511 671.03125 470.2511Q670.2656 470.2511 669.7656 469.76672Q669.2656 469.26672 669.2656 468.45422L669.2656 468.03235ZM670.0781 468.48547Q670.0781 468.95422 670.3281 469.2511Q670.59375 469.54797 671.03125 469.54797Q671.4531 469.54797 671.7031 469.26672Q671.9531 468.96985 671.9531 468.46985L671.9531 468.03235Q671.9531 467.5636 671.6875 467.28235Q671.4375 466.98547 671.0156 466.98547Q670.59375 466.98547 670.3281 467.28235Q670.0781 467.5636 670.0781 468.0636L670.0781 468.48547ZM667.125 469.48547L666.5 469.09485L670.6719 462.42297L671.28125 462.8136L667.125 469.48547Z" fill-rule="nonzero"/><path fill="#757575" d="M47.5125 501.40936Q47.5125 503.3156 46.85625 504.2531Q46.215626 505.175 44.825 505.175Q43.465626 505.175 42.809376 504.26874Q42.153126 503.3625 42.121876 501.55L42.121876 500.1125Q42.121876 498.22186 42.7625 497.3156Q43.41875 496.39374 44.809376 496.39374Q46.184376 496.39374 46.840626 497.28436Q47.496876 498.15936 47.5125 500.0031L47.5125 501.40936ZM46.41875 499.925Q46.41875 498.55 46.028126 497.925Q45.653126 497.28436 44.809376 497.28436Q43.98125 497.28436 43.590626 497.925Q43.215626 498.55 43.215626 499.84686L43.215626 501.58124Q43.215626 502.95624 43.60625 503.6281Q44.0125 504.28436 44.825 504.28436Q45.621876 504.28436 46.0125 503.65936Q46.403126 503.03436 46.41875 501.70624L46.41875 499.925ZM49.29375 504.4875Q49.29375 504.20624 49.45 504.01874Q49.621876 503.83124 49.95 503.83124Q50.29375 503.83124 50.465626 504.01874Q50.6375 504.20624 50.6375 504.4875Q50.6375 504.7531 50.465626 504.9406Q50.29375 505.1125 49.95 505.1125Q49.621876 505.1125 49.45 504.9406Q49.29375 504.7531 49.29375 504.4875ZM57.5125 501.40936Q57.5125 503.3156 56.85625 504.2531Q56.215626 505.175 54.825 505.175Q53.465626 505.175 52.809376 504.26874Q52.153126 503.3625 52.121876 501.55L52.121876 500.1125Q52.121876 498.22186 52.7625 497.3156Q53.41875 496.39374 54.809376 496.39374Q56.184376 496.39374 56.840626 497.28436Q57.496876 498.15936 57.5125 500.0031L57.5125 501.40936ZM56.41875 499.925Q56.41875 498.55 56.028126 497.925Q55.653126 497.28436 54.809376 497.28436Q53.98125 497.28436 53.590626 497.925Q53.215626 498.55 53.215626 499.84686L53.215626 501.58124Q53.215626 502.95624 53.60625 503.6281Q54.0125 504.28436 54.825 504.28436Q55.621876 504.28436 56.0125 503.65936Q56.403126 503.03436 56.41875 501.70624L56.41875 499.925ZM64.5125 501.40936Q64.5125 503.3156 63.85625 504.2531Q63.215626 505.175 61.825 505.175Q60.465626 505.175 59.809376 504.26874Q59.153126 503.3625 59.121876 501.55L59.121876 500.1125Q59.121876 498.22186 59.7625 497.3156Q60.41875 496.39374 61.809376 496.39374Q63.184376 496.39374 63.840626 497.28436Q64.49687 498.15936 64.5125 500.0031L64.5125 501.40936ZM63.41875 499.925Q63.41875 498.55 63.028126 497.925Q62.653126 497.28436 61.809376 497.28436Q60.98125 497.28436 60.590626 497.925Q60.215626 498.55 60.215626 499.84686L60.215626 501.58124Q60.215626 502.95624 60.60625 503.6281Q61.0125 504.28436 61.825 504.28436Q62.621876 504.28436 63.0125 503.65936Q63.403126 503.03436 63.41875 501.70624L63.41875 499.925ZM66.05937 498.15936Q66.05937 497.39374 66.54375 496.89374Q67.04375 496.39374 67.80937 496.39374Q68.59062 496.39374 69.075 496.89374Q69.55937 497.39374 69.55937 498.1906L69.55937 498.6125Q69.55937 499.3781 69.05937 499.8781Q68.575 500.3625 67.825 500.3625Q67.05937 500.3625 66.55937 499.8781Q66.05937 499.3781 66.05937 498.5656L66.05937 498.15936ZM66.87187 498.6125Q66.87187 499.0656 67.12187 499.3625Q67.3875 499.65936 67.825 499.65936Q68.24687 499.65936 68.49687 499.3781Q68.74687 499.08124 68.74687 498.58124L68.74687 498.15936Q68.74687 497.70624 68.49687 497.40936Q68.24687 497.09686 67.80937 497.09686Q67.37187 497.09686 67.12187 497.40936Q66.87187 497.70624 66.87187 498.175L66.87187 498.6125ZM70.21562 502.95624Q70.21562 502.1906 70.7 501.70624Q71.2 501.20624 71.96562 501.20624Q72.73125 501.20624 73.21562 501.70624Q73.71562 502.1906 73.71562 503.0031L73.71562 503.40936Q73.71562 504.175 73.23125 504.675Q72.74687 505.175 71.98125 505.175Q71.21562 505.175 70.71562 504.6906Q70.21562 504.1906 70.21562 503.3781L70.21562 502.95624ZM71.02812 503.40936Q71.02812 503.8781 71.27812 504.175Q71.54375 504.47186 71.98125 504.47186Q72.40312 504.47186 72.65312 504.1906Q72.90312 503.89374 72.90312 503.39374L72.90312 502.95624Q72.90312 502.4875 72.6375 502.20624Q72.3875 501.90936 71.96562 501.90936Q71.54375 501.90936 71.27812 502.20624Q71.02812 502.4875 71.02812 502.9875L71.02812 503.40936ZM68.075 504.40936L67.45 504.01874L71.62187 497.34686L72.23125 497.7375L68.075 504.40936Z" fill-rule="nonzero"/><path fill="#757575" d="M40.746876 399.225L35.153126 399.225L35.153126 398.44376L38.10625 395.1625Q38.7625 394.4125 39.0125 393.95938Q39.2625 393.49063 39.2625 392.99063Q39.2625 392.31876 38.85625 391.89688Q38.465626 391.45938 37.778126 391.45938Q36.98125 391.45938 36.528126 391.92813Q36.075 392.38126 36.075 393.20938L34.996876 393.20938Q34.996876 392.02188 35.746876 391.30313Q36.5125 390.56876 37.778126 390.56876Q38.98125 390.56876 39.66875 391.19376Q40.35625 391.81876 40.35625 392.86563Q40.35625 394.11563 38.746876 395.86563L36.465626 398.33438L40.746876 398.33438L40.746876 399.225ZM42.653126 394.94376L43.090626 390.69376L47.465626 390.69376L47.465626 391.69376L44.0125 391.69376L43.746876 394.02188Q44.3875 393.64688 45.184376 393.64688Q46.340626 393.64688 47.028126 394.42813Q47.715626 395.19376 47.715626 396.50626Q47.715626 397.81876 46.996876 398.58438Q46.29375 399.35 45.0125 399.35Q43.8875 399.35 43.16875 398.725Q42.45 398.08438 42.35625 396.975L43.371876 396.975Q43.48125 397.70938 43.903126 398.08438Q44.325 398.45938 45.0125 398.45938Q45.7625 398.45938 46.2 397.94376Q46.6375 397.42813 46.6375 396.52188Q46.6375 395.6625 46.16875 395.14688Q45.7 394.63126 44.91875 394.63126Q44.215626 394.63126 43.809376 394.92813L43.528126 395.1625L42.653126 394.94376ZM49.29375 398.6625Q49.29375 398.38126 49.45 398.19376Q49.621876 398.00626 49.95 398.00626Q50.29375 398.00626 50.465626 398.19376Q50.6375 398.38126 50.6375 398.6625Q50.6375 398.92813 50.465626 399.11563Q50.29375 399.2875 49.95 399.2875Q49.621876 399.2875 49.45 399.11563Q49.29375 398.92813 49.29375 398.6625ZM57.5125 395.58438Q57.5125 397.49063 56.85625 398.42813Q56.215626 399.35 54.825 399.35Q53.465626 399.35 52.809376 398.44376Q52.153126 397.5375 52.121876 395.725L52.121876 394.2875Q52.121876 392.39688 52.7625 391.49063Q53.41875 390.56876 54.809376 390.56876Q56.184376 390.56876 56.840626 391.45938Q57.496876 392.33438 57.5125 394.17813L57.5125 395.58438ZM56.41875 394.1Q56.41875 392.725 56.028126 392.1Q55.653126 391.45938 54.809376 391.45938Q53.98125 391.45938 53.590626 392.1Q53.215626 392.725 53.215626 394.02188L53.215626 395.75626Q53.215626 397.13126 53.60625 397.80313Q54.0125 398.45938 54.825 398.45938Q55.621876 398.45938 56.0125 397.83438Q56.403126 397.20938 56.41875 395.88126L56.41875 394.1ZM64.5125 395.58438Q64.5125 397.49063 63.85625 398.42813Q63.215626 399.35 61.825 399.35Q60.465626 399.35 59.809376 398.44376Q59.153126 397.5375 59.121876 395.725L59.121876 394.2875Q59.121876 392.39688 59.7625 391.49063Q60.41875 390.56876 61.809376 390.56876Q63.184376 390.56876 63.840626 391.45938Q64.49687 392.33438 64.5125 394.17813L64.5125 395.58438ZM63.41875 394.1Q63.41875 392.725 63.028126 392.1Q62.653126 391.45938 61.809376 391.45938Q60.98125 391.45938 60.590626 392.1Q60.215626 392.725 60.215626 394.02188L60.215626 395.75626Q60.215626 397.13126 60.60625 397.80313Q61.0125 398.45938 61.825 398.45938Q62.621876 398.45938 63.0125 397.83438Q63.403126 397.20938 63.41875 395.88126L63.41875 394.1ZM66.05937 392.33438Q66.05937 391.56876 66.54375 391.06876Q67.04375 390.56876 67.80937 390.56876Q68.59062 390.56876 69.075 391.06876Q69.55937 391.56876 69.55937 392.36563L69.55937 392.7875Q69.55937 393.55313 69.05937 394.05313Q68.575 394.5375 67.825 394.5375Q67.05937 394.5375 66.55937 394.05313Q66.05937 393.55313 66.05937 392.74063L66.05937 392.33438ZM66.87187 392.7875Q66.87187 393.24063 67.12187 393.5375Q67.3875 393.83438 67.825 393.83438Q68.24687 393.83438 68.49687 393.55313Q68.74687 393.25626 68.74687 392.75626L68.74687 392.33438Q68.74687 391.88126 68.49687 391.58438Q68.24687 391.27188 67.80937 391.27188Q67.37187 391.27188 67.12187 391.58438Q66.87187 391.88126 66.87187 392.35L66.87187 392.7875ZM70.21562 397.13126Q70.21562 396.36563 70.7 395.88126Q71.2 395.38126 71.96562 395.38126Q72.73125 395.38126 73.21562 395.88126Q73.71562 396.36563 73.71562 397.17813L73.71562 397.58438Q73.71562 398.35 73.23125 398.85Q72.74687 399.35 71.98125 399.35Q71.21562 399.35 70.71562 398.86563Q70.21562 398.36563 70.21562 397.55313L70.21562 397.13126ZM71.02812 397.58438Q71.02812 398.05313 71.27812 398.35Q71.54375 398.64688 71.98125 398.64688Q72.40312 398.64688 72.65312 398.36563Q72.90312 398.06876 72.90312 397.56876L72.90312 397.13126Q72.90312 396.6625 72.6375 396.38126Q72.3875 396.08438 71.96562 396.08438Q71.54375 396.08438 71.27812 396.38126Q71.02812 396.6625 71.02812 397.1625L71.02812 397.58438ZM68.075 398.58438L67.45 398.19376L71.62187 391.52188L72.23125 391.9125L68.075 398.58438Z" fill-rule="nonzero"/><path fill="#757575" d="M35.653126 289.11874L36.090626 284.86874L40.465626 284.86874L40.465626 285.86874L37.0125 285.86874L36.746876 288.19687Q37.3875 287.82187 38.184376 287.82187Q39.340626 287.82187 40.028126 288.60312Q40.715626 289.36874 40.715626 290.68124Q40.715626 291.99374 39.996876 292.75937Q39.29375 293.525 38.0125 293.525Q36.8875 293.525 36.16875 292.9Q35.45 292.25937 35.35625 291.15L36.371876 291.15Q36.48125 291.88437 36.903126 292.25937Q37.325 292.63437 38.0125 292.63437Q38.7625 292.63437 39.2 292.11874Q39.6375 291.60312 39.6375 290.69687Q39.6375 289.8375 39.16875 289.32187Q38.7 288.80624 37.91875 288.80624Q37.215626 288.80624 36.809376 289.10312L36.528126 289.3375L35.653126 289.11874ZM47.5125 289.75937Q47.5125 291.66562 46.85625 292.60312Q46.215626 293.525 44.825 293.525Q43.465626 293.525 42.809376 292.61874Q42.153126 291.7125 42.121876 289.9L42.121876 288.4625Q42.121876 286.57187 42.7625 285.66562Q43.41875 284.74374 44.809376 284.74374Q46.184376 284.74374 46.840626 285.63437Q47.496876 286.50937 47.5125 288.35312L47.5125 289.75937ZM46.41875 288.275Q46.41875 286.9 46.028126 286.275Q45.653126 285.63437 44.809376 285.63437Q43.98125 285.63437 43.590626 286.275Q43.215626 286.9 43.215626 288.19687L43.215626 289.93124Q43.215626 291.30624 43.60625 291.97812Q44.0125 292.63437 44.825 292.63437Q45.621876 292.63437 46.0125 292.00937Q46.403126 291.38437 46.41875 290.05624L46.41875 288.275ZM49.29375 292.8375Q49.29375 292.55624 49.45 292.36874Q49.621876 292.18124 49.95 292.18124Q50.29375 292.18124 50.465626 292.36874Q50.6375 292.55624 50.6375 292.8375Q50.6375 293.10312 50.465626 293.29062Q50.29375 293.4625 49.95 293.4625Q49.621876 293.4625 49.45 293.29062Q49.29375 293.10312 49.29375 292.8375ZM57.5125 289.75937Q57.5125 291.66562 56.85625 292.60312Q56.215626 293.525 54.825 293.525Q53.465626 293.525 52.809376 292.61874Q52.153126 291.7125 52.121876 289.9L52.121876 288.4625Q52.121876 286.57187 52.7625 285.66562Q53.41875 284.74374 54.809376 284.74374Q56.184376 284.74374 56.840626 285.63437Q57.496876 286.50937 57.5125 288.35312L57.5125 289.75937ZM56.41875 288.275Q56.41875 286.9 56.028126 286.275Q55.653126 285.63437 54.809376 285.63437Q53.98125 285.63437 53.590626 286.275Q53.215626 286.9 53.215626 288.19687L53.215626 289.93124Q53.215626 291.30624 53.60625 291.97812Q54.0125 292.63437 54.825 292.63437Q55.621876 292.63437 56.0125 292.00937Q56.403126 291.38437 56.41875 290.05624L56.41875 288.275ZM64.5125 289.75937Q64.5125 291.66562 63.85625 292.60312Q63.215626 293.525 61.825 293.525Q60.465626 293.525 59.809376 292.61874Q59.153126 291.7125 59.121876 289.9L59.121876 288.4625Q59.121876 286.57187 59.7625 285.66562Q60.41875 284.74374 61.809376 284.74374Q63.184376 284.74374 63.840626 285.63437Q64.49687 286.50937 64.5125 288.35312L64.5125 289.75937ZM63.41875 288.275Q63.41875 286.9 63.028126 286.275Q62.653126 285.63437 61.809376 285.63437Q60.98125 285.63437 60.590626 286.275Q60.215626 286.9 60.215626 288.19687L60.215626 289.93124Q60.215626 291.30624 60.60625 291.97812Q61.0125 292.63437 61.825 292.63437Q62.621876 292.63437 63.0125 292.00937Q63.403126 291.38437 63.41875 290.05624L63.41875 288.275ZM66.05937 286.50937Q66.05937 285.74374 66.54375 285.24374Q67.04375 284.74374 67.80937 284.74374Q68.59062 284.74374 69.075 285.24374Q69.55937 285.74374 69.55937 286.54062L69.55937 286.9625Q69.55937 287.72812 69.05937 288.22812Q68.575 288.7125 67.825 288.7125Q67.05937 288.7125 66.55937 288.22812Q66.05937 287.72812 66.05937 286.91562L66.05937 286.50937ZM66.87187 286.9625Q66.87187 287.41562 67.12187 287.7125Q67.3875 288.00937 67.825 288.00937Q68.24687 288.00937 68.49687 287.72812Q68.74687 287.43124 68.74687 286.93124L68.74687 286.50937Q68.74687 286.05624 68.49687 285.75937Q68.24687 285.44687 67.80937 285.44687Q67.37187 285.44687 67.12187 285.75937Q66.87187 286.05624 66.87187 286.525L66.87187 286.9625ZM70.21562 291.30624Q70.21562 290.54062 70.7 290.05624Q71.2 289.55624 71.96562 289.55624Q72.73125 289.55624 73.21562 290.05624Q73.71562 290.54062 73.71562 291.35312L73.71562 291.75937Q73.71562 292.525 73.23125 293.025Q72.74687 293.525 71.98125 293.525Q71.21562 293.525 70.71562 293.04062Q70.21562 292.54062 70.21562 291.72812L70.21562 291.30624ZM71.02812 291.75937Q71.02812 292.22812 71.27812 292.525Q71.54375 292.82187 71.98125 292.82187Q72.40312 292.82187 72.65312 292.54062Q72.90312 292.24374 72.90312 291.74374L72.90312 291.30624Q72.90312 290.8375 72.6375 290.55624Q72.3875 290.25937 71.96562 290.25937Q71.54375 290.25937 71.27812 290.55624Q71.02812 290.8375 71.02812 291.3375L71.02812 291.75937ZM68.075 292.75937L67.45 292.36874L71.62187 285.69687L72.23125 286.0875L68.075 292.75937Z" fill-rule="nonzero"/><path fill="#757575" d="M40.66875 179.65312L37.1375 187.575L35.996876 187.575L39.5125 179.93437L34.903126 179.93437L34.903126 179.04375L40.66875 179.04375L40.66875 179.65312ZM42.653126 183.29375L43.090626 179.04375L47.465626 179.04375L47.465626 180.04375L44.0125 180.04375L43.746876 182.37187Q44.3875 181.99687 45.184376 181.99687Q46.340626 181.99687 47.028126 182.77812Q47.715626 183.54375 47.715626 184.85625Q47.715626 186.16875 46.996876 186.93437Q46.29375 187.7 45.0125 187.7Q43.8875 187.7 43.16875 187.075Q42.45 186.43437 42.35625 185.325L43.371876 185.325Q43.48125 186.05937 43.903126 186.43437Q44.325 186.80937 45.0125 186.80937Q45.7625 186.80937 46.2 186.29375Q46.6375 185.77812 46.6375 184.87187Q46.6375 184.0125 46.16875 183.49687Q45.7 182.98125 44.91875 182.98125Q44.215626 182.98125 43.809376 183.27812L43.528126 183.5125L42.653126 183.29375ZM49.29375 187.0125Q49.29375 186.73125 49.45 186.54375Q49.621876 186.35625 49.95 186.35625Q50.29375 186.35625 50.465626 186.54375Q50.6375 186.73125 50.6375 187.0125Q50.6375 187.27812 50.465626 187.46562Q50.29375 187.6375 49.95 187.6375Q49.621876 187.6375 49.45 187.46562Q49.29375 187.27812 49.29375 187.0125ZM57.5125 183.93437Q57.5125 185.84062 56.85625 186.77812Q56.215626 187.7 54.825 187.7Q53.465626 187.7 52.809376 186.79375Q52.153126 185.8875 52.121876 184.075L52.121876 182.6375Q52.121876 180.74687 52.7625 179.84062Q53.41875 178.91875 54.809376 178.91875Q56.184376 178.91875 56.840626 179.80937Q57.496876 180.68437 57.5125 182.52812L57.5125 183.93437ZM56.41875 182.45Q56.41875 181.075 56.028126 180.45Q55.653126 179.80937 54.809376 179.80937Q53.98125 179.80937 53.590626 180.45Q53.215626 181.075 53.215626 182.37187L53.215626 184.10625Q53.215626 185.48125 53.60625 186.15312Q54.0125 186.80937 54.825 186.80937Q55.621876 186.80937 56.0125 186.18437Q56.403126 185.55937 56.41875 184.23125L56.41875 182.45ZM64.5125 183.93437Q64.5125 185.84062 63.85625 186.77812Q63.215626 187.7 61.825 187.7Q60.465626 187.7 59.809376 186.79375Q59.153126 185.8875 59.121876 184.075L59.121876 182.6375Q59.121876 180.74687 59.7625 179.84062Q60.41875 178.91875 61.809376 178.91875Q63.184376 178.91875 63.840626 179.80937Q64.49687 180.68437 64.5125 182.52812L64.5125 183.93437ZM63.41875 182.45Q63.41875 181.075 63.028126 180.45Q62.653126 179.80937 61.809376 179.80937Q60.98125 179.80937 60.590626 180.45Q60.215626 181.075 60.215626 182.37187L60.215626 184.10625Q60.215626 185.48125 60.60625 186.15312Q61.0125 186.80937 61.825 186.80937Q62.621876 186.80937 63.0125 186.18437Q63.403126 185.55937 63.41875 184.23125L63.41875 182.45ZM66.05937 180.68437Q66.05937 179.91875 66.54375 179.41875Q67.04375 178.91875 67.80937 178.91875Q68.59062 178.91875 69.075 179.41875Q69.55937 179.91875 69.55937 180.71562L69.55937 181.1375Q69.55937 181.90312 69.05937 182.40312Q68.575 182.8875 67.825 182.8875Q67.05937 182.8875 66.55937 182.40312Q66.05937 181.90312 66.05937 181.09062L66.05937 180.68437ZM66.87187 181.1375Q66.87187 181.59062 67.12187 181.8875Q67.3875 182.18437 67.825 182.18437Q68.24687 182.18437 68.49687 181.90312Q68.74687 181.60625 68.74687 181.10625L68.74687 180.68437Q68.74687 180.23125 68.49687 179.93437Q68.24687 179.62187 67.80937 179.62187Q67.37187 179.62187 67.12187 179.93437Q66.87187 180.23125 66.87187 180.7L66.87187 181.1375ZM70.21562 185.48125Q70.21562 184.71562 70.7 184.23125Q71.2 183.73125 71.96562 183.73125Q72.73125 183.73125 73.21562 184.23125Q73.71562 184.71562 73.71562 185.52812L73.71562 185.93437Q73.71562 186.7 73.23125 187.2Q72.74687 187.7 71.98125 187.7Q71.21562 187.7 70.71562 187.21562Q70.21562 186.71562 70.21562 185.90312L70.21562 185.48125ZM71.02812 185.93437Q71.02812 186.40312 71.27812 186.7Q71.54375 186.99687 71.98125 186.99687Q72.40312 186.99687 72.65312 186.71562Q72.90312 186.41875 72.90312 185.91875L72.90312 185.48125Q72.90312 185.0125 72.6375 184.73125Q72.3875 184.43437 71.96562 184.43437Q71.54375 184.43437 71.27812 184.73125Q71.02812 185.0125 71.02812 185.5125L71.02812 185.93437ZM68.075 186.93437L67.45 186.54375L71.62187 179.87187L72.23125 180.2625L68.075 186.93437Z" fill-rule="nonzero"/><path fill="#757575" d="M31.715626 81.75L30.6375 81.75L30.6375 74.53125L28.45 75.328125L28.45 74.34375L31.559376 73.171875L31.715626 73.171875L31.715626 81.75ZM40.5125 78.109375Q40.5125 80.015625 39.85625 80.953125Q39.215626 81.875 37.825 81.875Q36.465626 81.875 35.809376 80.96875Q35.153126 80.0625 35.121876 78.25L35.121876 76.8125Q35.121876 74.921875 35.7625 74.015625Q36.41875 73.09375 37.809376 73.09375Q39.184376 73.09375 39.840626 73.984375Q40.496876 74.859375 40.5125 76.703125L40.5125 78.109375ZM39.41875 76.625Q39.41875 75.25 39.028126 74.625Q38.653126 73.984375 37.809376 73.984375Q36.98125 73.984375 36.590626 74.625Q36.215626 75.25 36.215626 76.546875L36.215626 78.28125Q36.215626 79.65625 36.60625 80.328125Q37.0125 80.984375 37.825 80.984375Q38.621876 80.984375 39.0125 80.359375Q39.403126 79.734375 39.41875 78.40625L39.41875 76.625ZM47.5125 78.109375Q47.5125 80.015625 46.85625 80.953125Q46.215626 81.875 44.825 81.875Q43.465626 81.875 42.809376 80.96875Q42.153126 80.0625 42.121876 78.25L42.121876 76.8125Q42.121876 74.921875 42.7625 74.015625Q43.41875 73.09375 44.809376 73.09375Q46.184376 73.09375 46.840626 73.984375Q47.496876 74.859375 47.5125 76.703125L47.5125 78.109375ZM46.41875 76.625Q46.41875 75.25 46.028126 74.625Q45.653126 73.984375 44.809376 73.984375Q43.98125 73.984375 43.590626 74.625Q43.215626 75.25 43.215626 76.546875L43.215626 78.28125Q43.215626 79.65625 43.60625 80.328125Q44.0125 80.984375 44.825 80.984375Q45.621876 80.984375 46.0125 80.359375Q46.403126 79.734375 46.41875 78.40625L46.41875 76.625ZM49.29375 81.1875Q49.29375 80.90625 49.45 80.71875Q49.621876 80.53125 49.95 80.53125Q50.29375 80.53125 50.465626 80.71875Q50.6375 80.90625 50.6375 81.1875Q50.6375 81.453125 50.465626 81.640625Q50.29375 81.8125 49.95 81.8125Q49.621876 81.8125 49.45 81.640625Q49.29375 81.453125 49.29375 81.1875ZM57.5125 78.109375Q57.5125 80.015625 56.85625 80.953125Q56.215626 81.875 54.825 81.875Q53.465626 81.875 52.809376 80.96875Q52.153126 80.0625 52.121876 78.25L52.121876 76.8125Q52.121876 74.921875 52.7625 74.015625Q53.41875 73.09375 54.809376 73.09375Q56.184376 73.09375 56.840626 73.984375Q57.496876 74.859375 57.5125 76.703125L57.5125 78.109375ZM56.41875 76.625Q56.41875 75.25 56.028126 74.625Q55.653126 73.984375 54.809376 73.984375Q53.98125 73.984375 53.590626 74.625Q53.215626 75.25 53.215626 76.546875L53.215626 78.28125Q53.215626 79.65625 53.60625 80.328125Q54.0125 80.984375 54.825 80.984375Q55.621876 80.984375 56.0125 80.359375Q56.403126 79.734375 56.41875 78.40625L56.41875 76.625ZM64.5125 78.109375Q64.5125 80.015625 63.85625 80.953125Q63.215626 81.875 61.825 81.875Q60.465626 81.875 59.809376 80.96875Q59.153126 80.0625 59.121876 78.25L59.121876 76.8125Q59.121876 74.921875 59.7625 74.015625Q60.41875 73.09375 61.809376 73.09375Q63.184376 73.09375 63.840626 73.984375Q64.49687 74.859375 64.5125 76.703125L64.5125 78.109375ZM63.41875 76.625Q63.41875 75.25 63.028126 74.625Q62.653126 73.984375 61.809376 73.984375Q60.98125 73.984375 60.590626 74.625Q60.215626 75.25 60.215626 76.546875L60.215626 78.28125Q60.215626 79.65625 60.60625 80.328125Q61.0125 80.984375 61.825 80.984375Q62.621876 80.984375 63.0125 80.359375Q63.403126 79.734375 63.41875 78.40625L63.41875 76.625ZM66.05937 74.859375Q66.05937 74.09375 66.54375 73.59375Q67.04375 73.09375 67.80937 73.09375Q68.59062 73.09375 69.075 73.59375Q69.55937 74.09375 69.55937 74.890625L69.55937 75.3125Q69.55937 76.078125 69.05937 76.578125Q68.575 77.0625 67.825 77.0625Q67.05937 77.0625 66.55937 76.578125Q66.05937 76.078125 66.05937 75.265625L66.05937 74.859375ZM66.87187 75.3125Q66.87187 75.765625 67.12187 76.0625Q67.3875 76.359375 67.825 76.359375Q68.24687 76.359375 68.49687 76.078125Q68.74687 75.78125 68.74687 75.28125L68.74687 74.859375Q68.74687 74.40625 68.49687 74.109375Q68.24687 73.796875 67.80937 73.796875Q67.37187 73.796875 67.12187 74.109375Q66.87187 74.40625 66.87187 74.875L66.87187 75.3125ZM70.21562 79.65625Q70.21562 78.890625 70.7 78.40625Q71.2 77.90625 71.96562 77.90625Q72.73125 77.90625 73.21562 78.40625Q73.71562 78.890625 73.71562 79.703125L73.71562 80.109375Q73.71562 80.875 73.23125 81.375Q72.74687 81.875 71.98125 81.875Q71.21562 81.875 70.71562 81.390625Q70.21562 80.890625 70.21562 80.078125L70.21562 79.65625ZM71.02812 80.109375Q71.02812 80.578125 71.27812 80.875Q71.54375 81.171875 71.98125 81.171875Q72.40312 81.171875 72.65312 80.890625Q72.90312 80.59375 72.90312 80.09375L72.90312 79.65625Q72.90312 79.1875 72.6375 78.90625Q72.3875 78.609375 71.96562 78.609375Q71.54375 78.609375 71.27812 78.90625Q71.02812 79.1875 71.02812 79.6875L71.02812 80.109375ZM68.075 81.109375L67.45 80.71875L71.62187 74.046875L72.23125 74.4375L68.075 81.109375Z" fill-rule="nonzero"/><path fill="#757575" d="M174.63686 512.20624L174.6681 512.90936Q175.3556 512.09686 176.5431 512.09686Q177.87123 512.09686 178.3556 513.1125Q178.6681 512.65936 179.1681 512.3781Q179.68373 512.09686 180.37123 512.09686Q182.46498 512.09686 182.49623 514.3L182.49623 518.55L181.4181 518.55L181.4181 514.3625Q181.4181 513.6906 181.1056 513.3625Q180.7931 513.01874 180.05873 513.01874Q179.44936 513.01874 179.0431 513.3781Q178.65248 513.7375 178.58998 514.34686L178.58998 518.55L177.51186 518.55L177.51186 514.39374Q177.51186 513.01874 176.15248 513.01874Q175.08998 513.01874 174.69936 513.925L174.69936 518.55L173.6056 518.55L173.6056 512.20624L174.63686 512.20624ZM188.52748 518.55Q188.43373 518.3625 188.37123 517.8781Q187.62123 518.675 186.57436 518.675Q185.63686 518.675 185.02748 518.14374Q184.43373 517.6125 184.43373 516.78436Q184.43373 515.8 185.18373 515.2531Q185.93373 514.70624 187.30873 514.70624L188.3556 514.70624L188.3556 514.20624Q188.3556 513.64374 188.01186 513.3156Q187.68373 512.97186 187.01186 512.97186Q186.43373 512.97186 186.0431 513.26874Q185.65248 513.55 185.65248 513.97186L184.55873 513.97186Q184.55873 513.4875 184.88686 513.05Q185.2306 512.6125 185.80873 512.3625Q186.38686 512.09686 187.07436 512.09686Q188.18373 512.09686 188.7931 512.64374Q189.4181 513.1906 189.44936 514.14374L189.44936 517.0656Q189.44936 517.9406 189.6681 518.45624L189.6681 518.55L188.52748 518.55ZM186.7306 517.72186Q187.24623 517.72186 187.69936 517.45624Q188.15248 517.1906 188.3556 516.76874L188.3556 515.47186L187.51186 515.47186Q185.51186 515.47186 185.51186 516.64374Q185.51186 517.14374 185.8556 517.4406Q186.19936 517.72186 186.7306 517.72186ZM192.7931 518.55L191.71498 518.55L191.71498 509.55L192.7931 509.55L192.7931 518.55ZM197.24623 518.675Q195.94936 518.675 195.13686 517.83124Q194.33998 516.97186 194.33998 515.55L194.33998 515.3625Q194.33998 514.40936 194.69936 513.675Q195.05873 512.925 195.69936 512.51874Q196.3556 512.09686 197.1056 512.09686Q198.33998 512.09686 199.02748 512.90936Q199.71498 513.72186 199.71498 515.2375L199.71498 515.6906L195.4181 515.6906Q195.44936 516.6281 195.96498 517.20624Q196.49623 517.78436 197.30873 517.78436Q197.87123 517.78436 198.26186 517.55Q198.6681 517.3156 198.9806 516.925L199.63686 517.4406Q198.83998 518.675 197.24623 518.675ZM197.1056 512.9875Q196.44936 512.9875 195.99623 513.47186Q195.55873 513.9406 195.46498 514.8L198.63686 514.8L198.63686 514.72186Q198.58998 513.89374 198.18373 513.4406Q197.7931 512.9875 197.1056 512.9875Z" fill-rule="nonzero"/><path fill="#757575" d="M292.76956 515.45624Q292.76956 516.89374 292.1133 517.78436Q291.45706 518.675 290.31644 518.675Q289.1602 518.675 288.50394 517.9406L288.50394 520.9875L287.4258 520.9875L287.4258 512.20624L288.4102 512.20624L288.45706 512.90936Q289.12894 512.09686 290.3008 512.09686Q291.44144 512.09686 292.0977 512.95624Q292.76956 513.8156 292.76956 515.34686L292.76956 515.45624ZM291.69144 515.33124Q291.69144 514.2531 291.2227 513.64374Q290.76956 513.01874 289.9727 513.01874Q288.9883 513.01874 288.50394 513.8781L288.50394 516.90936Q288.9883 517.78436 289.9883 517.78436Q290.76956 517.78436 291.2227 517.175Q291.69144 516.55 291.69144 515.33124ZM297.4883 513.175Q297.2383 513.14374 296.95706 513.14374Q295.87894 513.14374 295.50394 514.05L295.50394 518.55L294.4258 518.55L294.4258 512.20624L295.4727 512.20624L295.4883 512.9406Q296.01956 512.09686 297.00394 512.09686Q297.31644 512.09686 297.4883 512.175L297.4883 513.175ZM301.0508 518.675Q299.75394 518.675 298.94144 517.83124Q298.14456 516.97186 298.14456 515.55L298.14456 515.3625Q298.14456 514.40936 298.50394 513.675Q298.8633 512.925 299.50394 512.51874Q300.1602 512.09686 300.9102 512.09686Q302.14456 512.09686 302.83206 512.90936Q303.51956 513.72186 303.51956 515.2375L303.51956 515.6906L299.2227 515.6906Q299.25394 516.6281 299.76956 517.20624Q300.3008 517.78436 301.1133 517.78436Q301.6758 517.78436 302.06644 517.55Q302.4727 517.3156 302.7852 516.925L303.44144 517.4406Q302.64456 518.675 301.0508 518.675ZM300.9102 512.9875Q300.25394 512.9875 299.8008 513.47186Q299.3633 513.9406 299.26956 514.8L302.44144 514.8L302.44144 514.72186Q302.39456 513.89374 301.9883 513.4406Q301.5977 512.9875 300.9102 512.9875ZM304.95706 518.55L304.95706 513.05L303.95706 513.05L303.95706 512.20624L304.95706 512.20624L304.95706 511.5656Q304.95706 510.53436 305.4883 509.9875Q306.0352 509.425 307.0352 509.425Q307.4102 509.425 307.7852 509.51874L307.7227 510.40936Q307.44144 510.34686 307.14456 510.34686Q306.6133 510.34686 306.31644 510.65936Q306.0352 510.97186 306.0352 511.53436L306.0352 512.20624L307.39456 512.20624L307.39456 513.05L306.0352 513.05L306.0352 518.55L304.95706 518.55ZM311.0508 518.675Q309.75394 518.675 308.94144 517.83124Q308.14456 516.97186 308.14456 515.55L308.14456 515.3625Q308.14456 514.40936 308.50394 513.675Q308.8633 512.925 309.50394 512.51874Q310.1602 512.09686 310.9102 512.09686Q312.14456 512.09686 312.83206 512.90936Q313.51956 513.72186 313.51956 515.2375L313.51956 515.6906L309.2227 515.6906Q309.25394 516.6281 309.76956 517.20624Q310.3008 517.78436 311.1133 517.78436Q311.6758 517.78436 312.06644 517.55Q312.4727 517.3156 312.7852 516.925L313.44144 517.4406Q312.64456 518.675 311.0508 518.675ZM310.9102 512.9875Q310.25394 512.9875 309.8008 513.47186Q309.3633 513.9406 309.26956 514.8L312.44144 514.8L312.44144 514.72186Q312.39456 513.89374 311.9883 513.4406Q311.5977 512.9875 310.9102 512.9875ZM317.4883 513.175Q317.2383 513.14374 316.95706 513.14374Q315.87894 513.14374 315.50394 514.05L315.50394 518.55L314.4258 518.55L314.4258 512.20624L315.4727 512.20624L315.4883 512.9406Q316.01956 512.09686 317.00394 512.09686Q317.31644 512.09686 317.4883 512.175L317.4883 513.175ZM322.44144 512.20624L322.4727 513.0031Q323.20706 512.09686 324.37894 512.09686Q326.39456 512.09686 326.4102 514.3625L326.4102 518.55L325.31644 518.55L325.31644 514.34686Q325.31644 513.675 325.00394 513.34686Q324.70706 513.01874 324.0508 513.01874Q323.51956 513.01874 323.1133 513.3Q322.7227 513.58124 322.50394 514.03436L322.50394 518.55L321.4258 518.55L321.4258 512.20624L322.44144 512.20624ZM328.12894 515.3156Q328.12894 514.39374 328.4883 513.64374Q328.8633 512.89374 329.51956 512.5031Q330.1758 512.09686 331.00394 512.09686Q332.3008 512.09686 333.0977 512.9875Q333.9102 513.8781 333.9102 515.3781L333.9102 515.45624Q333.9102 516.3781 333.5508 517.1125Q333.19144 517.84686 332.5352 518.26874Q331.87894 518.675 331.01956 518.675Q329.7383 518.675 328.9258 517.78436Q328.12894 516.8781 328.12894 515.39374L328.12894 515.3156ZM329.2227 515.45624Q329.2227 516.5031 329.70706 517.14374Q330.20706 517.78436 331.01956 517.78436Q331.8477 517.78436 332.33206 517.14374Q332.81644 516.4875 332.81644 515.3156Q332.81644 514.28436 332.31644 513.64374Q331.83206 512.9875 331.00394 512.9875Q330.20706 512.9875 329.70706 513.6281Q329.2227 514.2531 329.2227 515.45624ZM336.89456 510.675L336.89456 512.20624L338.06644 512.20624L338.06644 513.05L336.89456 513.05L336.89456 516.97186Q336.89456 517.3625 337.0508 517.55Q337.20706 517.7375 337.58206 517.7375Q337.76956 517.7375 338.0977 517.675L338.0977 518.55Q337.6758 518.675 337.26956 518.675Q336.5508 518.675 336.1758 518.2375Q335.8008 517.78436 335.8008 516.97186L335.8008 513.05L334.64456 513.05L334.64456 512.20624L335.8008 512.20624L335.8008 510.675L336.89456 510.675ZM343.89456 510.675L343.89456 512.20624L345.06644 512.20624L345.06644 513.05L343.89456 513.05L343.89456 516.97186Q343.89456 517.3625 344.0508 517.55Q344.20706 517.7375 344.58206 517.7375Q344.76956 517.7375 345.0977 517.675L345.0977 518.55Q344.6758 518.675 344.26956 518.675Q343.5508 518.675 343.1758 518.2375Q342.8008 517.78436 342.8008 516.97186L342.8008 513.05L341.64456 513.05L341.64456 512.20624L342.8008 512.20624L342.8008 510.675L343.89456 510.675ZM346.12894 515.3156Q346.12894 514.39374 346.4883 513.64374Q346.8633 512.89374 347.51956 512.5031Q348.1758 512.09686 349.00394 512.09686Q350.3008 512.09686 351.0977 512.9875Q351.9102 513.8781 351.9102 515.3781L351.9102 515.45624Q351.9102 516.3781 351.5508 517.1125Q351.19144 517.84686 350.5352 518.26874Q349.87894 518.675 349.01956 518.675Q347.7383 518.675 346.9258 517.78436Q346.12894 516.8781 346.12894 515.39374L346.12894 515.3156ZM347.2227 515.45624Q347.2227 516.5031 347.70706 517.14374Q348.20706 517.78436 349.01956 517.78436Q349.8477 517.78436 350.33206 517.14374Q350.81644 516.4875 350.81644 515.3156Q350.81644 514.28436 350.31644 513.64374Q349.83206 512.9875 349.00394 512.9875Q348.20706 512.9875 347.70706 513.6281Q347.2227 514.2531 347.2227 515.45624ZM359.4883 513.175Q359.2383 513.14374 358.95706 513.14374Q357.87894 513.14374 357.50394 514.05L357.50394 518.55L356.4258 518.55L356.4258 512.20624L357.4727 512.20624L357.4883 512.9406Q358.01956 512.09686 359.00394 512.09686Q359.31644 512.09686 359.4883 512.175L359.4883 513.175ZM363.0508 518.675Q361.75394 518.675 360.94144 517.83124Q360.14456 516.97186 360.14456 515.55L360.14456 515.3625Q360.14456 514.40936 360.50394 513.675Q360.8633 512.925 361.50394 512.51874Q362.1602 512.09686 362.9102 512.09686Q364.14456 512.09686 364.83206 512.90936Q365.51956 513.72186 365.51956 515.2375L365.51956 515.6906L361.2227 515.6906Q361.25394 516.6281 361.76956 517.20624Q362.3008 517.78436 363.1133 517.78436Q363.6758 517.78436 364.06644 517.55Q364.4727 517.3156 364.7852 516.925L365.44144 517.4406Q364.64456 518.675 363.0508 518.675ZM362.9102 512.9875Q362.25394 512.9875 361.8008 513.47186Q361.3633 513.9406 361.26956 514.8L364.44144 514.8L364.44144 514.72186Q364.39456 513.89374 363.9883 513.4406Q363.5977 512.9875 362.9102 512.9875ZM370.1133 516.8625Q370.1133 516.425 369.76956 516.1906Q369.44144 515.9406 368.6133 515.76874Q367.8008 515.59686 367.31644 515.34686Q366.83206 515.09686 366.5977 514.76874Q366.37894 514.425 366.37894 513.95624Q366.37894 513.175 367.0352 512.64374Q367.69144 512.09686 368.7227 512.09686Q369.8008 512.09686 370.45706 512.65936Q371.12894 513.20624 371.12894 514.0656L370.0508 514.0656Q370.0508 513.6281 369.6602 513.3156Q369.2852 512.9875 368.7227 512.9875Q368.12894 512.9875 367.7852 513.2531Q367.45706 513.5031 367.45706 513.90936Q367.45706 514.3 367.76956 514.5031Q368.08206 514.70624 368.89456 514.89374Q369.70706 515.0656 370.20706 515.3156Q370.70706 515.5656 370.94144 515.925Q371.19144 516.28436 371.19144 516.78436Q371.19144 517.64374 370.50394 518.15936Q369.83206 518.675 368.75394 518.675Q367.9883 518.675 367.39456 518.40936Q366.81644 518.1281 366.4883 517.64374Q366.1602 517.15936 366.1602 516.59686L367.2383 516.59686Q367.26956 517.14374 367.6758 517.47186Q368.08206 517.78436 368.75394 517.78436Q369.3633 517.78436 369.7383 517.53436Q370.1133 517.28436 370.1133 516.8625ZM377.76956 515.45624Q377.76956 516.89374 377.1133 517.78436Q376.45706 518.675 375.31644 518.675Q374.1602 518.675 373.50394 517.9406L373.50394 520.9875L372.4258 520.9875L372.4258 512.20624L373.4102 512.20624L373.45706 512.90936Q374.12894 512.09686 375.3008 512.09686Q376.44144 512.09686 377.0977 512.95624Q377.76956 513.8156 377.76956 515.34686L377.76956 515.45624ZM376.69144 515.33124Q376.69144 514.2531 376.2227 513.64374Q375.76956 513.01874 374.9727 513.01874Q373.9883 513.01874 373.50394 513.8781L373.50394 516.90936Q373.9883 517.78436 374.9883 517.78436Q375.76956 517.78436 376.2227 517.175Q376.69144 516.55 376.69144 515.33124ZM379.12894 515.3156Q379.12894 514.39374 379.4883 513.64374Q379.8633 512.89374 380.51956 512.5031Q381.1758 512.09686 382.00394 512.09686Q383.3008 512.09686 384.0977 512.9875Q384.9102 513.8781 384.9102 515.3781L384.9102 515.45624Q384.9102 516.3781 384.5508 517.1125Q384.19144 517.84686 383.5352 518.26874Q382.87894 518.675 382.01956 518.675Q380.7383 518.675 379.9258 517.78436Q379.12894 516.8781 379.12894 515.39374L379.12894 515.3156ZM380.2227 515.45624Q380.2227 516.5031 380.70706 517.14374Q381.20706 517.78436 382.01956 517.78436Q382.8477 517.78436 383.33206 517.14374Q383.81644 516.4875 383.81644 515.3156Q383.81644 514.28436 383.31644 513.64374Q382.83206 512.9875 382.00394 512.9875Q381.20706 512.9875 380.70706 513.6281Q380.2227 514.2531 380.2227 515.45624ZM387.44144 512.20624L387.4727 513.0031Q388.20706 512.09686 389.37894 512.09686Q391.39456 512.09686 391.4102 514.3625L391.4102 518.55L390.31644 518.55L390.31644 514.34686Q390.31644 513.675 390.00394 513.34686Q389.70706 513.01874 389.0508 513.01874Q388.51956 513.01874 388.1133 513.3Q387.7227 513.58124 387.50394 514.03436L387.50394 518.55L386.4258 518.55L386.4258 512.20624L387.44144 512.20624ZM393.1602 515.33124Q393.1602 513.8625 393.8477 512.9875Q394.5352 512.09686 395.6602 512.09686Q396.76956 512.09686 397.4258 512.84686L397.4258 509.55L398.50394 509.55L398.50394 518.55L397.50394 518.55L397.45706 517.8625Q396.8008 518.675 395.64456 518.675Q394.5508 518.675 393.8477 517.76874Q393.1602 516.8625 393.1602 515.40936L393.1602 515.33124ZM394.2383 515.45624Q394.2383 516.53436 394.6758 517.14374Q395.12894 517.7531 395.9102 517.7531Q396.94144 517.7531 397.4258 516.8156L397.4258 513.90936Q396.94144 513.01874 395.9258 513.01874Q395.12894 513.01874 394.6758 513.6281Q394.2383 514.2375 394.2383 515.45624Z" fill-rule="nonzero"/><path fill="#757575" d="M482.7617 518.55L482.7617 513.05L481.7617 513.05L481.7617 512.20624L482.7617 512.20624L482.7617 511.5656Q482.7617 510.53436 483.29294 509.9875Q483.8398 509.425 484.8398 509.425Q485.2148 509.425 485.5898 509.51874L485.5273 510.40936Q485.24606 510.34686 484.9492 510.34686Q484.41794 510.34686 484.12106 510.65936Q483.8398 510.97186 483.8398 511.53436L483.8398 512.20624L485.1992 512.20624L485.1992 513.05L483.8398 513.05L483.8398 518.55L482.7617 518.55ZM488.85544 518.675Q487.55856 518.675 486.74606 517.83124Q485.9492 516.97186 485.9492 515.55L485.9492 515.3625Q485.9492 514.40936 486.30856 513.675Q486.66794 512.925 487.30856 512.51874Q487.9648 512.09686 488.7148 512.09686Q489.9492 512.09686 490.6367 512.90936Q491.3242 513.72186 491.3242 515.2375L491.3242 515.6906L487.0273 515.6906Q487.05856 516.6281 487.5742 517.20624Q488.10544 517.78436 488.91794 517.78436Q489.48044 517.78436 489.87106 517.55Q490.2773 517.3156 490.5898 516.925L491.24606 517.4406Q490.4492 518.675 488.85544 518.675ZM488.7148 512.9875Q488.05856 512.9875 487.60544 513.47186Q487.16794 513.9406 487.0742 514.8L490.24606 514.8L490.24606 514.72186Q490.1992 513.89374 489.79294 513.4406Q489.4023 512.9875 488.7148 512.9875ZM493.24606 512.20624L493.2773 512.90936Q493.9648 512.09686 495.1523 512.09686Q496.48044 512.09686 496.9648 513.1125Q497.2773 512.65936 497.7773 512.3781Q498.29294 512.09686 498.98044 512.09686Q501.0742 512.09686 501.10544 514.3L501.10544 518.55L500.0273 518.55L500.0273 514.3625Q500.0273 513.6906 499.7148 513.3625Q499.4023 513.01874 498.66794 513.01874Q498.05856 513.01874 497.6523 513.3781Q497.2617 513.7375 497.1992 514.34686L497.1992 518.55L496.12106 518.55L496.12106 514.39374Q496.12106 513.01874 494.7617 513.01874Q493.6992 513.01874 493.30856 513.925L493.30856 518.55L492.2148 518.55L492.2148 512.20624L493.24606 512.20624ZM507.1367 518.55Q507.04294 518.3625 506.98044 517.8781Q506.23044 518.675 505.18356 518.675Q504.24606 518.675 503.6367 518.14374Q503.04294 517.6125 503.04294 516.78436Q503.04294 515.8 503.79294 515.2531Q504.54294 514.70624 505.91794 514.70624L506.9648 514.70624L506.9648 514.20624Q506.9648 513.64374 506.62106 513.3156Q506.29294 512.97186 505.62106 512.97186Q505.04294 512.97186 504.6523 513.26874Q504.2617 513.55 504.2617 513.97186L503.16794 513.97186Q503.16794 513.4875 503.49606 513.05Q503.8398 512.6125 504.41794 512.3625Q504.99606 512.09686 505.68356 512.09686Q506.79294 512.09686 507.4023 512.64374Q508.0273 513.1906 508.05856 514.14374L508.05856 517.0656Q508.05856 517.9406 508.2773 518.45624L508.2773 518.55L507.1367 518.55ZM505.3398 517.72186Q505.85544 517.72186 506.30856 517.45624Q506.7617 517.1906 506.9648 516.76874L506.9648 515.47186L506.12106 515.47186Q504.12106 515.47186 504.12106 516.64374Q504.12106 517.14374 504.4648 517.4406Q504.80856 517.72186 505.3398 517.72186ZM511.4023 518.55L510.3242 518.55L510.3242 509.55L511.4023 509.55L511.4023 518.55ZM515.85547 518.675Q514.5586 518.675 513.7461 517.83124Q512.9492 516.97186 512.9492 515.55L512.9492 515.3625Q512.9492 514.40936 513.3086 513.675Q513.66797 512.925 514.3086 512.51874Q514.96484 512.09686 515.71484 512.09686Q516.9492 512.09686 517.6367 512.90936Q518.3242 513.72186 518.3242 515.2375L518.3242 515.6906L514.02734 515.6906Q514.0586 516.6281 514.5742 517.20624Q515.10547 517.78436 515.91797 517.78436Q516.48047 517.78436 516.8711 517.55Q517.27734 517.3156 517.58984 516.925L518.2461 517.4406Q517.4492 518.675 515.85547 518.675ZM515.71484 512.9875Q515.0586 512.9875 514.60547 513.47186Q514.16797 513.9406 514.0742 514.8L517.2461 514.8L517.2461 514.72186Q517.1992 513.89374 516.79297 513.4406Q516.40234 512.9875 515.71484 512.9875Z" fill-rule="nonzero"/><path fill="#757575" d="M631.05066 512.20624L631.0819 513.0031Q631.8163 512.09686 632.98816 512.09686Q635.0038 512.09686 635.0194 514.3625L635.0194 518.55L633.92566 518.55L633.92566 514.34686Q633.92566 513.675 633.61316 513.34686Q633.3163 513.01874 632.66003 513.01874Q632.1288 513.01874 631.72253 513.3Q631.3319 513.58124 631.11316 514.03436L631.11316 518.55L630.03503 518.55L630.03503 512.20624L631.05066 512.20624ZM636.73816 515.3156Q636.73816 514.39374 637.09753 513.64374Q637.47253 512.89374 638.1288 512.5031Q638.78503 512.09686 639.61316 512.09686Q640.91003 512.09686 641.7069 512.9875Q642.5194 513.8781 642.5194 515.3781L642.5194 515.45624Q642.5194 516.3781 642.16003 517.1125Q641.80066 517.84686 641.1444 518.26874Q640.48816 518.675 639.6288 518.675Q638.34753 518.675 637.53503 517.78436Q636.73816 516.8781 636.73816 515.39374L636.73816 515.3156ZM637.8319 515.45624Q637.8319 516.5031 638.3163 517.14374Q638.8163 517.78436 639.6288 517.78436Q640.4569 517.78436 640.9413 517.14374Q641.42566 516.4875 641.42566 515.3156Q641.42566 514.28436 640.92566 513.64374Q640.4413 512.9875 639.61316 512.9875Q638.8163 512.9875 638.3163 513.6281Q637.8319 514.2531 637.8319 515.45624ZM645.05066 512.20624L645.0819 513.0031Q645.8163 512.09686 646.98816 512.09686Q649.0038 512.09686 649.0194 514.3625L649.0194 518.55L647.92566 518.55L647.92566 514.34686Q647.92566 513.675 647.61316 513.34686Q647.3163 513.01874 646.66003 513.01874Q646.1288 513.01874 645.72253 513.3Q645.3319 513.58124 645.11316 514.03436L645.11316 518.55L644.03503 518.55L644.03503 512.20624L645.05066 512.20624ZM656.3944 515.45624Q656.3944 516.90936 655.72253 517.8Q655.0663 518.675 653.9413 518.675Q652.73816 518.675 652.0819 517.8156L652.0194 518.55L651.03503 518.55L651.03503 509.55L652.11316 509.55L652.11316 512.90936Q652.7694 512.09686 653.92566 512.09686Q655.0819 512.09686 655.73816 512.97186Q656.3944 513.83124 656.3944 515.3625L656.3944 515.45624ZM655.3163 515.33124Q655.3163 514.22186 654.8788 513.6281Q654.4569 513.01874 653.66003 513.01874Q652.5819 513.01874 652.11316 514.0031L652.11316 516.7531Q652.61316 517.7531 653.66003 517.7531Q654.4413 517.7531 654.8788 517.14374Q655.3163 516.53436 655.3163 515.33124ZM659.2069 518.55L658.1288 518.55L658.1288 512.20624L659.2069 512.20624L659.2069 518.55ZM658.03503 510.53436Q658.03503 510.26874 658.1913 510.08124Q658.36316 509.89374 658.67566 509.89374Q658.98816 509.89374 659.1444 510.08124Q659.3163 510.26874 659.3163 510.53436Q659.3163 510.78436 659.1444 510.97186Q658.98816 511.14374 658.67566 511.14374Q658.36316 511.14374 658.1913 510.97186Q658.03503 510.78436 658.03503 510.53436ZM662.05066 512.20624L662.0819 513.0031Q662.8163 512.09686 663.98816 512.09686Q666.0038 512.09686 666.0194 514.3625L666.0194 518.55L664.92566 518.55L664.92566 514.34686Q664.92566 513.675 664.61316 513.34686Q664.3163 513.01874 663.66003 513.01874Q663.1288 513.01874 662.72253 513.3Q662.3319 513.58124 662.11316 514.03436L662.11316 518.55L661.03503 518.55L661.03503 512.20624L662.05066 512.20624ZM671.9413 518.55Q671.84753 518.3625 671.78503 517.8781Q671.03503 518.675 669.98816 518.675Q669.05066 518.675 668.4413 518.14374Q667.84753 517.6125 667.84753 516.78436Q667.84753 515.8 668.59753 515.2531Q669.34753 514.70624 670.72253 514.70624L671.7694 514.70624L671.7694 514.20624Q671.7694 513.64374 671.42566 513.3156Q671.09753 512.97186 670.42566 512.97186Q669.84753 512.97186 669.4569 513.26874Q669.0663 513.55 669.0663 513.97186L667.97253 513.97186Q667.97253 513.4875 668.30066 513.05Q668.6444 512.6125 669.22253 512.3625Q669.80066 512.09686 670.48816 512.09686Q671.59753 512.09686 672.2069 512.64374Q672.8319 513.1906 672.86316 514.14374L672.86316 517.0656Q672.86316 517.9406 673.0819 518.45624L673.0819 518.55L671.9413 518.55ZM670.1444 517.72186Q670.66003 517.72186 671.11316 517.45624Q671.5663 517.1906 671.7694 516.76874L671.7694 515.47186L670.92566 515.47186Q668.92566 515.47186 668.92566 516.64374Q668.92566 517.14374 669.2694 517.4406Q669.61316 517.72186 670.1444 517.72186ZM678.09753 513.175Q677.84753 513.14374 677.5663 513.14374Q676.48816 513.14374 676.11316 514.05L676.11316 518.55L675.03503 518.55L675.03503 512.20624L676.0819 512.20624L676.09753 512.9406Q676.6288 512.09686 677.61316 512.09686Q677.92566 512.09686 678.09753 512.175L678.09753 513.175ZM681.09753 516.95624L682.5819 512.20624L683.73816 512.20624L681.1913 519.53436Q680.59753 521.1125 679.3163 521.1125L679.09753 521.09686L678.7069 521.01874L678.7069 520.14374L678.98816 520.15936Q679.55066 520.15936 679.84753 519.9406Q680.16003 519.72186 680.36316 519.1281L680.59753 518.47186L678.3319 512.20624L679.5194 512.20624L681.09753 516.95624Z" fill-rule="nonzero"/><path fill="#757575" d="M40.028126 46.45L38.1375 46.45L38.1375 39.871876L30.98125 39.871876L30.98125 46.45L29.10625 46.45L29.10625 32.23125L30.98125 32.23125L30.98125 38.340626L38.1375 38.340626L38.1375 32.23125L40.028126 32.23125L40.028126 46.45ZM42.340626 41.075Q42.340626 39.5125 42.95 38.278126Q43.559376 37.028126 44.6375 36.35625Q45.73125 35.684376 47.1375 35.684376Q49.29375 35.684376 50.621876 37.184376Q51.965626 38.66875 51.965626 41.153126L51.965626 41.278126Q51.965626 42.825 51.371876 44.059376Q50.778126 45.278126 49.66875 45.965626Q48.575 46.653126 47.153126 46.653126Q45.0125 46.653126 43.66875 45.153126Q42.340626 43.653126 42.340626 41.2L42.340626 41.075ZM44.153126 41.278126Q44.153126 43.04375 44.965626 44.10625Q45.79375 45.16875 47.153126 45.16875Q48.528126 45.16875 49.340626 44.090626Q50.153126 43.0125 50.153126 41.075Q50.153126 39.325 49.325 38.246876Q48.496876 37.16875 47.1375 37.16875Q45.79375 37.16875 44.965626 38.23125Q44.153126 39.29375 44.153126 41.278126ZM63.16875 43.965626L65.2 35.8875L67.0125 35.8875L63.934376 46.45L62.465626 46.45L59.903126 38.434376L57.403126 46.45L55.934376 46.45L52.871876 35.8875L54.66875 35.8875L56.746876 43.79375L59.215626 35.8875L60.66875 35.8875L63.16875 43.965626ZM73.37187 41.075Q73.37187 38.653126 74.52812 37.16875Q75.68437 35.684376 77.54375 35.684376Q79.40312 35.684376 80.48125 36.95L80.48125 31.45L82.29375 31.45L82.29375 46.45L80.6375 46.45L80.54375 45.309376Q79.46562 46.653126 77.52812 46.653126Q75.7 46.653126 74.52812 45.153126Q73.37187 43.6375 73.37187 41.215626L73.37187 41.075ZM75.18437 41.278126Q75.18437 43.075 75.91875 44.090626Q76.66875 45.10625 77.98125 45.10625Q79.7 45.10625 80.48125 43.575L80.48125 38.715626Q79.68437 37.215626 77.99687 37.215626Q76.66875 37.215626 75.91875 38.246876Q75.18437 39.278126 75.18437 41.278126ZM84.34062 41.075Q84.34062 39.5125 84.95 38.278126Q85.55937 37.028126 86.6375 36.35625Q87.73125 35.684376 89.1375 35.684376Q91.29375 35.684376 92.62187 37.184376Q93.96562 38.66875 93.96562 41.153126L93.96562 41.278126Q93.96562 42.825 93.37187 44.059376Q92.77812 45.278126 91.66875 45.965626Q90.575 46.653126 89.15312 46.653126Q87.0125 46.653126 85.66875 45.153126Q84.34062 43.653126 84.34062 41.2L84.34062 41.075ZM86.15312 41.278126Q86.15312 43.04375 86.96562 44.10625Q87.79375 45.16875 89.15312 45.16875Q90.52812 45.16875 91.34062 44.090626Q92.15312 43.0125 92.15312 41.075Q92.15312 39.325 91.325 38.246876Q90.49687 37.16875 89.1375 37.16875Q87.79375 37.16875 86.96562 38.23125Q86.15312 39.29375 86.15312 41.278126ZM104.27812 43.809376L106.73125 35.8875L108.66875 35.8875L104.41875 48.075Q103.43437 50.715626 101.29375 50.715626L100.95 50.684376L100.27812 50.559376L100.27812 49.090626L100.7625 49.1375Q101.68437 49.1375 102.18437 48.7625Q102.7 48.3875 103.02812 47.403126L103.43437 46.325L99.66875 35.8875L101.6375 35.8875L104.27812 43.809376ZM109.34062 41.075Q109.34062 39.5125 109.95 38.278126Q110.55937 37.028126 111.6375 36.35625Q112.73125 35.684376 114.1375 35.684376Q116.29375 35.684376 117.62187 37.184376Q118.96562 38.66875 118.96562 41.153126L118.96562 41.278126Q118.96562 42.825 118.37187 44.059376Q117.77812 45.278126 116.66875 45.965626Q115.575 46.653126 114.15312 46.653126Q112.0125 46.653126 110.66875 45.153126Q109.34062 43.653126 109.34062 41.2L109.34062 41.075ZM111.15312 41.278126Q111.15312 43.04375 111.96562 44.10625Q112.79375 45.16875 114.15312 45.16875Q115.52812 45.16875 116.34062 44.090626Q117.15312 43.0125 117.15312 41.075Q117.15312 39.325 116.325 38.246876Q115.49687 37.16875 114.1375 37.16875Q112.79375 37.16875 111.96562 38.23125Q111.15312 39.29375 111.15312 41.278126ZM127.34062 45.403126Q126.29375 46.653126 124.24687 46.653126Q122.55937 46.653126 121.66875 45.66875Q120.79375 44.684376 120.77812 42.7625L120.77812 35.8875L122.59062 35.8875L122.59062 42.715626Q122.59062 45.10625 124.54375 45.10625Q126.60625 45.10625 127.29375 43.575L127.29375 35.8875L129.10625 35.8875L129.10625 46.45L127.3875 46.45L127.34062 45.403126ZM138.77812 46.45L136.98125 46.45L136.98125 35.8875L138.77812 35.8875L138.77812 46.45ZM136.825 33.075Q136.825 32.6375 137.09062 32.340626Q137.37187 32.028126 137.8875 32.028126Q138.41875 32.028126 138.68437 32.340626Q138.96562 32.6375 138.96562 33.075Q138.96562 33.5125 138.68437 33.809376Q138.41875 34.10625 137.8875 34.10625Q137.37187 34.10625 137.09062 33.809376Q136.825 33.5125 136.825 33.075ZM141.37187 41.075Q141.37187 38.653126 142.52812 37.16875Q143.68437 35.684376 145.54375 35.684376Q147.40312 35.684376 148.48125 36.95L148.48125 31.45L150.29375 31.45L150.29375 46.45L148.6375 46.45L148.54375 45.309376Q147.46562 46.653126 145.52812 46.653126Q143.7 46.653126 142.52812 45.153126Q141.37187 43.6375 141.37187 41.215626L141.37187 41.075ZM143.18437 41.278126Q143.18437 43.075 143.91875 44.090626Q144.66875 45.10625 145.98125 45.10625Q147.7 45.10625 148.48125 43.575L148.48125 38.715626Q147.68437 37.215626 145.99687 37.215626Q144.66875 37.215626 143.91875 38.246876Q143.18437 39.278126 143.18437 41.278126ZM157.2 46.653126Q155.05937 46.653126 153.7 45.246876Q152.35625 43.825 152.35625 41.465626L152.35625 41.121876Q152.35625 39.559376 152.95 38.325Q153.55937 37.090626 154.6375 36.3875Q155.71562 35.684376 156.98125 35.684376Q159.04375 35.684376 160.18437 37.04375Q161.325 38.403126 161.325 40.934376L161.325 41.684376L154.16875 41.684376Q154.2 43.246876 155.075 44.215626Q155.95 45.16875 157.29375 45.16875Q158.2625 45.16875 158.91875 44.778126Q159.59062 44.3875 160.09062 43.746876L161.18437 44.60625Q159.85625 46.653126 157.2 46.653126ZM156.98125 37.16875Q155.8875 37.16875 155.1375 37.965626Q154.40312 38.7625 154.23125 40.2L159.5125 40.2L159.5125 40.059376Q159.43437 38.684376 158.7625 37.934376Q158.10625 37.16875 156.98125 37.16875ZM165.52812 35.8875L165.59062 37.215626Q166.79375 35.684376 168.74687 35.684376Q172.10625 35.684376 172.12187 39.465626L172.12187 46.45L170.325 46.45L170.325 39.45Q170.30937 38.309376 169.79375 37.7625Q169.29375 37.215626 168.2 37.215626Q167.325 37.215626 166.65312 37.684376Q165.99687 38.153126 165.62187 38.91875L165.62187 46.45L163.825 46.45L163.825 35.8875L165.52812 35.8875ZM177.2625 33.325L177.2625 35.8875L179.24687 35.8875L179.24687 37.278126L177.2625 37.278126L177.2625 43.825Q177.2625 44.465626 177.52812 44.79375Q177.79375 45.10625 178.43437 45.10625Q178.74687 45.10625 179.29375 44.98125L179.29375 46.45Q178.575 46.653126 177.90312 46.653126Q176.7 46.653126 176.075 45.91875Q175.46562 45.184376 175.46562 43.825L175.46562 37.278126L173.54375 37.278126L173.54375 35.8875L175.46562 35.8875L175.46562 33.325L177.2625 33.325ZM183.77812 46.45L181.98125 46.45L181.98125 35.8875L183.77812 35.8875L183.77812 46.45ZM181.825 33.075Q181.825 32.6375 182.09062 32.340626Q182.37187 32.028126 182.8875 32.028126Q183.41875 32.028126 183.68437 32.340626Q183.96562 32.6375 183.96562 33.075Q183.96562 33.5125 183.68437 33.809376Q183.41875 34.10625 182.8875 34.10625Q182.37187 34.10625 182.09062 33.809376Q181.825 33.5125 181.825 33.075ZM187.7 46.45L187.7 37.278126L186.04375 37.278126L186.04375 35.8875L187.7 35.8875L187.7 34.79375Q187.7 33.10625 188.60625 32.184376Q189.52812 31.246876 191.18437 31.246876Q191.80937 31.246876 192.41875 31.403126L192.325 32.871876Q191.87187 32.79375 191.35625 32.79375Q190.46562 32.79375 189.98125 33.309376Q189.5125 33.809376 189.5125 34.7625L189.5125 35.8875L191.7625 35.8875L191.7625 37.278126L189.5125 37.278126L189.5125 46.45L187.7 46.45ZM197.27812 43.809376L199.73125 35.8875L201.66875 35.8875L197.41875 48.075Q196.43437 50.715626 194.29375 50.715626L193.95 50.684376L193.27812 50.559376L193.27812 49.090626L193.7625 49.1375Q194.68437 49.1375 195.18437 48.7625Q195.7 48.3875 196.02812 47.403126L196.43437 46.325L192.66875 35.8875L194.6375 35.8875L197.27812 43.809376ZM211.27812 43.809376L213.73125 35.8875L215.66875 35.8875L211.41875 48.075Q210.43437 50.715626 208.29375 50.715626L207.95 50.684376L207.27812 50.559376L207.27812 49.090626L207.7625 49.1375Q208.68437 49.1375 209.18437 48.7625Q209.7 48.3875 210.02812 47.403126L210.43437 46.325L206.66875 35.8875L208.6375 35.8875L211.27812 43.809376ZM216.34062 41.075Q216.34062 39.5125 216.95 38.278126Q217.55937 37.028126 218.6375 36.35625Q219.73125 35.684376 221.1375 35.684376Q223.29375 35.684376 224.62187 37.184376Q225.96562 38.66875 225.96562 41.153126L225.96562 41.278126Q225.96562 42.825 225.37187 44.059376Q224.77812 45.278126 223.66875 45.965626Q222.575 46.653126 221.15312 46.653126Q219.0125 46.653126 217.66875 45.153126Q216.34062 43.653126 216.34062 41.2L216.34062 41.075ZM218.15312 41.278126Q218.15312 43.04375 218.96562 44.10625Q219.79375 45.16875 221.15312 45.16875Q222.52812 45.16875 223.34062 44.090626Q224.15312 43.0125 224.15312 41.075Q224.15312 39.325 223.325 38.246876Q222.49687 37.16875 221.1375 37.16875Q219.79375 37.16875 218.96562 38.23125Q218.15312 39.29375 218.15312 41.278126ZM234.34062 45.403126Q233.29375 46.653126 231.24687 46.653126Q229.55937 46.653126 228.66875 45.66875Q227.79375 44.684376 227.77812 42.7625L227.77812 35.8875L229.59062 35.8875L229.59062 42.715626Q229.59062 45.10625 231.54375 45.10625Q233.60625 45.10625 234.29375 43.575L234.29375 35.8875L236.10625 35.8875L236.10625 46.45L234.3875 46.45L234.34062 45.403126ZM243.91875 37.496876Q243.5125 37.434376 243.04375 37.434376Q241.2625 37.434376 240.62187 38.95L240.62187 46.45L238.825 46.45L238.825 35.8875L240.575 35.8875L240.60625 37.10625Q241.49687 35.684376 243.12187 35.684376Q243.65312 35.684376 243.91875 35.825L243.91875 37.496876ZM250.3875 41.075Q250.3875 38.60625 251.52812 37.153126Q252.66875 35.684376 254.55937 35.684376Q256.4969 35.684376 257.575 37.059376L257.66876 35.8875L259.3094 35.8875L259.3094 46.2Q259.3094 48.246876 258.09064 49.41875Q256.8875 50.60625 254.825 50.60625Q253.68437 50.60625 252.59062 50.121876Q251.49687 49.6375 250.91875 48.778126L251.85625 47.7Q253.02812 49.1375 254.7 49.1375Q256.02814 49.1375 256.7625 48.3875Q257.4969 47.653126 257.4969 46.309376L257.4969 45.3875Q256.41876 46.653126 254.54375 46.653126Q252.68437 46.653126 251.52812 45.153126Q250.3875 43.653126 250.3875 41.075ZM252.2 41.278126Q252.2 43.075 252.93437 44.090626Q253.66875 45.10625 254.98125 45.10625Q256.7 45.10625 257.4969 43.559376L257.4969 38.73125Q256.66876 37.215626 255.0125 37.215626Q253.68437 37.215626 252.93437 38.246876Q252.2 39.278126 252.2 41.278126ZM266.2 46.653126Q264.0594 46.653126 262.7 45.246876Q261.35626 43.825 261.35626 41.465626L261.35626 41.121876Q261.35626 39.559376 261.95 38.325Q262.5594 37.090626 263.6375 36.3875Q264.71564 35.684376 265.98126 35.684376Q268.04376 35.684376 269.1844 37.04375Q270.325 38.403126 270.325 40.934376L270.325 41.684376L263.16876 41.684376Q263.2 43.246876 264.075 44.215626Q264.95 45.16875 266.29376 45.16875Q267.2625 45.16875 267.91876 44.778126Q268.59064 44.3875 269.09064 43.746876L270.1844 44.60625Q268.85626 46.653126 266.2 46.653126ZM265.98126 37.16875Q264.8875 37.16875 264.1375 37.965626Q263.40314 38.7625 263.23126 40.2L268.5125 40.2L268.5125 40.059376Q268.4344 38.684376 267.7625 37.934376Q267.10626 37.16875 265.98126 37.16875ZM274.52814 35.8875L274.59064 37.215626Q275.79376 35.684376 277.7469 35.684376Q281.10626 35.684376 281.1219 39.465626L281.1219 46.45L279.325 46.45L279.325 39.45Q279.3094 38.309376 278.79376 37.7625Q278.29376 37.215626 277.2 37.215626Q276.325 37.215626 275.65314 37.684376Q274.9969 38.153126 274.6219 38.91875L274.6219 46.45L272.825 46.45L272.825 35.8875L274.52814 35.8875ZM283.3719 41.075Q283.3719 38.653126 284.52814 37.16875Q285.6844 35.684376 287.54376 35.684376Q289.40314 35.684376 290.48126 36.95L290.48126 31.45L292.29376 31.45L292.29376 46.45L290.6375 46.45L290.54376 45.309376Q289.46564 46.653126 287.52814 46.653126Q285.7 46.653126 284.52814 45.153126Q283.3719 43.6375 283.3719 41.215626L283.3719 41.075ZM285.1844 41.278126Q285.1844 43.075 285.91876 44.090626Q286.66876 45.10625 287.98126 45.10625Q289.7 45.10625 290.48126 43.575L290.48126 38.715626Q289.6844 37.215626 287.9969 37.215626Q286.66876 37.215626 285.91876 38.246876Q285.1844 39.278126 285.1844 41.278126ZM299.2 46.653126Q297.0594 46.653126 295.7 45.246876Q294.35626 43.825 294.35626 41.465626L294.35626 41.121876Q294.35626 39.559376 294.95 38.325Q295.5594 37.090626 296.6375 36.3875Q297.71564 35.684376 298.98126 35.684376Q301.04376 35.684376 302.1844 37.04375Q303.325 38.403126 303.325 40.934376L303.325 41.684376L296.16876 41.684376Q296.2 43.246876 297.075 44.215626Q297.95 45.16875 299.29376 45.16875Q300.2625 45.16875 300.91876 44.778126Q301.59064 44.3875 302.09064 43.746876L303.1844 44.60625Q301.85626 46.653126 299.2 46.653126ZM298.98126 37.16875Q297.8875 37.16875 297.1375 37.965626Q296.40314 38.7625 296.23126 40.2L301.5125 40.2L301.5125 40.059376Q301.4344 38.684376 300.7625 37.934376Q300.10626 37.16875 298.98126 37.16875ZM310.91876 37.496876Q310.5125 37.434376 310.04376 37.434376Q308.2625 37.434376 307.6219 38.95L307.6219 46.45L305.825 46.45L305.825 35.8875L307.575 35.8875L307.60626 37.10625Q308.4969 35.684376 310.1219 35.684376Q310.65314 35.684376 310.91876 35.825L310.91876 37.496876ZM314.9344 42.45Q314.95 41.278126 315.2 40.60625Q315.45 39.934376 316.2 39.121876L317.48126 37.79375Q318.29376 36.871876 318.29376 35.809376Q318.29376 34.778126 317.7469 34.2Q317.21564 33.621876 316.2 33.621876Q315.2 33.621876 314.59064 34.153126Q313.9969 34.66875 313.9969 35.559376L312.1844 35.559376Q312.2 33.98125 313.3094 33.0125Q314.41876 32.028126 316.2 32.028126Q318.04376 32.028126 319.075 33.028126Q320.10626 34.0125 320.10626 35.746876Q320.10626 37.45 318.52814 39.121876L317.45 40.16875Q316.7469 40.965626 316.7469 42.45L314.9344 42.45ZM314.85626 45.54375Q314.85626 45.10625 315.1219 44.809376Q315.40314 44.5125 315.91876 44.5125Q316.45 44.5125 316.71564 44.809376Q316.9969 45.10625 316.9969 45.54375Q316.9969 45.98125 316.71564 46.278126Q316.45 46.559376 315.91876 46.559376Q315.40314 46.559376 315.1219 46.278126Q314.85626 45.98125 314.85626 45.54375Z" fill-rule="nonzero"/></svg>